<?xml version="1.0" standalone="no"?>
<!DOCTYPE svg PUBLIC "-//W3C//DTD SVG 1.1//EN" "http://www.w3.org/Graphics/SVG/1.1/DTD/svg11.dtd" >
<svg xmlns="http://www.w3.org/2000/svg">
<metadata></metadata>
<defs>
<font id="socialicoregular" horiz-adv-x="1630" >
<font-face units-per-em="2048" ascent="1536" descent="-512" />
<missing-glyph horiz-adv-x="500" />
<glyph horiz-adv-x="2048" />
<glyph horiz-adv-x="2048" />
<glyph unicode="&#xd;" horiz-adv-x="2048" />
<glyph unicode=" " d="M96 729q0 -196 97 -362q97 -167 263.5 -263t360.5 -96q195 0 361 97t262 263t96 361q0 144 -56 277.5t-154 231.5t-231.5 154t-277.5 56t-277.5 -56t-231.5 -154t-155 -231.5t-57 -277.5z" />
<glyph unicode="!" d="M96 719q0 -147 58 -279q58 -135 154 -230q98 -98 231.5 -154t277.5 -56t277.5 56t231.5 154t154 231.5t56 277.5t-56 278t-154 232t-231.5 154.5t-277.5 56.5t-277.5 -56.5t-231.5 -154.5q-99 -99 -155.5 -232.5t-56.5 -277.5zM303 616q0 53 41 86v-172q-41 38 -41 86z M387 508v219q17 4 33 4q4 0 10 -2v-225h-10q-16 0 -33 4zM473 504v213l8 -4q8 37 35 75v-284h-43zM559 504v325q22 14 43 21v-346h-43zM645 504v354q8 2 17 2q7 0 13 -1t13 -1v-354h-43zM711 504v348q27 -8 45 -18q1 3 18 26v-356h-63zM797 504v377q56 53 143 53 q86 0 148 -55.5t71 -137.5q30 11 49 11q52 0 86.5 -35.5t34.5 -87.5q0 -53 -32 -86.5t-93 -36.5v-2h-407z" />
<glyph unicode="#" horiz-adv-x="1100" d="M62 195l452 440l-452 438l33 34l453 -439l454 441l33 -34l-452 -440l452 -438l-33 -34l-453 439l-454 -441z" />
<glyph unicode="$" horiz-adv-x="1628" d="M96 717q0 -196 97 -362q96 -167 262 -263t360 -96q195 0 361 97t262 263t96 361q0 144 -56 277.5t-154 231.5t-231.5 154t-277.5 56t-277.5 -56t-231.5 -154t-154 -231.5t-56 -277.5zM401 553v326h50v-45q44 51 102 51q74 0 94 -56q41 56 105 56q51 0 75 -27 q27 -24 27 -82v-223h-55v205q0 35 -6 47q-13 33 -54 33q-36 0 -59 -23t-23 -74v-188h-57v211q0 38 -14 55q-13 19 -45 19q-23 0 -45 -13q-39 -25 -39 -102v-170h-56zM920 713q0 85 45 127q42 45 112 45t111 -45t41 -123v-15h-250q3 -53 31 -81q26 -29 69 -29q35 0 54.5 14.5 t35.5 50.5l58 -6q-25 -104 -148 -104q-74 0 -116.5 43.5t-42.5 122.5zM983 748h186q-3 42 -26 67t-66 25q-38 0 -66 -26t-28 -66z" />
<glyph unicode="%" horiz-adv-x="1448" d="M171 196q0 -41 28 -69.5t68 -28.5q41 0 69.5 28.5t28.5 69.5q0 40 -28.5 68t-69.5 28t-68.5 -28t-27.5 -68zM171 652q0 -41 28 -69.5t68 -28.5q41 0 69.5 28.5t28.5 69.5t-28.5 69t-69.5 28q-40 0 -68 -28t-28 -69zM171 1108q0 -41 28 -69.5t68 -28.5q41 0 69.5 28.5 t28.5 69.5t-28.5 69t-69.5 28q-40 0 -68 -28t-28 -69zM627 196q0 -41 28 -69.5t68 -28.5q41 0 69.5 28.5t28.5 69.5q0 40 -28.5 68t-69.5 28t-68.5 -28t-27.5 -68zM627 652q0 -41 28 -69.5t68 -28.5q41 0 69.5 28.5t28.5 69.5t-28.5 69t-69.5 28q-40 0 -68 -28t-28 -69z M627 1108q0 -41 28 -69.5t68 -28.5q41 0 69.5 28.5t28.5 69.5t-28.5 69t-69.5 28q-40 0 -68 -28t-28 -69zM1083 196q0 -41 28 -69.5t68 -28.5q42 0 70 28.5t28 69.5t-28 68.5t-70 27.5q-40 0 -68 -28t-28 -68zM1083 652q0 -41 28 -69.5t68 -28.5q42 0 70 28.5t28 69.5 t-28 69t-70 28q-40 0 -68 -28.5t-28 -68.5zM1083 1108q0 -41 28 -69.5t68 -28.5q42 0 70 28.5t28 69.5t-28 69t-70 28q-40 0 -68 -28.5t-28 -68.5z" />
<glyph unicode="&#x26;" horiz-adv-x="1628" d="M96 717q0 -196 97 -362q96 -167 262 -263t360 -96q195 0 361 97t262 263t96 361q0 144 -56 277.5t-154 231.5t-231.5 154t-277.5 56t-277.5 -56t-231.5 -154t-154 -231.5t-56 -277.5zM512 807q2 91 53 159t134.5 100t177.5 21q92 -10 161 -75t78 -150q8 -81 -18 -163.5 t-78 -125.5q-44 -39 -111.5 -47.5t-120.5 23.5q-1 1 -7 10q-8 16 -17 10q-38 -164 -76 -227h-49q-10 56 -3 99t37 144q27 93 27 136q0 16 -7 48q-8 36 -5 56q4 25 21 48t40 35q21 12 43.5 5t34.5 -34q22 -56 -18 -141q-38 -84 4 -122q9 -9 32 -14t44 -2q66 14 97 96 q33 81 16.5 169.5t-70.5 121.5q-40 24 -83 29.5t-79.5 -5t-70.5 -33.5q-49 -33 -77 -88.5t-22 -111.5q4 -30 30 -75q21 -35 -14 -70q-56 23 -80 64t-24 110z" />
<glyph unicode="(" horiz-adv-x="1628" d="M96 721q0 -145 57 -279t153 -230q98 -98 231.5 -154t277.5 -56t277.5 56t231.5 154t154 231.5t56 277.5t-56 278t-154 232t-231.5 154.5t-277.5 56.5t-277.5 -56.5t-231.5 -154.5t-154 -232t-56 -278zM465 721q0 146 102.5 248t247.5 102t247.5 -102t102.5 -248 q0 -145 -102.5 -247.5t-247.5 -102.5t-247.5 102.5t-102.5 247.5zM535 721q0 -116 81.5 -197.5t198.5 -81.5q116 0 198.5 82t82.5 197q0 117 -82 198.5t-199 81.5t-198.5 -81.5t-81.5 -198.5zM676 686h69v211h140v-211h69l-139 -139z" />
<glyph unicode=")" d="M96 719q0 -145 57 -279t153 -230q98 -98 231.5 -154t277.5 -56t278 56t232 154t154.5 231.5t56.5 277.5t-56.5 277.5t-154.5 231.5t-232 154t-278 56t-277.5 -56t-231.5 -154t-154 -231.5t-56 -277.5zM346 764l209 229l209 -229h-154v-211h166l109 -111h-350 q-13 0 -24 11t-11 24v287h-154zM748 995h350q14 0 24.5 -10.5t10.5 -23.5v-287h153l-209 -230l-211 230h156v211h-166z" />
<glyph unicode="," d="M96 713q0 -145 57 -279t153 -230q98 -98 231.5 -154t277.5 -56t278 56t232 154t154.5 231.5t56.5 277.5t-56.5 277.5t-154.5 232.5q-99 98 -232.5 154.5t-277.5 56.5t-277.5 -56.5t-231.5 -154.5t-154 -232t-56 -278zM463 813q15 37 45 47q31 18 63 10l31 -12l103 -74 q-18 -21 -19 -34l-166 -21l-12 2q-33 6 -43 31q-14 23 -2 51zM506 594l2 10q10 31 47 47l35 15l92 16l6 -23l4 -8l-22 -21q-16 -16 -21 -20l-35 -28l-8 -7q-34 -14 -61.5 -11.5t-36.5 18.5zM618 432l5 27q11 25 18 33l96 114q25 -13 37 -14q5 -88 10 -125v-57 q-14 -33 -43 -48q-34 -17 -66.5 -8t-45.5 39q-11 19 -11 39zM635 1006q0 28 22 41q9 9 27 2q31 -9 51 -50q13 -29 15 -36l22 -136l-16 -6l-103 111l-6 12q-16 34 -12 62zM723 707q0 28 23 50.5t55 22.5q33 0 54.5 -21.5t21.5 -51.5q0 -36 -23 -56q-22 -22 -53 -22 q-34 0 -53 22q-25 22 -25 56zM827 592l19 8l16 8l47 -49l31 -37l6 -12q16 -31 15 -59q-8 -37 -25 -41q-8 -7 -27 -7q-32 11 -51 52l-14 39zM831 950v58q4 30 41 53q36 17 66 4q37 -6 53 -37q8 -26 8 -41l-4 -24q-6 -19 -16 -35l-102 -127q-7 5 -35 20zM901 647l8 19l4 14 l131 10h58q31 -11 41 -33q18 -18 18 -49l-4 -22q-9 -35 -40 -51.5t-62 -4.5q-20 3 -33 19zM905 762l4 4l117 98l14 4q27 15 59.5 11t41.5 -27l4 -14l-2 -11q-10 -31 -53 -51q-27 -9 -39 -10l-142 -16l-2 8z" />
<glyph unicode="." d="M96 717q0 -145 57 -279t153 -230q98 -98 231.5 -154t277.5 -56t278 56t232 154t154.5 231.5t56.5 277.5t-56.5 277.5t-154.5 232.5q-99 98 -232.5 154.5t-277.5 56.5t-277.5 -56.5t-231.5 -154.5t-154 -232t-56 -278zM485 717q0 136 97.5 233t232.5 97q137 0 233.5 -96.5 t96.5 -233.5q0 -135 -97 -231.5t-233 -96.5q-135 0 -232.5 96.5t-97.5 231.5zM553 717q0 -108 77 -185t185 -77q109 0 186.5 76.5t77.5 185.5t-77.5 186.5t-186.5 77.5t-185.5 -77.5t-76.5 -186.5zM674 598q-2 21 12 37.5t35 19.5q17 0 24 -4v199l191 33v-254q2 -21 -12 -38 t-35 -20q-21 -2 -36.5 11t-16.5 34q-2 22 11.5 38.5t35.5 19.5q17 0 24 -4v139l-133 -25v-174q1 -22 -12 -38t-35 -19q-20 -3 -36 10t-17 35z" />
<glyph unicode="/" d="M96 717q0 -196 97 -362q96 -167 262 -263t360 -96q195 0 361 97q167 97 263.5 263t96.5 361q0 144 -56.5 277.5t-154.5 231.5t-232 154t-278 56t-277.5 -56t-231.5 -154t-154 -231.5t-56 -277.5zM434 721q0 63 45 107q44 44 107 44t107 -44t44 -107q0 -29 -10 -55 l64 -107l405 430l2 -8v-205l-414 -334l-147 136q-30 -11 -51 -11q-63 0 -107.5 45.5t-44.5 108.5z" />
<glyph unicode="0" d="M96 725q0 -145 57 -279t153 -230q98 -98 231.5 -155t277.5 -57t277.5 56.5t232.5 155.5q98 98 154.5 231.5t56.5 277.5t-56.5 277.5t-154.5 231.5t-232 154t-278 56t-277.5 -56t-231.5 -154t-154 -231.5t-56 -277.5zM455 502l63 219q14 5 19 8q58 19 98 21h12 q44 0 98 -25l25 -16q-17 -66 -65 -226q-74 43 -134 43q-51 0 -116 -24zM541 799l61 219q73 29 121 29q59 0 131 -41l-66 -224q-61 43 -126 43q-55 0 -121 -26zM764 449l63 221q53 -43 144 -43q57 0 119 18l-62 -211q-68 -31 -133 -31q-30 0 -68.5 14.5t-62.5 31.5zM848 741 l65 224q67 -43 142 -43q59 0 121 24l-62 -217h-4v-2q-67 -29 -123 -29q-75 0 -139 43z" />
<glyph unicode="1" d="M96 725q0 -195 97 -361q97 -167 263 -263.5t361 -96.5q144 0 277.5 57t231.5 155t154 231.5t56 277.5t-56 277.5t-154 231.5t-231.5 154t-277.5 56q-195 0 -362 -96q-167 -97 -263 -263t-96 -360zM477 623v202h238v238h203v-238h237v-202h-237v-236h-203v236h-238z" />
<glyph unicode="2" d="M96 717q0 -144 57 -277.5t155 -231.5t231.5 -154t277.5 -56t277.5 56t231.5 154t154 231.5t56 277.5t-55.5 276t-152.5 231q-97 98 -229 154.5t-276 57.5h-14q-119 -2 -224 -38q-210 -71 -351 -258q-66 -88 -102 -197.5t-36 -225.5zM453 733q0 51 36 87q35 36 86 36 q40 0 80 -31l248 125v8q0 51 36 86t87 35t87 -35t36 -86t-36 -86.5t-87 -35.5q-45 0 -80 28l-248 -125v-14l248 -123q43 29 80 29q51 0 87 -36t36 -87t-36 -87t-87 -36t-87 36t-36 87v6l-248 125q-38 -29 -80 -29q-51 0 -86.5 36t-35.5 87z" />
<glyph unicode="3" horiz-adv-x="1632" d="M96 717q0 -196 97 -362q97 -167 263.5 -263t360.5 -96q195 0 361 97t262 263t96 361q0 144 -56 277.5t-154 231.5t-231.5 154t-277.5 56t-277.5 -56t-231.5 -154t-155 -231.5t-57 -277.5zM442 539q-3 6 0 18l136 236l-84 147q-10 10 0 21q3 6 16 6h125q21 0 35 -23 q83 -148 86 -151l-135 -240q-16 -25 -35 -25h-125q-11 0 -19 11zM723 618l281 498q15 23 34 23h125q10 0 19 -9q3 -9 0 -20l-279 -489q-1 0 -1 -1q0 -2 1 -2l176 -323q3 -11 -0.5 -20t-15.5 -9h-127q-24 0 -33 27z" />
<glyph unicode="4" horiz-adv-x="1628" d="M96 715q0 -144 56 -277.5t154 -231.5t231.5 -154t277.5 -56t277.5 56t231.5 154t154 231.5t56 277.5q0 143 -55 276t-152 231q-98 98 -230 154.5t-274 57.5h-16q-142 -1 -274 -57.5t-229 -154.5t-152.5 -231t-55.5 -276zM467 723q0 99 50.5 182t139.5 127q5 -5 66 -60.5 t65 -58.5q-5 -5 -151.5 -138t-157.5 -142q-12 43 -12 90zM492 594q4 4 70.5 64.5t74.5 66.5v-299q-100 58 -145 168zM672 406v165h456q-39 -83 -114 -134.5t-166 -59.5h-66q-47 3 -110 29zM694 1049q60 22 121 22q74 0 143 -31v-233q-16 16 -133 122t-131 120zM995 608v412 q78 -47 123 -126.5t45 -170.5q0 -59 -18 -115h-150z" />
<glyph unicode="5" d="M96 713q0 -196 97 -362q96 -167 262.5 -263t361.5 -96t361 97t262 263t96 361q0 144 -56 277.5t-154 231.5t-231.5 154t-277.5 56q-195 0 -362 -96q-167 -97 -263 -263t-96 -360zM414 528q0 130 12 191q9 34 33 55.5t57 24.5q102 12 305 12q207 0 307 -12q33 -3 57.5 -25 t31.5 -55q16 -60 16 -191q0 -135 -16 -196q-7 -32 -31 -53.5t-58 -26.5q-96 -10 -307 -10q-208 0 -305 10q-33 4 -57 25.5t-33 54.5q-12 63 -12 196zM475 664v53h172v-53h-59v-314h-56v314h-57zM547 1231h57l41 -148l37 148h55l-69 -217v-152h-54v152q-9 50 -32 112 q-32 92 -35 105zM651 406v217h51v-222q4 -12 15 -12q12 0 31 25v209h47v-273h-47v29q-35 -35 -56 -35q-24 0 -35 23q-6 24 -6 39zM737 948v99q0 46 17 63q21 31 57 31q35 0 54.5 -24.5t19.5 -69.5v-99q0 -43 -19.5 -67.5t-54.5 -24.5q-37 0 -57 29q-17 20 -17 63zM786 942 v117q0 37 25 37t25 -37v-117q0 -41 -25 -41t-25 41zM838 350v367h51v-121q24 31 49 31q29 0 37 -19t8 -67v-111q0 -47 -8.5 -66.5t-36.5 -19.5q-26 0 -49 33v-27h-51zM889 403q14 -14 26 -14q21 0 21 41v113q0 39 -21 39q-13 0 -26 -13v-166zM926 920v217h49v-222 q8 -14 14 -14q13 0 29 27v209h51v-275h-51v29q-32 -35 -55 -35q-22 0 -29.5 16t-7.5 48zM1020 438v94q0 41 16 64q28 31 62 31q33 0 57 -31q14 -14 14 -64v-55h-98v-47q0 -41 27 -41q17 0 20 23v30h51v-36q-1 -7 -10 -31q-24 -31 -61 -31q-34 0 -62 31q-16 23 -16 63z M1071 516h51v27q0 39 -24 39q-27 0 -27 -39v-27z" />
<glyph unicode="6" d="M96 717q0 -147 58 -279q58 -135 154 -230q98 -98 231.5 -154t277.5 -56t277.5 56t231.5 154t154 231.5t56 277.5t-56 278t-154 232t-231.5 154.5t-277.5 56.5t-277.5 -56.5t-231.5 -154.5q-99 -99 -155.5 -232.5t-56.5 -277.5zM322 717q0 123 85.5 210t208.5 87 q92 0 164 -48.5t109 -134.5l96 -225q26 -56 51.5 -78.5t73.5 -23.5q53 -3 88 25t35 71q0 36 -21.5 53.5t-81.5 36.5q-97 32 -136.5 68t-39.5 100q0 68 43.5 109t116.5 41q93 0 143 -86l-63 -33q-36 47 -84 47q-34 0 -57 -22t-23 -54q0 -12 3 -23q3 -13 24 -31q8 -8 44 -21 q10 -3 60 -19q84 -29 118 -65t34 -103q0 -75 -57 -123.5t-142 -48.5q-71 0 -118 34t-78 105l-11 25l-94 215q-23 57 -77 92t-120 35q-89 0 -152 -63t-63 -152q0 -88 63 -150.5t152 -62.5q61 0 112 30.5t79 83.5l37 -88q-40 -51 -100 -79.5t-128 -28.5q-123 0 -208.5 86 t-85.5 209z" />
<glyph unicode="7" d="M96 711q0 -147 58 -279q58 -135 154 -230q98 -98 231.5 -154t277.5 -56t277.5 56t231.5 154t154 231.5t56 277.5t-56 278t-154 232t-231.5 154.5t-277.5 56.5t-277.5 -56.5t-231.5 -154.5q-99 -99 -155.5 -232.5t-56.5 -277.5zM565 809q0 104 75 179t181 75 q104 0 179 -75t75 -179q0 -90 -57.5 -160.5t-145.5 -89.5l-51 -203l-51 203q-89 19 -147 89t-58 161zM631 809q0 -80 55.5 -135.5t134.5 -55.5q78 0 134.5 56t56.5 135q0 78 -56.5 134t-134.5 56q-79 0 -134.5 -56t-55.5 -134zM715 809q0 43 31 73.5t75 30.5q43 0 74 -30.5 t31 -73.5q0 -44 -31 -75.5t-74 -31.5q-44 0 -75 31.5t-31 75.5z" />
<glyph unicode="8" d="M96 721q0 -196 97 -362q97 -167 263.5 -263t360.5 -96q195 0 361 97t262 263t96 361q0 144 -56 277.5t-154 231.5t-231.5 154t-277.5 56t-277.5 -56t-231.5 -154t-155 -231.5t-57 -277.5zM530 641l4 -4q16 -12 25 -8q4 1 6 31q1 27 14 76q11 46 38 85t83 91 q39 36 52.5 49t37 37t32 38t9.5 27l23 -17q54 -42 124 -118q81 -89 89 -166l7 10q22 32 18 57v1l3 -11q10 -54 11 -107.5t-13 -114t-44 -107t-90 -78.5t-144 -35q-217 12 -285 264z" />
<glyph unicode="9" d="M96 719q0 -196 97 -362q97 -167 263.5 -263t360.5 -96q195 0 361 97t262 263t96 361q0 144 -56 277.5t-154 231.5t-231.5 154t-277.5 56t-277.5 -56t-231.5 -154t-155 -231.5t-57 -277.5zM385 682q3 61 47 113q67 67 172 59q57 -3 88 -37q19 -21 24.5 -51.5t3 -50 t-10.5 -58.5q-11 -51 -18 -111q-4 -31 -11 -69h-47q-43 0 -45 42q-1 32 8 73q-1 0 -3 -2t-5.5 -5t-7.5 -6q-13 -12 -22.5 -16t-29.5 -8q-67 -6 -106.5 30.5t-36.5 96.5zM494.5 706q-6.5 -42 17.5 -65q19 -8 38 -6.5t32 10.5q25 18 31 63q6 41 -9.5 56.5t-46.5 15.5 q-22 -3 -31 -12q-25 -20 -31.5 -62zM748 647q4 32 15 100q7 44 13 89q14 1 39 1q42 0 53 -22q10 -13 0 -61q-16 -125 -28 -189q-71 -4 -86.5 12.5t-5.5 69.5zM782 895q-9 43 54 63h18q29 -6 37 -26q6 -22 -4.5 -39.5t-30.5 -24.5q-21 -10 -44.5 -2t-29.5 29zM895 618 q5 36 11 76l22 141q5 29 10 64t6 41v4q55 2 77 -8q20 -8 21 -36.5t-9 -76.5q-1 -3 -1 -5t-1 -5t-1 -6q-10 -55 -12 -78q16 13 29 29q49 54 55 59q20 21 31 25q22 8 75 5q30 -2 39 -1q-13 -15 -66 -65q-38 -35 -67 -64q8 -12 18 -31q7 -14 19 -34q24 -36 59 -42 q-4 -33 -45.5 -45.5t-70.5 8.5q-14 9 -43 60q-7 11 -18 31q-11 21 -19 32q-1 -6 -2.5 -15.5t-4 -24.5t-4.5 -26q-7 -42 -12 -67q-52 -2 -75.5 9.5t-20.5 45.5z" />
<glyph unicode=":" horiz-adv-x="1634" d="M227 881q0 -129 47.5 -208.5t151.5 -121.5q29 29 36 55q12 40 -23 102q-41 71 -46 117q-9 86 24 172q62 165 241 250q79 39 177.5 33t186.5 -59q51 -30 86 -93t47 -141q26 -165 -30 -313q-27 -72 -75.5 -122.5t-109.5 -62.5q-40 -6 -82 3t-61 28q-59 54 -33 144 q17 59 59 175q16 45 17 90q2 51 -19 95.5t-61 55.5q-83 23 -158 -74q-34 -43 -41 -86.5t8 -110.5t15 -92q0 -83 -52 -260q-55 -186 -61 -224q-23 -130 -4 -233h94q71 120 144 430q17 12 34 -20q7 -15 13 -19q56 -44 143 -47q85 -4 164 22.5t131 71.5q97 82 147 237t35 310 q-20 161 -149 283q-84 79 -196 117t-225 33t-220 -46q-160 -62 -256.5 -193t-98.5 -298z" />
<glyph unicode="&#x3c;" horiz-adv-x="650" d="M61 635l488 -472l33 34l-453 438l453 440l-33 34z" />
<glyph unicode="&#x3e;" horiz-adv-x="650" d="M66 196l33 -34l487 475l-487 472l-33 -35l452 -437z" />
<glyph unicode="?" d="M96 713q0 -196 97 -362q97 -167 263.5 -263t360.5 -96q195 0 361 97t262 263t96 361q0 144 -56 277.5t-154 231.5t-231.5 154t-277.5 56t-277.5 -56t-231.5 -154t-155 -231.5t-57 -277.5zM453 430v541q0 38 28 66t68 28h541q39 0 66.5 -27.5t27.5 -66.5v-541 q0 -39 -27.5 -66.5t-66.5 -27.5h-541q-40 0 -68 28t-28 66zM537 449q0 -12 8 -21.5t20 -9.5h508q11 0 20 9.5t9 21.5v307h-64q9 -27 9 -62q0 -91 -67 -156t-161 -65q-92 0 -158.5 65t-66.5 156q0 36 8 62h-65v-307zM672 702q0 -58 44 -100q43 -43 103 -43q61 0 104.5 42 t43.5 101t-43.5 100.5t-104.5 41.5q-60 0 -103.5 -42t-43.5 -100zM954 872q0 -14 9 -23t22 -9h84q14 0 23.5 9.5t9.5 22.5v80q0 12 -10 21.5t-23 9.5h-84q-13 0 -22 -9.5t-9 -21.5v-80z" />
<glyph unicode="@" d="M96 719q0 -147 58 -279q58 -135 154 -230q98 -98 231.5 -154t277.5 -56t277.5 56t231.5 154t154 231.5t56 277.5t-56 278t-154 232t-231.5 154.5t-277.5 56.5t-277.5 -56.5t-231.5 -154.5q-99 -99 -155.5 -232.5t-56.5 -277.5zM541 748q0 67 28 114q23 39 60 61 q64 40 142 10q37 -15 48 -15q7 0 53 17q44 16 76 13q32 0 66 -15.5t57 -49.5q-12 -7 -22 -15q-18 -14 -35 -46.5t-17 -67.5q1 -57 33 -92q25 -30 50 -40q2 -1 5 -2q5 -4 3 -8v-1q-3 -6 -6 -15l-9 -20q-17 -35 -31 -54q-3 -4 -9 -12.5t-8 -11t-7 -9t-7 -8.5t-6 -6.5t-7 -7 t-7.5 -6t-9.5 -7.5q-20 -14 -41.5 -14.5t-53.5 13.5q-34 14 -59 14t-58 -14q-31 -13 -52 -15q-47 -2 -105 86q-71 99 -71 224zM813 956q-6 56 37 105q41 46 98 51q6 -61 -35 -108q-43 -54 -100 -48z" />
<glyph unicode="A" horiz-adv-x="1570" d="M97 384q0 -7 7 -11q138 -127 312 -194.5t370 -67.5q128 0 261.5 35t236.5 98q23 9 59 41q10 7 12 17q0 9 -11 14.5t-23 0.5q-22 -9 -37 -14q-232 -92 -483 -92q-369 0 -682 180q-8 4 -15 2q-7 -1 -7 -9zM477 748q0 -107 60.5 -167.5t160.5 -60.5q63 0 119.5 20.5 t124.5 86.5l13 -19q10 -15 26 -36q13 -17 45 -42q22 -9 33 5q103 84 115 96q14 15 4 37q-20 23 -31 39q-29 39 -29 96v233q0 16 1 40v42q-1 8 -3 36q-2 30 -6 40q-2 4 -5.5 15t-5.5 17q-10 32 -44 64q-39 35 -100.5 54.5t-123.5 19.5h-30q-104 -6 -185 -54 q-91 -53 -114 -171q-6 -23 18 -33l146 -14q14 0 24 24q20 82 111 92h12q51 0 80 -39q15 -19 17 -41q2 -18 2 -45q-1 -12 -1 -22v-21q-22 0 -110 -8q-112 -15 -166 -45q-158 -62 -158 -239zM690 774q0 106 111 139q38 9 110 9v-29v-27v-30q0 -34 -6 -52q-10 -31 -22 -47 q-26 -53 -82 -69h-19q-42 0 -67 29t-25 77zM1216 367q0 -9 13 -9q3 0 23 3q52 6 87 6q56 0 66 -13q5 -8 5 -21q0 -42 -44 -153q-4 -6 -1.5 -9.5t7.5 -3.5t12 7q39 33 64 90.5t29 108.5v6q0 13 -9 22q-8 15 -65 20q-9 1 -27 1q-46 0 -92 -12q-28 -10 -59 -31q-9 -6 -9 -12z " />
<glyph unicode="B" horiz-adv-x="1286" d="M96 600q0 -201 143.5 -345t344.5 -144h121q132 0 244.5 61t177.5 166t65 229q0 191 -106.5 324t-258.5 133h-243q-51 0 -87 -35.5t-36 -85.5q0 -51 36 -87t87 -36h243q46 0 83.5 -64t37.5 -149q0 -89 -70 -150t-173 -61h-121q-100 0 -172 71.5t-72 172.5v608 q0 50 -36 85.5t-85 35.5q-51 0 -87 -35.5t-36 -85.5v-608z" />
<glyph unicode="C" horiz-adv-x="1490" d="M96 586q0 -12 8.5 -20.5t20.5 -8.5h178l135 236h-313q-11 0 -20 -9.5t-9 -19.5v-178zM199 166q0 -26 22 -10l101 65q17 17 -5 33l-77 45q-8 5 -17.5 0.5t-9.5 -14.5zM250 356q0 -17 16 -24l76 -45q12 -5 24.5 -1.5t16.5 13.5l358 619q12 28 -12 40l-76 46q-12 5 -24.5 1 t-16.5 -14l-358 -618q-4 -9 -4 -17zM616 557h324l-111 236h-77zM706 1283q0 -14 8 -41q17 -57 44 -121q32 -76 55 -126l21 -47q31 -70 35 -79q15 -35 53 -121q69 -156 105 -220q23 -41 32 -45q11 -5 19 -6q13 -1 28 5q4 2 8.5 3.5t5.5 1.5q24 7 37 27.5t0 42.5 q-39 80 -120.5 232t-123.5 217q-29 47 -73 126q-49 86 -83 136q-27 38 -39 38q-2 0 -3 -1q-9 -5 -9 -22zM1092 793q1 -2 16.5 -30t26.5 -50q33 -65 41 -76q18 -40 26 -55q3 -3 6 -13q1 -9 4 -12h156q30 0 30 29v178q-1 12 -9.5 20.5t-20.5 8.5h-276zM1107 412q0 -10 7 -17 l43 -73q18 -24 45 -13l33 19q24 20 10 49l-37 69q-5 12 -16 16q-8 2 -11 2q-6 0 -12 -3l-45 -23q-13 -7 -16 -20q-1 -2 -1 -6zM1197 249q0 -19 15 -38q19 -28 91 -60q21 -10 25 -22v24q1 7 1 23q0 21 -1 32q-6 80 -47 94l-16 3q-18 0 -48 -14q-20 -22 -20 -42z" />
<glyph unicode="D" horiz-adv-x="1388" d="M96 719q0 -121 47 -233q46 -111 127 -192q82 -82 193 -128.5t231 -46.5t231.5 46.5t193.5 128.5t128.5 193.5t46.5 231.5t-46.5 230.5t-128.5 192.5t-193.5 128.5t-231.5 46.5t-231 -46.5t-193 -128.5t-128 -192.5t-46 -230.5zM197 694q6 0 36 -2t33 -2q224 0 449 82 q15 -44 30 -72q-129 -43 -236 -124.5t-181 -194.5q-128 134 -131 313zM199 793q20 119 90 215t176 153q123 -141 207 -297q-195 -71 -406 -71h-67zM401 311q143 216 377 295q61 -188 74 -362q-69 -25 -158 -25q-153 0 -293 92zM565 1198q66 19 129 19q96 0 186 -36.5 t160 -103.5q-128 -110 -276 -176q-83 155 -199 297zM807 809q160 72 299 190q88 -133 88 -280q-109 26 -190 26q-63 0 -162 -18q-9 20 -17 42zM874 631q64 12 130 12q83 0 180 -22q-22 -106 -83.5 -193t-152.5 -139q-23 192 -74 342z" />
<glyph unicode="E" horiz-adv-x="1644" d="M96 268h406q55 0 129 11q69 23 100 49q44 29 75.5 85.5t31.5 127.5q0 74 -35.5 130t-104.5 85q50 24 66 51q45 48 45 133q0 79 -41 135q-72 96 -236 96h-436v-903zM303 426v240h197q66 0 88 -15q59 -26 59 -96q0 -87 -59 -113q-31 -16 -92 -16h-193zM303 817v199h170 q53 0 107 -15q49 -21 49 -83q0 -53 -37.5 -77t-95.5 -24h-193zM907 614q0 -181 97 -262q100 -76 229 -76q163 0 244 93q55 58 61 116h-172q-15 -31 -35 -43q-42 -30 -94 -30q-55 0 -92 26q-68 41 -68 135h473q0 79 -11.5 141t-47.5 122q-41 58 -111 96q-73 29 -151 29 q-148 0 -235 -92t-87 -255zM1044 1042h361v93h-361v-93zM1081 684q12 61 45 100q34 37 103 37q57 0 100 -33q37 -40 43 -104h-291z" />
<glyph unicode="F" horiz-adv-x="862" d="M96 674h193v-582h239v582h240v239h-240v123q0 30 14.5 52t32.5 22h193v236h-193q-119 0 -202.5 -92t-83.5 -222v-119h-193v-239z" />
<glyph unicode="G" horiz-adv-x="854" d="M96 358q0 -107 97 -182.5t235 -75.5t235 75.5t97 182.5t-97 182.5t-235 75.5h-27q-10 21 -10 56q0 17 3 36t7 19h9q114 0 195 81t81 196q0 58 -37 104l96 51v184l-198 -110q-74 47 -146 47q-112 0 -192 -81t-80 -195q0 -129 104 -213q-26 -54 -26 -119q0 -56 22 -107 q-63 -36 -98 -90t-35 -117zM281 358q0 41 43 71q44 30 104 30q61 0 104 -30t43 -71t-42.5 -69.5t-104.5 -28.5t-104.5 28.5t-42.5 69.5zM281 1004q0 52 38.5 90.5t90.5 38.5t90.5 -38.5t38.5 -90.5q0 -54 -37.5 -92t-91.5 -38t-91.5 38t-37.5 92z" />
<glyph unicode="H" horiz-adv-x="1427" d="M96 991q0 -107 56 -184q-9 -35 -9 -88q0 -155 76 -285q76 -132 207.5 -208t284.5 -76q51 0 104 12q79 -51 180 -51q141 0 239.5 98.5t98.5 239.5q0 107 -57 192q2 34 2 78q0 152 -76 282t-207 205.5t-284 75.5q-59 0 -93 -8q-76 55 -184 55q-141 0 -239.5 -98.5 t-98.5 -239.5zM370 511q0 27 18 47q18 22 54 24h2q46 0 85 -42q46 -53 61 -61q63 -37 131 -37q10 0 34 2q59 6 93 45q22 25 24 50q1 42 -59 71q-48 23 -121 35q-121 18 -213 75q-97 60 -97 158q0 11 1 17q7 106 76.5 170t173.5 74q30 3 59 3q168 0 277 -95q32 -27 44 -58 t4 -56q-7 -24 -26 -41t-41 -20h-2q-28 0 -95 64q-29 28 -70.5 48.5t-82.5 21.5q-59 0 -104 -30.5t-45 -69.5v-8q2 -17 11 -30t19.5 -21t30.5 -15t31.5 -9.5t35.5 -7t31 -6.5q85 -19 137 -34q59 -19 117 -56q52 -36 78 -101q17 -37 17 -71q0 -20 -6 -41q-17 -59 -56 -100 q-41 -45 -104 -73.5t-131 -31.5q-18 -1 -52 -1q-93 0 -160.5 23.5t-129.5 82.5q-40 37 -48 80q-2 16 -2 25z" />
<glyph unicode="I" horiz-adv-x="1232" d="M96 1243q0 -59 41 -100t99 -41t99.5 41t41.5 100t-41.5 101t-99.5 42t-99 -42t-41 -101zM121 225h229v793h-229v-793zM461 225h229v508l10 9q22 20 70 40q23 9 45 9q30 0 59 -17q13 -4 26 -26t13 -39v-484h226v484q0 78 -43 152t-111 112q-69 35 -147 38h-13 q-73 0 -135 -30v37h-229v-793z" />
<glyph unicode="J" horiz-adv-x="1886" d="M97 511q0 -18 1 -27q1 -52 9 -88q13 -69 33 -120q6 -16 7 -18l779 225l-213 432q80 23 159 29q46 2 67 2q48 0 81 -4q132 -17 239 -60q86 -36 137 -68q4 -3 10.5 -7.5t8.5 -5.5l-264 -70l-74 139q-65 13 -133 13q-54 0 -110 -9l180 -364l778 221l-18 24q-17 22 -57 61 q-104 96 -251 157q-211 86 -468 87h-9q-146 0 -317 -28q-10 -2 -15 -2l-82 166l-243 -31l100 -198q-85 -36 -144 -80q-112 -83 -157 -198q-34 -88 -34 -178zM345 580q0 32 11 74q10 39 48.5 85.5t97.5 83.5l114 -235l-258 -72l-6 18q-7 15 -7 46z" />
<glyph unicode="K" horiz-adv-x="1636" d="M96 590q6 -131 104 -241q99 -111 263.5 -174.5t355.5 -63.5q195 0 362 66q168 66 264.5 180t96.5 247q0 97 -56.5 188t-155.5 158q-98 67 -232.5 105.5t-278.5 38.5q-267 0 -461 -111v373h-262v-766zM358 604q0 88 62 164t168.5 120t230.5 44t230.5 -44t168.5 -120 t62 -164q0 -137 -134.5 -232.5t-326.5 -95.5t-326.5 95.5t-134.5 232.5zM516 604q0 -91 88 -154t215 -63q125 0 214 63.5t89 153.5q0 89 -88.5 151t-214.5 62q-127 0 -215 -62t-88 -151z" />
<glyph unicode="L" horiz-adv-x="1572" d="M248 342q175 -113 379 -113q131 0 246 42q207 75 338 272q116 178 116 391v29q72 57 123 129q-74 -32 -141 -39q77 49 108 135q-90 -47 -157 -58q-75 78 -181 78q-101 0 -173 -73.5t-72 -176.5q0 -29 6 -53q-150 6 -282 73.5t-226 184.5q-33 -61 -33 -125t29 -118t82 -86 q-58 0 -115 28v-2q0 -87 56 -155t143 -87q-43 -8 -66 -8q-21 0 -45 6q24 -76 86.5 -123.5t142.5 -48.5q-128 -104 -305 -104q-35 0 -59 2z" />
<glyph unicode="M" horiz-adv-x="1259" d="M96 590h213v-211h322v-279h534v500q0 110 -79 188t-189 78q-115 0 -188 -73q-17 64 -71 105.5t-122 41.5q-92 0 -154 -74q-12 47 -47.5 77t-81.5 30q-58 0 -97.5 -40t-39.5 -99v-244zM111 1143q0 -49 33.5 -84t80.5 -35t81 35t34 84q0 47 -34 80.5t-81 33.5t-80.5 -33.5 t-33.5 -80.5zM365 1143q0 -63 44 -107.5t107 -44.5q62 0 107 44.5t45 107.5q0 61 -45 106t-107 45q-63 0 -107 -44.5t-44 -106.5zM700 1143q0 -83 57.5 -141t139.5 -58q83 0 139 57.5t56 141.5q0 81 -57 137.5t-138 56.5q-82 0 -139.5 -57t-57.5 -137z" />
<glyph unicode="N" horiz-adv-x="1626" d="M96 719q0 -129 93 -221q92 -92 221 -92q130 0 221.5 91t91.5 222t-91.5 222t-221.5 91q-129 0 -221.5 -92t-92.5 -221zM907 719q0 -129 92 -221t220 -92q129 0 221 91.5t92 221.5t-92 221.5t-221 91.5t-220.5 -92t-91.5 -221z" />
<glyph unicode="O" horiz-adv-x="835" d="M96 809h140v-360q0 -76 16 -107q9 -38 51 -70q40 -37 92 -53q67 -18 111 -18q62 0 117 12q27 7 118 43v164q-70 -49 -155 -49q-88 0 -117 63q-8 19 -8 111v264h239v184h-239v238h-144q-13 -87 -36 -129q-27 -56 -68 -89t-117 -59v-145z" />
<glyph unicode="P" horiz-adv-x="1431" d="M96 217h328l82 375h231q171 0 297 101t164 272q9 50 9 94q0 125 -74 200q-94 93 -232 93h-557zM225 80h328l78 373h235q170 0 296.5 101t164.5 271q11 52 11 94q0 109 -66 185q26 -57 26 -125q0 -45 -10 -92q-36 -170 -163 -271.5t-298 -101.5h-233l-80 -375h-274z M551 809l70 311h161q39 0 69.5 -22t41.5 -56q5 -28 5 -45q0 -13 -1 -18q-4 -4 -4 -14q-17 -63 -68.5 -108t-111.5 -48h-162z" />
<glyph unicode="Q" horiz-adv-x="1363" d="M98 762q0 -108 41.5 -210.5t116.5 -179.5q77 -79 183.5 -124t224.5 -45q87 0 165 26q26 -41 62 -84q28 -32 64.5 -49.5t68.5 -18.5h7q58 0 96 19q3 1 6 2.5l6 3t4 2.5v98h-21q-23 0 -62 26t-73 71q125 81 200 208t81 275v20q0 144 -69 270q-75 134 -207.5 212t-289.5 78 q-158 0 -294 -78q-138 -79 -221 -213t-89 -289v-20zM389 777v16q9 176 101.5 300t216.5 124q83 0 151 -57q66 -56 101.5 -149t35.5 -201v-17q-3 -89 -32.5 -172.5t-77.5 -143.5q-43 65 -100 90q-41 17 -86 17h-10q-37 -1 -62 -11l-9 -4v-100l17 3q19 3 46 -8.5t44 -35.5 l27 -47q-33 -14 -74 -14q-82 0 -148.5 56t-103.5 149.5t-37 204.5z" />
<glyph unicode="R" horiz-adv-x="1441" d="M96 264q0 -69 49 -117q48 -49 117 -49t117.5 48.5t48.5 117.5t-48.5 117.5t-117.5 48.5t-117.5 -48.5t-48.5 -117.5zM96 686q116 0 223 -45t191 -129q170 -170 170 -414h244q0 224 -111 415q-112 192 -303 302.5t-414 110.5v-240zM96 1110q201 0 389.5 -79.5 t326.5 -216.5q137 -138 216.5 -326.5t79.5 -389.5h240q0 250 -98 482.5t-268 403.5q-171 170 -403.5 268t-482.5 98v-240z" />
<glyph unicode="S" horiz-adv-x="1667" d="M96 506q0 -138 97 -235t235 -97t235 93.5t97 228.5v471q0 31 22 54t54 23q30 0 51.5 -23t21.5 -54v-93l105 -47l151 47v93q0 136 -96.5 233.5t-232.5 97.5q-137 0 -234.5 -97.5t-97.5 -233.5v-461q0 -33 -22 -56.5t-54 -23.5q-33 0 -55.5 23.5t-22.5 56.5v203h-254v-203z M909 496q0 -137 98 -234.5t234 -97.5q138 0 235 97t97 235v202h-254v-202q0 -34 -22 -56t-56 -22q-32 0 -54 22t-22 56v209l-151 -48l-105 48v-209z" />
<glyph unicode="T" horiz-adv-x="1093" d="M96 641q0 -201 132.5 -343t318.5 -142h313q57 0 98 40.5t41 98.5q0 61 -39 100t-98 39h-309q-69 0 -122.5 62t-53.5 145v78h483q57 0 98 41t41 98q0 61 -41 103.5t-98 42.5h-483v139q0 59 -40 99t-101 40q-57 0 -98.5 -41t-41.5 -98v-502z" />
<glyph unicode="U" horiz-adv-x="1396" d="M96 506q0 -159 111.5 -272t269.5 -113h443q157 0 270 113.5t113 271.5v323l-13 23l-18 14q-9 6 -77 7q-71 1 -89 20q-12 10 -16 31q-4 14 -5 20q-3 16 -4 25l-10 66q-7 32 -13 49q-5 14 -12 27l-6 13q-35 79 -123 140t-172 71h-268q-158 0 -269.5 -113t-111.5 -272v-444z M410 508q0 31 21 52.5t52 21.5h432q31 0 52.5 -21.5t21.5 -52.5q0 -30 -22 -52t-52 -22h-432q-30 0 -51.5 22t-21.5 52zM410 948q0 30 21.5 52t51.5 22h211q30 0 52 -22t22 -52q0 -31 -21.5 -52.5t-52.5 -21.5h-211q-31 0 -52 21.5t-21 52.5z" />
<glyph unicode="V" horiz-adv-x="1613" d="M96 1012l58 -78l12 10l33 21q52 30 82 30q21 0 32 -14q22 -25 121 -347q98 -322 123 -372q15 -34 46 -70q75 -86 154 -86h1q43 0 89.5 27t119.5 88q71 59 158.5 150.5t159.5 187.5q81 107 143 238.5t83 253.5q7 38 7 77q0 92 -52.5 156t-165.5 64q-131 0 -247 -93 t-140 -241q54 33 94 33q8 0 12 -1q45 -6 69 -34q23 -27 23 -73l-1 -10q-1 -51 -31 -110q-137 -254 -198 -254q-28 0 -52 62q-22 56 -67 221q-10 45 -16 88q-28 165 -34 195q-21 96 -63 158q-36 49 -96 49q-15 0 -31 -3q-49 -9 -112.5 -46t-116.5 -82q-104 -90 -169 -163 q-5 -6 -10.5 -12t-10.5 -12t-7 -8z" />
<glyph unicode="W" horiz-adv-x="1441" d="M96 713q0 -181 97 -333t258 -228l-299 815q-56 -133 -56 -254zM201 1055h41q59 0 166 8q16 0 23 -12t1.5 -24.5t-22.5 -14.5l-70 -8l225 -674l137 409l-96 265l-67 8q-17 2 -21 15q-5 12 2.5 24t22.5 12l166 -8q61 0 165 8q16 0 24 -12t2 -24.5t-21 -14.5l-70 -8 l225 -668l62 207q49 129 49 202q0 38 -10 72q-12 45 -43 98q-24 35 -32 51q-30 50 -30 97q0 44 30.5 77.5t72.5 33.5h12q-86 77 -195.5 119t-228.5 42q-161 0 -297.5 -74.5t-222.5 -205.5zM547 115q75 -25 174 -25q120 0 209 37q-4 0 -4 4l-2 2l-193 524zM1034 174 q143 82 228.5 227t85.5 312q0 153 -78 299q4 -16 4 -64q0 -108 -49 -225z" />
<glyph unicode="X" horiz-adv-x="1261" d="M96 571h92v-450h84v450h93v74h-269v-74zM180 1329l115 -350v-227h98v239l115 338h-98l-64 -231h-4l-66 231h-96zM397 184q0 -29 15 -53q11 -14 41 -14q24 0 45 12q21 9 43 37v-45h77v387h-77v-295q-6 -9 -20.5 -18t-22.5 -9q-15 0 -19 4l-2 9q-2 10 -2 14v295h-78v-324z M516 858q0 -56 33 -84q35 -35 92 -35t92 35q33 26 33 84v221q0 53 -33 78q-33 33 -88 33q-52 0 -96 -29q-33 -33 -33 -82v-221zM604 850v233q0 16 10 23q7 10 27 10q15 0 26 -9t11 -24v-233q0 -15 -11 -26t-26 -11q-19 0 -28 11t-9 26zM678 121h78v29q18 -16 32 -25 q21 -8 41 -8q70 0 70 86v213q0 41 -18 73q-23 23 -56 23q-17 0 -30.5 -5t-19 -10t-19.5 -18v166h-78v-524zM756 195v243l2 2q3 2 5 4l7 5q3 0 9 2t9 2q29 0 29 -41v-199q0 -21 -2 -27q-13 -10 -22 -10q-2 0 -10 2t-9 2q-10 4 -18 15zM836 821q0 -36 16.5 -57t46.5 -21 q13 0 47 15q41 27 53 41v-47h88v428h-88v-326q-24 -33 -53 -33q-11 0 -15.5 5.5t-4.5 23.5v330h-90v-359zM940 231q0 -50 29 -88q32 -32 82 -32q60 0 88 28q28 35 28 92v19h-80v-19q0 -37 -8 -45q-12 -6 -24 -6q-20 0 -27 10q-8 8 -8 41v74h147v101q0 48 -28 83 q-29 29 -82 29q-50 0 -83.5 -33t-33.5 -79v-175zM1020 369v37q0 28 8 36q13 7 27 7q11 0 24 -7q8 -18 8 -36v-37h-67z" />
<glyph unicode="Y" horiz-adv-x="1904" d="M96 1124h226q61 -49 245 -273t193 -257q7 -27 7 -137q0 -11 -1 -17q0 -123 -10 -133q-29 -30 -159 -30q-59 0 -62 -1l-11 -73q48 0 173 4t177 4q365 0 394 -4l4 78q-22 2 -121 2q-101 0 -119 2q-8 58 -8 253q0 40 2 52q11 32 113 124t208 172.5t132 86.5q3 0 41 8h120 l19 29h4l47 71v7h-670l25 -107h184l-305 -276l-81 105q-163 208 -232 310h229v82l2 15q0 4 -2 4v8h-764v-109zM1571 215l51 -8l59 -4l15 110l-60 4l-65 9v-111zM1589 399l103 -8l118 465q-22 0 -114.5 9t-106.5 14v-480z" />
<glyph unicode="Z" horiz-adv-x="1146" d="M96 274l64 -161q68 17 118 41q55 26 89 48t68 57q42 42 97 114l23 26q11 15 29 15q2 0 10 -2l8 -4q123 -54 204 -126t118 -145l129 78q-62 122 -138 203q-70 73 -136 119q-58 38 -91 53l-16 8l-6 4q-19 12 -17 37q14 41 45 41h27q56 -9 100 -9q15 0 28 1q75 5 191 67 l-51 113q-85 -36 -165 -36q-57 0 -111 18l-19 8l-8 18q-6 10 -6 41v10q-37 4 -88 33q-81 -42 -122 -121.5t-52 -216.5q-4 -68 -15 -82q-88 -188 -307 -250zM410 1165q0 -69 48 -117q48 -49 117 -49t117.5 48.5t48.5 117.5t-48.5 117.5t-117.5 48.5t-117 -48.5t-48 -117.5z " />
<glyph unicode="a" d="M96 719q0 -147 58 -279q58 -135 154 -230q98 -98 231.5 -155t277.5 -57t277.5 57t231.5 155t154 231.5t56 277.5t-56 277.5t-154 231.5t-231.5 154t-277.5 56t-277.5 -56t-231.5 -154t-155 -231.5t-57 -277.5zM434 542q0 4 4 5q3 1 8 -2q176 -101 379 -101q140 0 269 52 l20 8q6 3 12 -0.5t6 -8.5t-6 -10q-17 -15 -32 -22q-122 -74 -277 -74q-219 0 -379 146q-4 3 -4 7zM645 743q0 102 88 134q28 15 76.5 21.5t77.5 6.5v13q0 45 -13 63t-43 18h-6q-51 -8 -61 -51q-5 -14 -14 -14l-80 8q-16 4 -11 19q11 59 55.5 90t110.5 34h17q78 0 125 -41 q5 -5 13 -15q11 -17 15 -32q0 -2 4 -17q2 -8 2 -37v-20v-20v-129q0 -17 6 -32q7 -20 27 -44q8 -11 -2 -20q-44 -39 -63 -53q-6 -6 -19 -2q-6 6 -14 12q-6 5 -11 11q-1 2 -2.5 3.5l-3 3t-1.5 2.5q-4 3 -8 11q-2 3 -4.5 6t-2.5 4q-60 -60 -135 -60q-56 0 -89.5 33.5 t-33.5 93.5zM764 758q0 -27 13.5 -43.5t37.5 -16.5h10q31 10 45 39q17 26 17 86v17h-36t-32 -5t-29 -13t-18 -24.5t-8 -39.5zM1056 531q0 3 5 8q24 13 33 16q27 6 53 6h13q31 -1 36 -10q4 -4 4 -12v-4q-6 -73 -51 -111q-3 -3 -6 -3l-4 1q-3 2 0 6q25 59 25 84q0 8 -3 12 q-4 7 -37 7q-19 0 -30 -1q-1 0 -3.5 -0.5t-6 -1t-6.5 -0.5t-6 -0.5t-5.5 -1t-3.5 -0.5q-7 0 -7 5z" />
<glyph unicode="b" d="M96 721q0 -144 56 -277.5t154 -231.5t231.5 -155t277.5 -57t277.5 56.5t232.5 155.5q98 98 154.5 231.5t56.5 277.5q0 143 -55.5 275.5t-152.5 230.5q-98 98 -230.5 155t-274.5 58h-14q-142 -1 -275 -58t-230 -155t-152.5 -231t-55.5 -275zM528 653v338q0 28 20 48t48 20 t48 -20t20 -48v-338q0 -57 39.5 -96t95.5 -39h67q57 0 96 34t39 83q0 48 -20 83.5t-47 35.5h-135q-28 0 -48 19.5t-20 47.5t20 48t48 20h135q85 0 144 -74t59 -180q0 -105 -79.5 -179.5t-191.5 -74.5h-67q-112 0 -191.5 79.5t-79.5 192.5z" />
<glyph unicode="c" d="M96 719q0 -147 58 -279q58 -135 154 -230q98 -98 231.5 -155t277.5 -57t277.5 57t231.5 155t154 231.5t56 277.5t-56 277.5t-154 231.5t-231.5 154t-277.5 56t-277.5 -56t-231.5 -154t-155 -231.5t-57 -277.5zM455 645v98q0 6 5 11.5t11 5.5h174l-76 -131h-98 q-16 0 -16 16zM512 412l8 65q0 6 5 8.5t10 -0.5l43 -24q12 -9 2 -19l-56 -36q-12 -9 -12 6zM540 516q0 6 3 10l198 344q3 6 10 8t13 -1l43 -25q13 -7 6 -23l-199 -344q-7 -13 -22 -6l-43 25q-9 4 -9 12zM743 629l76 131h43l62 -131h-181zM795 1033q0 10 4 11q1 1 2 1 q7 -1 21 -21q15 -22 46 -76q9 -14 18 -30t14.5 -25t8.5 -14q45 -68 135 -250q7 -12 0 -23.5t-20 -15.5q-24 -7 -32 -3.5t-20 26.5q-9 17 -28 57q-41 87 -60 132q-4 9 -9 20l-7.5 16.5t-3.5 7.5q0 1 -2.5 6l-4.5 9q-62 139 -62 172zM1008 760h153q7 0 12 -5.5t5 -11.5v-98 q0 -16 -17 -16h-86q0 8 -6 14q-8 15 -14 31l-5 9q-5 9 -17 31t-25 46zM1016 549q0 8 10 14l25 12q6 2 8 2q10 0 14 -10l21 -39q6 -16 -7 -26l-18 -10q-15 -7 -25 6l-24 41q-4 5 -4 10zM1066 459q0 11 11 22q13 9 22 9q4 0 5 -1q25 -7 30 -26q6 -27 6 -47v-17q-1 -3 -1 -8 q-1 6 -28 19q-25 12 -36 26q-9 12 -9 23z" />
<glyph unicode="d" d="M96 719q0 -196 97 -362q96 -167 262 -263t360 -96q195 0 361 97q167 97 263.5 263t96.5 361q0 144 -56.5 277.5t-154.5 231.5t-232 154t-278 56t-277.5 -56t-231.5 -154t-154 -231.5t-56 -277.5zM483 719q0 137 97 234.5t235 97.5t236 -97.5t98 -234.5q0 -138 -98 -236 t-236 -98t-235 98t-97 236zM539 705q3 -102 73 -175q81 126 232 179q-13 26 -17 39q-129 -46 -249 -46q-1 0 -19 2q-9 1 -20 1zM541 760h37q118 0 225 39q-47 86 -115 166q-59 -31 -98 -85t-49 -120zM653 492q76 -52 162 -52q45 0 88 15q-7 94 -41 200q-130 -43 -209 -163z M743 985q61 -75 111 -166q85 37 154 99q-80 77 -193 77q-32 0 -72 -10zM879 768l18 -45q50 10 90 10t107 -14q0 78 -50 155q-74 -63 -165 -106zM915 670q27 -80 41 -191q105 60 131 185q-53 12 -100 12q-35 0 -72 -6z" />
<glyph unicode="e" d="M96 721q0 -144 57 -277.5t155 -231.5t231.5 -155t277.5 -57t277.5 57t231.5 155t154 231.5t56 277.5q0 142 -55.5 275t-152.5 231t-230 155t-275 58h-14q-142 -1 -274.5 -58t-229.5 -155q-97 -97 -153 -230t-56 -276zM414 469v502h241q90 0 131 -53q23 -34 23 -76 q0 -46 -25 -74q-11 -17 -36 -29q77 -31 77 -118q0 -39 -17 -70.5t-42 -48.5q-20 -17 -55 -27q-35 -6 -72 -6h-225zM528 557h107q43 0 63.5 13t20.5 59q0 39 -33 53q-14 8 -49 8h-109v-133zM528 774h107q74 0 74 55q0 36 -27 48q-34 8 -59 8h-95v-111zM864 662q0 91 49 143 q49 49 129 49q45 0 84 -16q39 -19 62 -54q22 -36 27.5 -67t5.5 -78h-263q0 -49 25.5 -69.5t63.5 -20.5q31 0 53 16q11 9 18 25h96q-3 -31 -34 -66q-45 -51 -136 -51q-71 0 -126 43q-54 45 -54 146zM940 899v51h201v-51h-201zM961 700h161q-3 37 -24 58q-24 18 -56 18 q-37 0 -57 -20q-18 -21 -24 -56z" />
<glyph unicode="f" horiz-adv-x="1628" d="M96 719q0 -145 57 -279t153 -230q98 -98 231.5 -154t277.5 -56t277.5 56t231.5 154t154 231.5t56 277.5t-56 278t-154 232t-231.5 154.5t-277.5 56.5t-277.5 -56.5t-231.5 -154.5t-154 -232t-56 -278zM629 694v133h106v66q0 72 47 123t113 51h106v-131h-106 q-10 0 -18.5 -12.5t-8.5 -28.5v-68h133v-133h-133v-323h-133v323h-106z" />
<glyph unicode="g" d="M96 713q0 -196 97 -362q97 -167 263.5 -263t360.5 -96q195 0 361 97t262 263t96 361q0 144 -56 277.5t-154 231.5t-231.5 154t-277.5 56t-277.5 -56t-231.5 -154t-155 -231.5t-57 -277.5zM426 393q0 36 20 74q28 60 108 90.5t185 34.5q-37 37 -37 80q0 12 13 45 q-16 -2 -39 -2q-80 0 -137.5 52.5t-57.5 131.5q0 75 53 134q48 54 101 70.5t125 16.5h235l-71 -45h-74q37 -21 58.5 -64t21.5 -89q0 -38 -12 -70q-17 -41 -65 -85q-42 -38 -42 -71q0 -30 57 -73q27 -20 48 -40q57 -52 57 -134q0 -91 -82 -155.5t-219 -64.5q-86 0 -160 35 q-39 19 -62.5 52.5t-23.5 76.5zM526 420q0 79 77 111q63 26 140 26h27q1 0 23 -15.5t26 -18.5q6 -6 22 -18q16 -13 23 -22q7 -12 15 -22q16 -23 16 -58q0 -62 -47 -93t-123 -31q-48 0 -90 13q-46 14 -77.5 48t-31.5 80zM584 956q0 54 27.5 89.5t76.5 35.5q45 0 80 -38 q61 -71 61 -179q0 -116 -98 -116q-63 0 -105 65.5t-42 142.5zM975 913v70h137v137h68v-137h139v-70h-139v-137h-68v137h-137z" />
<glyph unicode="h" d="M96 719q0 -147 58 -279q58 -135 154 -230q98 -98 231.5 -154t277.5 -56t277.5 56t231.5 154t154 231.5t56 277.5t-56 277.5t-154 231.5t-231.5 154t-277.5 56t-277.5 -56t-231.5 -154t-155 -231.5t-57 -277.5zM473 870q0 78 55.5 133.5t133.5 55.5q58 0 102 -31 q15 4 51 4q130 0 222.5 -92t92.5 -221q0 -25 -2 -43q33 -51 33 -107q0 -78 -55 -133t-133 -55q-54 0 -101 29q-29 -7 -57 -7q-130 0 -222.5 92.5t-92.5 223.5q0 34 4 49q-31 44 -31 102zM625 600q0 -27 28 -55q63 -59 162 -59q19 0 29 1q72 3 118 46.5t47 88.5q-2 45 -33 78 q-27 29 -68 44q-30 11 -87 24q-62 12 -80 25q-17 17 -14 36t27 34.5t55 15.5q43 -1 107 -58q17 -15 32 -15q16 0 29 16q13 13 8.5 36.5t-27.5 42.5q-61 53 -152 53q-12 0 -34 -2q-57 -6 -96 -41.5t-43 -93.5v-10q-1 -49 48 -84t124 -45q54 -8 85 -30q16 -12 16 -26t-15 -30 q-19 -20 -52.5 -25t-52.5 4q-36 10 -58 35q-12 14 -29 27q-15 14 -41.5 9.5t-31.5 -32.5q-1 -3 -1 -10z" />
<glyph unicode="i" d="M96 721q0 -145 57 -279t153 -230q98 -98 231.5 -155t277.5 -57t277.5 56.5t232.5 155.5q98 98 154.5 231.5t56.5 277.5t-56.5 277.5t-154.5 231.5t-232 154t-278 56t-277.5 -56t-231.5 -154t-154 -231.5t-56 -277.5zM535 1049q0 31 23 56q23 23 54 23q32 0 55 -23.5 t23 -55.5t-23 -55t-55 -23t-54.5 23t-22.5 55zM549 483v441h127v-441h-127zM737 483v441h127v-21q36 17 76 17h7q45 -2 81 -21q38 -22 62 -63t24 -84v-269h-125v269q0 9 -7.5 21t-14.5 15q-26 15 -57 5q-23 -7 -40 -21l-6 -6v-283h-127z" />
<glyph unicode="j" horiz-adv-x="1628" d="M96 719q0 -144 56 -277.5t154 -231.5t231.5 -155t277.5 -57t277.5 57t231.5 155t154 231.5t56 277.5q0 143 -55.5 275.5t-152.5 230.5t-229 155t-274 58h-16q-142 -1 -274 -58t-229 -155t-152.5 -230.5t-55.5 -275.5zM395 607q0 62 31 124q41 81 156 129l-56 111l136 16 l45 -92q2 0 8 2q75 14 145 15h31q55 0 91 -4q105 -13 185 -48q64 -29 113 -70q37 -32 51 -52l6 -9l-432 -123l-100 203q35 5 62 5q39 0 73 -7l41 -78l147 39l-20 12q-17 12 -56 28q-96 40 -193 40q-56 0 -122 -17l119 -239l-432 -125l-6 15q-14 33 -22 102q-1 8 -1 23z M534 647q2 -20 3 -26q1 -3 3 -7l1 -4l143 39l-63 131q-33 -22 -55 -48q-32 -40 -32 -79v-6z" />
<glyph unicode="k" d="M96 711q0 -196 97 -362q96 -167 262.5 -263t361.5 -96t361 97t262 263t96 361q0 144 -56 277.5t-154 231.5t-231.5 154t-277.5 56q-195 0 -362 -96q-167 -97 -263 -263t-96 -360zM331 860q0 5 3 8l2 3q8 8 26 8h130q10 0 18 -9l2 -2q5 -2 10 -14q16 -41 49 -98 q21 -45 41 -71q19 -26 34 -33q13 -6 24 -1l6 7q11 14 11 84q0 79 -13 104q-11 12 -41 20q-1 1 -1 3q4 13 23 22q23 12 111 12q43 -1 61 -8q15 -3 22 -9q12 -10 12 -48q0 -23 -1 -43q-2 -40 -2 -52v-20q-1 -16 0 -23q0 -26 8 -38q11 -16 25 -9q8 4 31 30q20 25 49 73l7 14 q25 43 44 90q1 7 10 14l17 5h137q20 2 30 -2q13 -5 14 -6q4 -5 4 -13q0 -36 -73 -133q-38 -51 -49 -63q-5 -5 -14 -21t-10 -17q-3 -4 -2 -14t3 -13q13 -20 24 -29q1 -1 8.5 -8t13.5 -13q76 -71 92 -105l5 -13q3 -6 3 -12q0 -7 -5 -13q-7 -11 -36 -13h-123q-4 -4 -11 -4 q-17 0 -38 13q-4 2 -10 6q-17 12 -41 41q-51 60 -75 60q-3 0 -5 -1l-8 -4q-9 -5 -16 -24q-8 -23 -7 -54q0 -15 -8 -25l-3 -2q-8 -6 -22 -6h-53q-5 -1 -15 -1q-55 0 -115 32q-34 18 -83 58l-12 12l-31 36q-36 40 -89.5 130t-94.5 188q-3 8 -3 14z" />
<glyph unicode="l" d="M96 719q0 -147 58 -279q58 -135 154 -230q98 -98 231.5 -154t277.5 -56t277.5 56t231.5 154t154 231.5t56 277.5t-56 277.5t-154 231.5t-231.5 154t-277.5 56t-277.5 -56t-231.5 -154t-155 -231.5t-57 -277.5zM496 481h34q102 0 181 62q-48 1 -86 30t-50 72q15 -4 25 -4 q22 0 39 4q-50 11 -82.5 51t-32.5 92v3q32 -17 66 -17q-64 39 -64 121q0 39 19 74q118 -145 301 -154q-4 17 -4 33q0 61 42.5 104t102.5 43q64 0 105 -47q34 6 96 35q-22 -54 -66 -80q38 5 84 23q-32 -47 -73 -76v-19q0 -58 -17 -118q-35 -121 -135 -207q-106 -90 -262 -90 q-122 0 -223 65z" />
<glyph unicode="m" d="M96 719q0 -145 57 -279t153 -230q98 -98 231.5 -154t277.5 -56t278 56t232 154t154.5 231.5t56.5 277.5t-56.5 277.5t-154.5 231.5t-232 154t-278 56t-277.5 -56t-231.5 -154t-154 -231.5t-56 -277.5zM518 647v135q0 32 22 55t54 23q26 0 46 -16.5t26 -42.5q33 41 86 41 q38 0 67.5 -23t38.5 -59q41 41 105 41q62 0 105.5 -43.5t43.5 -104.5v-278h-297v155h-178v117h-119zM526 954q0 26 19 45t45 19t44.5 -19t18.5 -45q0 -28 -18.5 -46.5t-44.5 -18.5t-45 18.5t-19 46.5zM668 954q0 34 24.5 59t59.5 25q34 0 59 -25t25 -59q0 -35 -25 -59.5 t-59 -24.5q-35 0 -59.5 24.5t-24.5 59.5zM854 954q0 44 32.5 76.5t76.5 32.5q45 0 76.5 -32t31.5 -77q0 -46 -31 -78t-77 -32q-45 0 -77 32t-32 78z" />
<glyph unicode="n" d="M96 719q0 -147 58 -279q58 -135 154 -230q98 -98 231.5 -154t277.5 -56t277.5 56t231.5 154t154 231.5t56 277.5t-56 277.5t-154 231.5t-231.5 154t-277.5 56t-277.5 -56t-231.5 -154t-155 -231.5t-57 -277.5zM418 719q0 72 51 123t123 51t123 -51t51 -123t-51 -123 t-123 -51t-123 51t-51 123zM868 719q0 72 51 123q49 51 121 51t123 -51t51 -123t-51 -123t-123 -51q-71 0 -121.5 51t-50.5 123z" />
<glyph unicode="o" d="M96 717q0 -144 56 -277.5t154 -231.5t231.5 -155t277.5 -57t277.5 56.5t232.5 155.5q98 98 154.5 231.5t56.5 277.5q0 143 -55.5 275.5t-152.5 230.5q-98 98 -230.5 155t-274.5 58h-14q-142 -1 -275 -58t-230 -155t-152.5 -231t-55.5 -275zM637 768v80q42 15 63 33 q49 36 60 120h80v-131h133v-102h-133v-147q0 -53 4 -62q19 -35 65 -35q43 0 86 27v-90q-59 -23 -65 -25q-30 -6 -66 -6q-30 0 -61 10q-26 8 -50.5 28.5t-29.5 39.5q-8 18 -8 59v201h-78z" />
<glyph unicode="p" d="M96 715q0 -145 57 -279t153 -230q98 -98 231.5 -154t277.5 -56t278 56t232 154t154.5 231.5t56.5 277.5t-56.5 277.5t-154.5 231.5t-232 154t-278 56t-277.5 -56t-231.5 -154t-154 -231.5t-56 -277.5zM471 438l137 631h310q76 0 123.5 -47.5t47.5 -113.5q0 -26 -6 -54 q-22 -96 -91 -151.5t-165 -55.5h-129l-45 -209h-182zM543 362l8 33h151l46 209h129q96 0 166 56t90 151q5 28 5 49q0 36 -14 72q36 -44 36 -106q0 -22 -5 -50q-21 -95 -91.5 -151t-164.5 -56h-131l-43 -207h-182zM723 768h90q34 1 62.5 26t37.5 60q0 6 2 8q1 3 1 10 q0 12 -3 25q-13 43 -61 43h-90z" />
<glyph unicode="q" d="M96 719q0 -196 97 -362q96 -167 262.5 -263t361.5 -96t361 97t262 263t96 361q0 144 -56 277.5t-154 231.5t-231.5 154t-277.5 56q-195 0 -362 -96q-167 -97 -263 -263t-96 -360zM492 743v11q5 132 103.5 226.5t231.5 94.5t223.5 -91.5t90.5 -218.5v-11 q-3 -82 -44.5 -153t-111.5 -116q20 -25 44 -40q22 -13 30 -13q7 -2 12 0v-55l-22 -9q-13 -6 -34 -6q-7 0 -23 2q-22 3 -41.5 18.5t-29.5 28.5t-24 35q-42 -14 -92 -14q-133 0 -223 91.5t-90 219.5zM653 748q0 -92 46 -159t114 -67q20 0 41 8l-14 27q-19 25 -44 25 q-6 0 -16 -2v55l10 3q22 9 61 3q42 -7 77 -57q58 70 61 176v12q0 91 -46 157t-114 66q-69 0 -120 -69t-56 -166v-12z" />
<glyph unicode="r" d="M96 715q0 -144 57 -277.5t155 -231.5t231.5 -154t277.5 -56t277.5 56t231.5 154t154 231.5t56 277.5t-55.5 276t-152.5 231q-97 98 -229 154.5t-276 57.5h-14q-119 -2 -224 -38q-210 -71 -351 -258q-66 -88 -102 -197.5t-36 -225.5zM496 469q0 38 27 65t65 27t65 -27 t27 -65t-27 -65t-65 -27t-65 27t-27 65zM496 702v134q189 0 323.5 -135t134.5 -324h-135q0 135 -95 230t-228 95zM496 938v133q188 0 348 -93q161 -93 253.5 -253.5t92.5 -347.5h-133q0 112 -44 216.5t-120 180.5t-180.5 120t-216.5 44z" />
<glyph unicode="s" d="M96 721q0 -196 97 -362q96 -167 262 -263t360 -96q196 0 362 97q167 96 263 262.5t96 361.5t-96 361q-97 166 -263.5 262t-361.5 96q-144 0 -277.5 -56t-231.5 -154t-154 -231.5t-56 -277.5zM412 606v113h141v-113q0 -19 12 -32t31 -13t31 13t12 32v256q0 75 54.5 130 t129.5 55t129 -55t54 -130v-51l-84 -27l-58 27v51q0 17 -12 30t-29 13q-18 0 -30.5 -12.5t-12.5 -30.5v-262q0 -75 -54 -126.5t-130 -51.5t-130 54t-54 130zM864 600v117l58 -27l84 27v-117q0 -19 12 -31t31 -12t31 12t12 31v113h141v-113q0 -76 -53.5 -130t-130.5 -54 q-75 0 -130 54.5t-55 129.5z" />
<glyph unicode="t" d="M96 719q0 -147 58 -279q58 -135 154 -230q98 -98 231.5 -154t277.5 -56t277.5 56t231.5 154t154 231.5t56 277.5t-56 278t-154 232t-231.5 154.5t-277.5 56.5t-277.5 -56.5t-231.5 -154.5q-99 -99 -155.5 -232.5t-56.5 -277.5zM565 676v278q0 32 23 55t55 23 q33 0 55.5 -22.5t22.5 -55.5v-77h268q32 0 55 -23t23 -57q0 -32 -23 -55t-55 -23h-268v-43q0 -46 30 -80.5t68 -34.5h172q32 0 54 -22t22 -56q0 -32 -23 -54.5t-55 -22.5h-174q-103 0 -176.5 79t-73.5 191z" />
<glyph unicode="u" d="M96 717q0 -145 57 -279t153 -230q98 -98 231.5 -154t277.5 -56t278 56t232 154t154.5 231.5t56.5 277.5t-56.5 277.5t-154.5 231.5t-232 154t-278 56t-277.5 -56t-231.5 -154t-154 -231.5t-56 -277.5zM492 604v248q0 88 61.5 150.5t148.5 62.5h150q44 -5 94 -38 q46 -31 64 -65t26 -85q7 -49 16 -58t50 -10q39 -2 43 -4l10 -8l6 -13v-180q0 -88 -62.5 -150.5t-150.5 -62.5h-246q-87 0 -148.5 62.5t-61.5 150.5zM666 606q0 -17 12 -29t29 -12h239q17 0 29 12t12 29t-12 29t-29 12h-239q-17 0 -29 -12t-12 -29zM666 850q0 -17 12 -29 t29 -12h116q17 0 29 12t12 29t-12 29t-29 12h-116q-17 0 -29 -12t-12 -29z" />
<glyph unicode="v" d="M96 719q0 -145 57 -279t153 -230q98 -98 231.5 -154t277.5 -56t278 56t232 154t154.5 231.5t56.5 277.5t-56.5 277.5t-154.5 231.5t-232 154t-278 56t-277.5 -56t-231.5 -154t-154 -231.5t-56 -277.5zM420 885l36 41q42 45 100.5 88t100.5 51q14 2 19 2q47 0 69 -58 q20 -56 34 -145q7 -46 12 -69q27 -95 37 -124q12 -34 28 -34q34 0 111 141q17 37 17 66q0 8 -1 12q-5 35 -35 45q-9 3 -20 3q-23 0 -54 -17q4 25 16 54q37 81 121 115q43 17 78 17t64 -16q57 -31 57 -106q0 -23 -4 -44q-23 -136 -125 -273q-83 -110 -176 -188 q-76 -64 -117 -64q-24 0 -47 15q-45 28 -65 72q-10 21 -68 206q-56 181 -67 193q-11 15 -40 3q-15 -7 -40 -23q-4 -4 -8 -6z" />
<glyph unicode="w" d="M96 713q0 -145 57 -279t153 -230q98 -98 231.5 -154t277.5 -56q196 0 362 97q167 96 263 262t96 360q0 195 -96 361q-97 166 -263.5 262t-361.5 96q-144 0 -277.5 -56t-231.5 -154t-154 -231.5t-56 -277.5zM469 713q0 69 31 141l166 -453q-90 42 -143.5 126.5 t-53.5 185.5zM526 903q48 73 124 114.5t165 41.5q135 0 236 -90h-7q-24 0 -40.5 -19t-16.5 -43q0 -26 35 -82q29 -56 29 -94q0 -37 -27 -113l-35 -114l-125 370l39 5q8 0 11 7t-0.5 14t-12.5 7l-92 -4q-41 0 -92 4q-9 0 -12.5 -7t-0.5 -14t11 -7l37 -5l53 -147l-76 -227 l-125 374l39 5q8 0 11 7t-0.5 14t-12.5 7l-92 -4h-23zM719 381l102 301l107 -291l4 -4q-54 -20 -117 -20q-51 0 -96 14zM989 414l107 305q26 66 26 125q0 21 -2 35q43 -77 43 -166q0 -93 -47.5 -173.5t-126.5 -125.5z" />
<glyph unicode="x" d="M96 719q0 -147 58 -279q58 -135 154 -230q98 -98 231.5 -154t277.5 -56t277.5 56t231.5 154t154 231.5t56 277.5t-56 278t-154 232t-231.5 154.5t-277.5 56.5t-277.5 -56.5t-231.5 -154.5q-99 -99 -155.5 -232.5t-56.5 -277.5zM518 637v41h150v-41h-52v-250h-47v250h-51z M565 1059h53l37 -129h2l35 129h56l-64 -189v-133h-55v127zM686 422v180h43v-164q0 -5 1 -8l1 -4q2 -2 10 -2q11 0 25 14v164h43v-215h-43v25q-21 -27 -49 -27q-31 0 -31 37zM752 797v123q0 27 18 45q22 16 53 16t49 -18q19 -16 19 -43v-123q0 -31 -19 -47q-19 -19 -51 -19 t-50.5 18t-18.5 48zM801 793q0 -8 4 -15q6 -6 16 -6q9 0 15 6t6 15v129q0 9 -6 12q-6 6 -15 6q-11 0 -14 -6q-6 -3 -6 -12v-129zM842 387v291h43v-92q18 18 39 18q18 0 30 -12q11 -19 11 -41v-119q0 -21 -10.5 -34t-28.5 -13q-12 0 -23 4q-11 7 -18 14v-16h-43zM885 428 q7 -7 10 -8q3 0 5 -1t5 -1q15 0 15 20v111q0 11 -5 16q-3 6 -12 6q-3 0 -5 -1t-5 -1l-8 -6v-135zM930 776v199h49v-182q0 -17 12 -17q16 0 29 19v180h49v-238h-49v27q-9 -11 -27 -21t-28 -10q-35 0 -35 43zM987 449v96q0 27 18.5 45t47.5 18t45 -16q16 -19 16 -47v-56h-82 v-40q0 -19 3.5 -24t15.5 -5q10 0 14 4t4 25v10h45v-10q0 -33 -16 -52q-16 -16 -49 -16q-27 0 -45 18q-17 20 -17 50zM1032 524h37v21q0 13 -4 20q-4 4 -14 4q-12 0 -15.5 -4.5t-3.5 -19.5v-21z" />
<glyph unicode="y" d="M96 717q0 -196 97 -360q96 -167 262.5 -263t361.5 -96q144 0 277.5 56t231.5 154t154 231.5t56 277.5t-56 278t-154 232t-231.5 154.5t-277.5 56.5q-196 0 -362 -97q-167 -97 -263 -263.5t-96 -360.5zM340 944v60h424v-5l2 -2l-2 -8v-45h-127q17 -26 60 -83 q61 -80 114 -148l170 153h-102l-15 60h373l-2 -4l-25 -39l-12 -17h-68q-17 -4 -22 -4q-24 -6 -133.5 -96.5t-118.5 -116.5q-1 -3 -1 -31q0 -115 5 -139q5 -1 66 -1t67 -1v-43q-26 2 -221 2l-98 -2q-21 0 -44 -0.5t-35 -1t-17 -0.5l6 41h34q74 0 89 16q5 5 5 73t-3 87 q-6 19 -108 143.5t-136 151.5h-125zM1159 438v62l37 -4l33 -2l-8 -62l-33 2zM1169 541v266q7 -3 59 -7.5t64 -4.5l-65 -258z" />
<glyph unicode="z" horiz-adv-x="1628" d="M96 719q0 -145 57 -279t153 -230q98 -98 231.5 -154t277.5 -56t277.5 56t231.5 154t154 231.5t56 277.5t-56 277.5t-154 231.5t-231.5 154t-277.5 56t-277.5 -56t-231.5 -154t-154 -231.5t-56 -277.5zM549 473q120 32 170 139q5 5 8 45q6 76 28.5 120t67.5 69 q30 -18 49 -19v-6q0 -14 5 -22l4 -11l10 -4q27 -10 60 -10q45 0 93 21l29 -64q-41 -22 -76 -31q-39 -8 -53.5 -8t-48.5 6h-14q-18 0 -25 -22q-1 -11 8 -20l4 -3l8 -4q18 -7 51 -30t75 -66q41 -44 77 -113l-71 -43q-19 39 -64.5 79.5t-114.5 70.5q-7 4 -10 4q-8 0 -16 -8 l-12 -15q-27 -37 -44 -55q-21 -24 -65.5 -50t-97.5 -40zM723 969q0 38 27 65t65 27t65 -27t27 -65t-27 -65t-65 -27t-65 27t-27 65z" />
<glyph unicode="&#xa0;" d="M96 729q0 -196 97 -362q97 -167 263.5 -263t360.5 -96q195 0 361 97t262 263t96 361q0 144 -56 277.5t-154 231.5t-231.5 154t-277.5 56t-277.5 -56t-231.5 -154t-155 -231.5t-57 -277.5z" />
<glyph unicode="&#x2000;" horiz-adv-x="724" />
<glyph unicode="&#x2001;" horiz-adv-x="1448" />
<glyph unicode="&#x2002;" horiz-adv-x="724" />
<glyph unicode="&#x2003;" horiz-adv-x="1448" />
<glyph unicode="&#x2004;" horiz-adv-x="482" />
<glyph unicode="&#x2005;" horiz-adv-x="362" />
<glyph unicode="&#x2006;" horiz-adv-x="241" />
<glyph unicode="&#x2007;" horiz-adv-x="241" />
<glyph unicode="&#x2008;" horiz-adv-x="181" />
<glyph unicode="&#x2009;" horiz-adv-x="289" />
<glyph unicode="&#x200a;" horiz-adv-x="80" />
<glyph unicode="&#x202f;" horiz-adv-x="289" />
<glyph unicode="&#x205f;" horiz-adv-x="362" />
<glyph unicode="&#xe000;" horiz-adv-x="1440" d="M0 0v1440h1440v-1440h-1440z" />
</font>
</defs>
</svg>
