<?xml version="1.0" standalone="no"?>
<!DOCTYPE svg PUBLIC "-//W3C//DTD SVG 1.1//EN" "http://www.w3.org/Graphics/SVG/1.1/DTD/svg11.dtd" >
<svg xmlns="http://www.w3.org/2000/svg">
<metadata></metadata>
<defs>
<font id="socialicoregular" horiz-adv-x="1630" >
<font-face units-per-em="2048" ascent="1536" descent="-512" />
<missing-glyph horiz-adv-x="500" />
<glyph horiz-adv-x="2048" />
<glyph horiz-adv-x="2048" />
<glyph unicode="&#xd;" horiz-adv-x="2048" />
<glyph unicode=" " d="M96 729q0 -196 97 -362q97 -167 264 -263t360 -96q194 0 360 97q166 96 262.5 263t96.5 361q0 143 -55.5 276.5t-154.5 232.5t-232.5 154.5t-276.5 55.5t-276.5 -55.5t-232.5 -154.5q-100 -100 -156 -234t-56 -275z" />
<glyph unicode="!" d="M96 719q0 -143 56.5 -277t155.5 -232q99 -99 232.5 -154.5t276.5 -55.5t276.5 55.5t232.5 154.5t154.5 232.5t55.5 276.5t-55.5 277t-154.5 233q-100 100 -233.5 155.5t-275.5 55.5t-275.5 -55.5t-233.5 -155.5t-156 -233.5t-56 -276.5zM303 616q0 53 41 86v-172 q-41 38 -41 86zM387 508v219q13 4 33 4l10 -2v-225h-10q-20 0 -33 4zM473 504v213l8 -4q8 39 35 75v-284h-43zM559 504v325q21 12 43 21v-346h-43zM645 504v354q14 2 17 2q10 0 13 -1t13 -1v-354h-43zM711 504v348q27 -8 45 -18q2 5 18 26v-356h-63zM797 504v377 q56 53 143 53q86 0 148 -55.5t71 -137.5q33 11 49 11q52 0 86.5 -35.5t34.5 -87.5q0 -55 -33 -87.5t-92 -35.5v-2h-407z" />
<glyph unicode="#" horiz-adv-x="1100" d="M62 195l452 440l-452 438l33 34l453 -439l454 441l33 -34l-452 -440l452 -438l-33 -34l-453 439l-454 -441z" />
<glyph unicode="$" horiz-adv-x="1628" d="M96 717q0 -196 97 -362q96 -167 262.5 -263t359.5 -96q194 0 360 97q166 96 262.5 263t96.5 361q0 143 -55.5 276.5t-154.5 232.5t-232.5 154.5t-276.5 55.5t-276.5 -55.5t-232.5 -154.5t-154.5 -232.5t-55.5 -276.5zM401 553v326h50v-45q43 51 102 51q74 0 94 -56 q41 56 105 56q51 0 75 -27q27 -24 27 -82v-223h-55v205q0 44 -12 62t-48 18q-39 0 -60.5 -24.5t-21.5 -72.5v-188h-57v211q0 38 -14 55q-13 19 -45 19q-23 0 -45 -13q-39 -25 -39 -102v-170h-56zM920 713q0 85 45 127q42 45 112 45t111 -45t41 -123v-15h-250q3 -53 31 -81 q26 -29 69 -29q35 0 54.5 14.5t35.5 50.5l58 -6q-26 -104 -148 -104q-75 0 -117 44t-42 122zM983 748h186q-3 43 -27 67.5t-65 24.5q-39 0 -66.5 -26.5t-27.5 -65.5z" />
<glyph unicode="%" horiz-adv-x="1448" d="M171 196q0 -41 28 -69.5t68 -28.5q41 0 69.5 28.5t28.5 69.5q0 40 -28.5 68t-69.5 28t-68.5 -28t-27.5 -68zM171 652q0 -41 28 -69q29 -29 68 -29q41 0 69.5 28.5t28.5 69.5t-28.5 69t-69.5 28q-40 0 -68 -28t-28 -69zM171 1108q0 -41 28 -69q29 -29 68 -29 q41 0 69.5 28.5t28.5 69.5t-28.5 69t-69.5 28q-40 0 -68 -28t-28 -69zM627 196q0 -41 28 -69.5t68 -28.5q41 0 69.5 28.5t28.5 69.5q0 40 -28.5 68t-69.5 28t-68.5 -28t-27.5 -68zM627 652q0 -41 28 -69q29 -29 68 -29q41 0 69.5 28.5t28.5 69.5t-28.5 69t-69.5 28 q-40 0 -68 -28t-28 -69zM627 1108q0 -41 28 -69q29 -29 68 -29q41 0 69.5 28.5t28.5 69.5t-28.5 69t-69.5 28q-40 0 -68 -28t-28 -69zM1083 196q0 -41 28 -69.5t68 -28.5q42 0 70 28.5t28 69.5t-28 68.5t-70 27.5q-40 0 -68 -28t-28 -68zM1083 652q0 -41 28 -69.5t68 -28.5 q42 0 70 28.5t28 69.5t-28 69t-70 28q-40 0 -68 -28.5t-28 -68.5zM1083 1108q0 -41 28 -69.5t68 -28.5q42 0 70 28.5t28 69.5t-28 69t-70 28q-40 0 -68 -28.5t-28 -68.5z" />
<glyph unicode="&#x26;" horiz-adv-x="1628" d="M96 717q0 -196 97 -362q96 -167 262.5 -263t359.5 -96q194 0 360 97q166 96 262.5 263t96.5 361q0 143 -55.5 276.5t-154.5 232.5t-232.5 154.5t-276.5 55.5t-276.5 -55.5t-232.5 -154.5t-154.5 -232.5t-55.5 -276.5zM512 807q2 89 52 157.5t136 101.5q80 36 176.5 22 t161.5 -76q123 -116 60 -313q-26 -83 -78 -126q-45 -40 -111.5 -47t-120.5 23l-7 10q-7 16 -17 10q-38 -164 -76 -227h-49q-8 63 -3 99t37 144q27 93 27 136q0 21 -7 48q-8 36 -4.5 58.5t20.5 45.5q41 53 84 40q22 -7 34 -34q23 -55 -18 -141q-37 -85 4 -122q9 -9 32 -14 t44 -2q66 14 97 96q33 81 16.5 169.5t-70.5 121.5q-80 50 -172.5 22.5t-137.5 -119.5q-25 -59 -23 -98t31 -89q21 -35 -14 -70q-56 23 -80 64t-24 110z" />
<glyph unicode="(" horiz-adv-x="1628" d="M96 721q0 -143 57 -277q55 -134 153 -232q99 -99 232.5 -154.5t276.5 -55.5t276.5 55.5t232.5 154.5t154.5 232.5t55.5 276.5t-55.5 277t-154.5 233q-100 100 -233.5 155.5t-275.5 55.5t-275.5 -55.5t-233.5 -155.5q-99 -99 -154.5 -233t-55.5 -277zM465 721 q0 146 102.5 248t247.5 102t247.5 -102t102.5 -248q0 -145 -102.5 -247.5t-247.5 -102.5t-247.5 102.5t-102.5 247.5zM535 721q0 -116 81.5 -197.5t198.5 -81.5q116 0 198.5 82t82.5 197q0 117 -82 198.5t-199 81.5t-198.5 -81.5t-81.5 -198.5zM676 686h69v211h140v-211h69 l-139 -139z" />
<glyph unicode=")" d="M96 719q0 -143 57 -277q55 -134 153 -232q99 -99 232.5 -154.5t276.5 -55.5t277 55.5t233 154.5q100 100 155.5 233.5t55.5 275.5t-55.5 275.5t-155.5 233.5q-99 99 -233 154.5t-277 55.5t-276.5 -55.5t-232.5 -154.5t-154.5 -232.5t-55.5 -276.5zM346 764l209 229 l209 -229h-154v-211h166l109 -111h-350q-13 0 -24 11t-11 24v287h-154zM748 995h350q14 0 24.5 -10.5t10.5 -23.5v-287h153l-209 -230l-211 230h156v211h-166z" />
<glyph unicode="," d="M96 713q0 -143 57 -277q55 -134 153 -232q99 -99 232.5 -154.5t276.5 -55.5t277 55.5t233 154.5q100 100 155.5 233.5t55.5 275.5t-55.5 276t-155.5 234t-234 155.5t-276 55.5t-275.5 -55.5t-233.5 -155.5q-99 -99 -154.5 -233t-55.5 -277zM463 813q15 37 45 47 q31 18 63 10l31 -12l103 -74q-18 -21 -19 -34l-166 -21l-12 2q-33 6 -43 31q-14 23 -2 51zM506 594l2 10q10 31 47 47l35 15l92 16l6 -23l4 -8l-22 -21l-14 -12q-7 -7 -7 -8l-35 -28l-8 -7q-34 -14 -61.5 -11.5t-36.5 18.5zM618 432l5 27q11 25 18 33l96 114q23 -12 37 -14 q5 -83 10 -125v-57q-14 -33 -45.5 -49t-63.5 -7q-29 8 -43 31.5t-14 46.5zM635 1006q0 28 22 41q9 9 27 2q31 -9 51 -50q13 -29 15 -36l22 -136l-16 -6l-103 111l-6 12q-16 34 -12 62zM723 707q0 28 23 50.5t55 22.5q33 0 54.5 -21.5t21.5 -51.5q0 -36 -23 -56 q-22 -22 -53 -22q-34 0 -53 22q-25 22 -25 56zM827 592l19 8l16 8l47 -49l31 -37l6 -12q16 -31 15 -59q-8 -37 -25 -41q-7 -7 -27 -7q-32 11 -51 52l-14 39zM831 950v58q4 30 41 53q39 17 66 4q37 -6 53 -37q8 -29 8 -41l-4 -24q-6 -19 -16 -35l-102 -127q-6 4 -35 20z M901 647l8 19l4 14l131 10h58q31 -11 41 -33q18 -18 18 -49l-4 -22q-9 -35 -40 -51.5t-62 -4.5q-20 3 -33 19zM905 762l4 4l117 98l14 4q27 16 59.5 11.5t41.5 -27.5l4 -14l-2 -11q-10 -31 -53 -51q-31 -9 -39 -10l-142 -16l-2 8z" />
<glyph unicode="." d="M96 717q0 -143 57 -277q55 -134 153 -232q99 -99 232.5 -154.5t276.5 -55.5t277 55.5t233 154.5q100 100 155.5 233.5t55.5 275.5t-55.5 276t-155.5 234t-234 155.5t-276 55.5t-275.5 -55.5t-233.5 -155.5q-99 -99 -154.5 -233t-55.5 -277zM485 717q0 136 97.5 233 t232.5 97q137 0 233.5 -96.5t96.5 -233.5q0 -135 -97 -231.5t-233 -96.5q-135 0 -232.5 96.5t-97.5 231.5zM553 717q0 -108 77 -185t185 -77q109 0 186.5 76.5t77.5 185.5t-77.5 186.5t-186.5 77.5t-185.5 -77.5t-76.5 -186.5zM674 598q-2 21 12 37.5t35 19.5q17 0 24 -4 v199l191 33v-254q2 -21 -12 -38t-35 -20q-21 -2 -36.5 11t-16.5 34q-2 22 11.5 38.5t35.5 19.5q17 0 24 -4v139l-133 -25v-174q1 -22 -12 -38t-35 -19q-20 -3 -36 10t-17 35z" />
<glyph unicode="/" d="M96 717q0 -196 97 -362q96 -167 262.5 -263t359.5 -96q195 0 361 97q167 96 263.5 262.5t96.5 361.5q0 142 -55.5 275.5t-155.5 233.5q-99 99 -233 154.5t-277 55.5t-276.5 -55.5t-232.5 -154.5t-154.5 -232.5t-55.5 -276.5zM434 721q0 63 45 107q44 44 107 44t107 -44 t44 -107q0 -32 -10 -55l64 -107l405 430l2 -8v-205l-414 -334l-147 136q-33 -11 -51 -11q-64 0 -107 46q-45 45 -45 108z" />
<glyph unicode="0" d="M96 725q0 -143 57 -277q55 -134 153 -232q100 -100 234 -156t275 -56q143 0 276.5 56t233.5 156t155.5 233.5t55.5 275.5t-55.5 275.5t-155.5 233.5q-99 99 -233 154.5t-277 55.5t-276.5 -55.5t-232.5 -154.5t-154.5 -232.5t-55.5 -276.5zM212 479v485h118v-485h-118z M390 479v485h153l39 -229l28 229h161v-485h-102v272l-49 -272h-73l-50 272v-272h-107zM834 479v485h132q56 0 79 -5t42 -18q34 -24 34 -73v-293q0 -46 -31 -71q-34 -25 -123 -25h-133zM948 561h7h7h6.5t7 0.5t6 1.5t5 2.5l3.5 3.5t3 5t1 7v284q0 8 -3.5 13t-13 7t-12.5 2 h-17v-326zM1159 479v485h122v-111q11 12 33.5 23.5t45.5 10.5q29 -2 52.5 -20t21.5 -47v-282q0 -29 -26 -47q-19 -8 -55 -8q-17 0 -80 21q-4 2 -7.5 -4.5t-5.5 -13.5l-2 -7h-99zM1281 563q0 -20 17 -20q16 0 16 20v244q0 18 -16 18q-17 0 -17 -17v-245z" />
<glyph unicode="1" d="M358 196q0 29 32 29q16 0 22 1q11 0 31 7t32 18q35 31 35 95v640q0 132 -96 141q-15 2 -22 6q-11 6 -8.5 29.5t24.5 23.5q25 0 65 -1q200 -5 283 -5q213 0 332 17q41 8 63.5 4.5t22.5 -31.5q0 -3 -6 -27t-6 -43q0 -20 4 -49q3 -33 3 -46q0 -18 -11.5 -28t-25.5 -10 q-22 0 -22 29q0 7 1 16q0 14 -1 17q-3 9 -5 17q-3 11 -11 17q-4 2 -22 14q-15 10 -90 23q-53 9 -172 9q-81 0 -121 -8q-36 -8 -44.5 -20t-8.5 -45l1 -260q0 -21 7 -28.5t24 -7.5h243q41 0 68.5 24t31.5 68q1 23 7 30t22 7q14 0 23 -12q8 -10 8.5 -23.5t-3.5 -44.5 q-1 -10 -2 -15q-5 -45 -5 -69q0 -21 5 -69q4 -39 4 -60q0 -17 -11 -25q-12 -9 -25.5 -3.5t-17.5 23.5q-4 16 -6 26q-12 34 -34 50q-32 24 -89 24h-216q-35 0 -35 -52v-276q0 -49 24.5 -74t86.5 -25h53q50 -2 66 0q83 0 131 12q71 16 103 41q23 18 35 46.5t22 85.5 q0 1 0.5 3.5t1.5 3.5q11 17 34 10q30 -8 31 -39t-17 -84q-16 -52 -16 -78q0 -11 1 -22v-24q0 -5 -2 -19q-4 -20 -24 -20q-4 0 -35 7t-108 7q-159 0 -336 -1l-297 -2q-19 0 -25.5 5.5t-6.5 19.5z" />
<glyph unicode="2" d="M96 717q0 -141 56 -275t156 -234q99 -99 232.5 -154.5t276.5 -55.5t276.5 55.5t232.5 154.5t154.5 232.5t55.5 276.5q0 141 -54.5 274t-153.5 233t-231 155.5t-274 56.5h-14q-120 -2 -224 -38q-210 -70 -351 -258q-66 -88 -102 -197.5t-36 -225.5zM514 373q0 20 22 20 q10 0 15 1q25 0 42 16q24 22 24 66v435q0 90 -65 96q-6 0 -8 1l-6 3l-3 2q-3 1 -3 8v5q-1 2 -1 4q0 17 17 17t44 -1q165 -3 192 -3q145 0 226 11q25 4 37 4q22 0 22 -22q0 -3 -4 -18q-5 -18 -5 -29t3 -33t3 -32q0 -12 -8 -19t-18 -7q-13 0 -15 20v12v14q-7 21 -17 25 q-15 6 -23 10q-17 6 -37 9q-65 7 -127 7q-54 0 -82 -5q-24 -6 -30 -14.5t-6 -30.5l1 -177q0 -14 4.5 -19t15.5 -5h166q62 0 68 62q1 16 5 20.5t15 4.5q23 0 20 -32q-6 -66 -6 -79q0 -17 3 -47t3 -41q0 -18 -16 -20t-21 17q-5 23 -18 43q-19 25 -69 25h-147q-24 0 -24 -36 v-187q0 -33 17 -50.5t59 -17.5h35q33 -2 45 0q52 0 89 8q45 8 71 28q25 20 38 90l1 2q5 15 23 10q21 -6 22 -26.5t-11 -56.5q-11 -39 -11 -54v-11v-11v-11q0 -12 -4 -17q-5 -8 -14 -8l-23 5q-25 5 -74 5q-107 0 -228 -1t-202 -1q-14 0 -18 3.5t-4 12.5z" />
<glyph unicode="3" horiz-adv-x="1632" d="M96 717q0 -196 97 -362q97 -167 264 -263t360 -96q194 0 360 97q166 96 262.5 263t96.5 361q0 143 -55.5 276.5t-154.5 232.5t-232.5 154.5t-276.5 55.5t-276.5 -55.5t-232.5 -154.5q-100 -100 -156 -234t-56 -275zM442 539q-3 6 0 18l136 236l-84 147q-10 10 0 21 q3 6 16 6h125q21 0 35 -23q82 -147 86 -151l-135 -240q-16 -25 -35 -25h-125q-11 0 -19 11zM723 618l281 498q15 23 34 23h125q10 0 19 -9q3 -9 0 -20l-279 -489q-1 0 -1 -1q0 -2 1 -2l176 -323q8 -29 -16 -29h-127q-24 0 -33 27z" />
<glyph unicode="4" horiz-adv-x="1628" d="M96 715q0 -143 55.5 -276.5t154.5 -232.5t232.5 -154.5t276.5 -55.5t276.5 55.5t232.5 154.5t154.5 232.5t55.5 276.5q0 142 -54.5 275t-152.5 232q-100 100 -232 155.5t-272 56.5h-16q-141 -1 -273.5 -57t-229.5 -155q-98 -99 -153 -232.5t-55 -274.5zM467 723 q0 99 50.5 182t139.5 127q5 -5 66 -60.5t65 -58.5q-7 -7 -153 -139.5t-156 -140.5q-12 43 -12 90zM492 594q7 7 73 66.5t72 64.5v-299q-100 58 -145 168zM672 406v165h456q-39 -83 -114 -134.5t-166 -59.5h-66q-44 3 -110 29zM694 1049q57 22 121 22q77 0 143 -31v-233 q-4 4 -133 122t-131 120zM995 608v412q78 -47 123 -126.5t45 -170.5q0 -59 -18 -115h-150z" />
<glyph unicode="5" d="M96 713q0 -196 97 -362q96 -167 262.5 -263t361.5 -96q194 0 360 97q166 96 262.5 263t96.5 361q0 143 -55.5 276.5t-154.5 232.5t-232.5 154.5t-276.5 55.5q-195 0 -361 -96q-168 -97 -264 -263.5t-96 -359.5zM414 528q0 130 12 191q9 34 33 55.5t57 24.5q102 12 305 12 q207 0 307 -12q33 -3 57.5 -25t31.5 -55q16 -57 16 -191q0 -138 -16 -196q-7 -32 -31 -53.5t-58 -26.5q-87 -10 -307 -10q-216 0 -305 10q-33 4 -57 25.5t-33 54.5q-12 63 -12 196zM475 664v53h172v-53h-59v-314h-56v314h-57zM547 1231h57l41 -148l37 148h55l-69 -217v-152 h-54v152q-8 46 -32 112q-34 99 -35 105zM651 406v217h51v-222q4 -12 15 -12q12 0 31 25v209h47v-273h-47v29q-35 -35 -56 -35q-24 0 -35 23q-6 24 -6 39zM737 948v99q0 46 17 63q21 31 57 31q35 0 54.5 -24.5t19.5 -69.5v-99q0 -43 -19.5 -67.5t-54.5 -24.5q-37 0 -57 29 q-17 20 -17 63zM786 942v117q0 37 25 37t25 -37v-117q0 -41 -25 -41t-25 41zM838 350v367h51v-121q24 31 49 31q27 0 36 -17.5t9 -68.5v-111q0 -50 -9 -68t-36 -18q-26 0 -49 33v-27h-51zM889 403q14 -14 26 -14q21 0 21 41v113q0 39 -21 39q-13 0 -26 -13v-166zM926 920 v217h49v-222q8 -14 14 -14q12 0 29 27v209h51v-275h-51v29q-32 -35 -55 -35q-21 0 -29 15t-8 49zM1020 438v94q0 42 16 64q28 31 62 31q33 0 57 -31q14 -14 14 -64v-55h-98v-47q0 -41 27 -41q17 0 20 23v30h51v-36q0 -2 -10 -31q-24 -31 -61 -31q-34 0 -62 31q-16 22 -16 63 zM1071 516h51v27q0 39 -24 39q-27 0 -27 -39v-27z" />
<glyph unicode="6" d="M96 717q0 -143 56.5 -277t155.5 -232q99 -99 232.5 -154.5t276.5 -55.5t276.5 55.5t232.5 154.5t154.5 232.5t55.5 276.5t-55.5 277t-154.5 233q-100 100 -233.5 155.5t-275.5 55.5t-275.5 -55.5t-233.5 -155.5t-156 -233.5t-56 -276.5zM322 717q0 122 86 210 q86 87 208 87q92 0 164 -48.5t109 -134.5l96 -225q27 -59 52.5 -80t72.5 -22q53 -3 88 25t35 71q0 35 -21 53t-82 37q-99 33 -137.5 69.5t-38.5 98.5q0 68 43.5 109t116.5 41q93 0 143 -86l-63 -33q-36 47 -84 47q-34 0 -57 -22t-23 -54q0 -13 1 -16q0 -15 26 -38 q12 -12 104 -40q86 -30 119 -66.5t33 -101.5q0 -75 -57 -123.5t-142 -48.5q-71 0 -118 33.5t-78 105.5l-11 25l-94 215q-23 57 -77 92t-120 35q-89 0 -152 -63t-63 -152q0 -88 63 -150.5t152 -62.5q61 0 112 30.5t79 83.5l37 -88q-40 -51 -100 -79.5t-128 -28.5 q-122 0 -208 86t-86 209z" />
<glyph unicode="7" d="M96 711q0 -143 56.5 -277t155.5 -232q99 -99 232.5 -154.5t276.5 -55.5t276.5 55.5t232.5 154.5t154.5 232.5t55.5 276.5t-55.5 277t-154.5 233q-100 100 -233.5 155.5t-275.5 55.5t-275.5 -55.5t-233.5 -155.5t-156 -233.5t-56 -276.5zM565 809q0 104 75 179t181 75 q104 0 179 -75t75 -179q0 -90 -57.5 -160.5t-145.5 -89.5l-51 -203l-51 203q-89 19 -147 89t-58 161zM631 809q0 -80 55.5 -135.5t134.5 -55.5q78 0 134.5 56t56.5 135q0 78 -56.5 134t-134.5 56q-79 0 -134.5 -56t-55.5 -134zM715 809q0 43 31 73.5t75 30.5q43 0 74 -30.5 t31 -73.5q0 -44 -31 -75.5t-74 -31.5q-44 0 -75 31.5t-31 75.5z" />
<glyph unicode="8" d="M96 721q0 -196 97 -362q97 -167 264 -263t360 -96q194 0 360 97q166 96 262.5 263t96.5 361q0 143 -55.5 276.5t-154.5 232.5t-232.5 154.5t-276.5 55.5t-276.5 -55.5t-232.5 -154.5q-100 -100 -156 -234t-56 -275zM530 641l4 -4q16 -14 22.5 -9.5t8.5 32.5q2 34 15 80 q14 47 38.5 82.5t81.5 89.5q47 43 90 86q27 31 32 38q8 14 9 27l23 -17q39 -29 86 -75q47 -48 84.5 -106t42.5 -103l7 10q22 32 18 57v1l3 -11q22 -120 -2 -221q-15 -66 -46 -110q-32 -47 -92 -77.5t-140 -33.5q-217 12 -285 264z" />
<glyph unicode="9" d="M96 719q0 -196 97 -362q97 -167 264 -263t360 -96q194 0 360 97q166 96 262.5 263t96.5 361q0 143 -55.5 276.5t-154.5 232.5t-232.5 154.5t-276.5 55.5t-276.5 -55.5t-232.5 -154.5q-100 -100 -156 -234t-56 -275zM385 682q3 60 47 113q67 67 172 59q96 -5 113 -88 q3 -38 2 -50.5t-10 -58.5q-11 -51 -18 -111q-9 -62 -11 -69h-47q-41 0 -44 38q-3 32 7 77q-1 0 -3 -2q-6 -6 -13 -11q-20 -18 -52 -24q-66 -6 -106 30t-37 97zM494 706q-5 -41 18 -65q39 -17 66.5 1.5t34.5 63.5q6 42 -8.5 58t-47.5 16q-22 -3 -31 -12q-27 -21 -32 -62z M748 647l15 100q9 57 13 89q6 1 39 1q43 0 53 -22q10 -13 0 -61q-19 -143 -28 -189q-69 -4 -85.5 11.5t-6.5 70.5zM782 895q-9 43 54 63h18q29 -6 37 -26q6 -21 -4 -39t-31 -25q-21 -10 -44.5 -2t-29.5 29zM895 618q10 69 11 76l22 141q10 57 10 64q5 37 6 41v4q59 2 77 -8 q19 -8 21 -36q2 -29 -9 -77q-1 -1 -1 -5t-1 -5t-1 -6q-10 -55 -12 -78q16 13 29 29q54 58 55 59q18 19 31 25q25 8 75 5q37 -2 39 -1q-20 -22 -66 -65q-37 -35 -67 -64q35 -58 37 -65q24 -36 59 -42q-4 -33 -45 -45t-63 2t-51 66l-18 31q-11 21 -19 32q-2 -6 -2 -15l-9 -51 l-12 -67q-54 -2 -76.5 10t-19.5 45z" />
<glyph unicode=":" horiz-adv-x="1634" d="M227 881q0 -129 47.5 -208.5t151.5 -121.5q21 21 32 40q21 43 -19 117q-43 74 -48 137t26 152q62 165 241 250q77 40 177.5 33.5t186.5 -59.5q50 -30 85.5 -92.5t47.5 -141.5q25 -165 -30 -313q-28 -74 -77 -123.5t-108 -61.5q-40 -6 -82 3t-61 28q-16 14 -24 29 q-18 30 -17 64q1 38 14 77q10 34 33 95q5 13 11.5 31.5t8.5 22.5q36 103 -2 186q-22 45 -61 55q-85 23 -158 -74q-34 -43 -41 -86.5t8 -110.5q15 -68 15 -92q0 -86 -52 -260q-55 -189 -68 -268q-16 -90 3 -189h94q71 120 144 430q17 12 34 -20q7 -15 13 -19q53 -42 142 -48 t165 24q79 26 131 71q95 80 146 234.5t36 312.5q-20 150 -118 253q-53 56 -120 96.5t-151 66t-188 19.5t-213 -48q-162 -63 -257.5 -194.5t-97.5 -296.5z" />
<glyph unicode="&#x3c;" horiz-adv-x="650" d="M61 635l488 -472l33 34l-453 438l453 440l-33 34z" />
<glyph unicode="&#x3e;" horiz-adv-x="650" d="M66 196l33 -34l487 475l-487 472l-33 -35l452 -437z" />
<glyph unicode="?" d="M96 713q0 -196 97 -362q97 -167 264 -263t360 -96q194 0 360 97q166 96 262.5 263t96.5 361q0 143 -55.5 276.5t-154.5 232.5t-232.5 154.5t-276.5 55.5t-276.5 -55.5t-232.5 -154.5q-100 -100 -156 -234t-56 -275zM453 430v541q0 38 28 66t68 28h541q39 0 66.5 -27.5 t27.5 -66.5v-541q0 -39 -27.5 -66.5t-66.5 -27.5h-541q-40 0 -68 28t-28 66zM537 449q0 -12 8 -21.5t20 -9.5h508q11 0 20 9.5t9 21.5v307h-64q9 -27 9 -62q0 -91 -67 -156t-161 -65q-92 0 -158.5 65t-66.5 156q0 33 8 62h-65v-307zM672 702q0 -58 44 -100q43 -43 103 -43 q61 0 104.5 42t43.5 101t-43.5 100.5t-104.5 41.5q-59 0 -103 -42t-44 -100zM954 872q0 -14 9 -23t22 -9h84q14 0 23.5 9.5t9.5 22.5v80q0 12 -10 21.5t-23 9.5h-84q-13 0 -22 -9.5t-9 -21.5v-80z" />
<glyph unicode="@" d="M96 719q0 -143 56.5 -277t155.5 -232q99 -99 232.5 -154.5t276.5 -55.5t276.5 55.5t232.5 154.5t154.5 232.5t55.5 276.5t-55.5 277t-154.5 233q-100 100 -233.5 155.5t-275.5 55.5t-275.5 -55.5t-233.5 -155.5t-156 -233.5t-56 -276.5zM541 748q0 123 88 175 q64 40 142 10q37 -15 48 -15q4 0 53 17q42 16 76 13q78 0 123 -65q-12 -7 -22 -15q-21 -16 -36.5 -49t-15.5 -65q1 -48 25.5 -83.5t57.5 -48.5q12 -5 8 -10v-1q-3 -6 -6 -15l-9 -20q-12 -26 -31 -54l-9 -12l-8 -11q0 -1 -1 -2q-6 -5 -6 -7q-4 -6 -7 -9l-6 -6 q-12 -11 -14 -13q-3 -3 -5 -4q-3 -2 -5 -4q-20 -14 -41.5 -14.5t-53.5 13.5q-37 14 -59 14t-58 -14q-31 -13 -52 -15q-47 -2 -105 86q-71 101 -71 224zM813 956q-6 56 35.5 103.5t99.5 52.5q6 -61 -35 -108q-43 -54 -100 -48z" />
<glyph unicode="A" horiz-adv-x="1570" d="M97 384q0 -7 7 -11q139 -127 313.5 -194.5t368.5 -67.5q130 0 263 35.5t235 97.5q19 8 59 41q10 7 11 17q1 9 -10 14.5t-23 0.5q-30 -13 -37 -14q-235 -92 -483 -92q-369 0 -682 180q-22 10 -22 -7zM477 748q0 -105 59.5 -166.5t161.5 -61.5q71 0 126.5 23.5t117.5 83.5 l13 -19q29 -46 71 -78q22 -9 33 5q106 87 115 96q14 17 4 37q-26 32 -31 39q-29 41 -29 96v233q0 29 1 40v42q-1 8 -3 36q-2 30 -6 40q0 2 -1 4q-1 1 -1 2q-1 2 -1 3q-1 1 -1 3t-1 3q-5 11 -6 17q-11 35 -48 68q-38 33 -97 51.5t-123 18.5h-30q-120 -7 -199 -63t-100 -162 q-6 -23 18 -33l146 -14q14 0 24 24q20 82 111 92h12q51 0 80 -39q10 -13 14 -27q5 -17 5 -59q-1 -5 -1 -22v-21q-9 0 -110 -8q-112 -15 -166 -45q-158 -62 -158 -239zM690 774q0 106 111 139q37 9 110 9v-86q0 -62 -28 -99q-26 -53 -82 -69h-19q-42 0 -67 29t-25 77z M1216 367q0 -9 13 -9q3 0 23 3q52 6 87 6q56 0 66 -13q5 -8 5 -21q0 -39 -44 -153q-7 -13 6 -13q5 0 12 7q37 32 63 88.5t30 110.5v6q0 13 -9 22q-8 15 -65 20q-4 1 -27 1q-46 0 -92 -12q-28 -10 -59 -31q-9 -6 -9 -12z" />
<glyph unicode="B" horiz-adv-x="1286" d="M96 600q0 -131 66 -244t178.5 -179t243.5 -66h121q132 0 244 61t177.5 167t65.5 228q0 191 -106.5 324t-258.5 133h-243q-51 0 -87 -35.5t-36 -85.5q0 -51 36 -87t87 -36h243q46 0 83.5 -65t37.5 -148q0 -89 -70 -150t-173 -61h-121q-100 0 -172 71.5t-72 172.5v608 q0 50 -36 85.5t-85 35.5q-51 0 -87 -35.5t-36 -85.5v-608z" />
<glyph unicode="C" horiz-adv-x="1490" d="M96 586q0 -12 8.5 -20.5t20.5 -8.5h178l135 236h-313q-11 0 -20 -9.5t-9 -19.5v-178zM199 166q0 -26 22 -10l101 65q17 17 -5 33l-77 45q-8 5 -17.5 0.5t-9.5 -14.5zM250 356q0 -17 16 -24l76 -45q12 -5 24.5 -1.5t16.5 13.5l358 619q12 28 -12 40l-76 46q-12 5 -24.5 1 t-16.5 -14l-358 -618q-4 -7 -4 -17zM616 557h324l-111 236h-77zM706 1283q0 -11 8 -41q29 -97 99 -247l21 -47l18 -38q8 -22 12 -29q2 -3 3.5 -7t1.5 -5l53 -121q67 -152 105 -220q21 -38 38.5 -47.5t40.5 1.5q8 5 14 5q25 7 37 28t0 42q-45 92 -125.5 241t-118.5 208 q-46 75 -73 126q-61 106 -83 136q-27 38 -39 38q-2 0 -3 -1q-9 -5 -9 -22zM1092 793l2 -3q1 -1 6 -11t9 -16q25 -47 26 -50q36 -69 41 -76q1 -2 26 -55q3 -3 6 -13q1 -9 4 -12h156q30 0 30 29v178q-1 12 -9.5 20.5t-20.5 8.5h-276zM1107 412q0 -10 7 -17l43 -73 q18 -24 45 -13l33 19q23 19 10 49l-37 69q-5 12 -16 16l-11 2q-6 0 -12 -3l-45 -23q-13 -7 -16 -20q-1 -1 -1 -6zM1197 249q0 -19 15 -38q19 -28 91 -60q21 -10 25 -22v24q1 3 1 23q0 27 -1 32q-6 80 -47 94l-16 3q-15 0 -48 -14q-20 -23 -20 -42z" />
<glyph unicode="D" horiz-adv-x="1388" d="M96 719q0 -119 46 -231t128 -194t193.5 -128.5t230.5 -46.5t231 46.5t194 128.5t128.5 194t46.5 231q0 118 -46.5 229.5t-128.5 193.5t-194 128.5t-231 46.5t-230.5 -46.5t-193.5 -128.5t-128 -193t-46 -230zM197 694h7q12 -2 29 -2l33 -2q227 0 449 82q15 -44 30 -72 q-129 -43 -236 -124.5t-181 -194.5q-128 134 -131 313zM199 792q20 119 90 215.5t176 153.5q123 -141 207 -297q-197 -72 -406 -72h-67zM401 311q144 216 377 295q61 -185 74 -362q-66 -25 -158 -25q-153 0 -293 92zM565 1198q63 19 129 19q96 0 186 -36.5t160 -103.5 q-130 -112 -276 -176q-82 153 -199 297zM807 809q160 72 299 190q88 -133 88 -280q-115 26 -190 26q-63 0 -162 -18q-12 26 -17 42zM874 631q64 12 130 12q88 0 180 -22q-22 -106 -83.5 -193t-152.5 -139q-23 195 -74 342z" />
<glyph unicode="E" horiz-adv-x="1644" d="M96 268h406q49 0 129 11q66 23 100 49q48 31 77.5 88.5t29.5 124.5q0 155 -140 215q50 24 66 51q45 48 45 133q0 79 -41 135q-72 96 -236 96h-436v-903zM303 426v240h197q66 0 88 -15q59 -26 59 -96q0 -87 -59 -113q-31 -16 -92 -16h-193zM303 817v199h170q53 0 107 -15 q49 -21 49 -83q0 -50 -35.5 -75.5t-97.5 -25.5h-193zM907 614q0 -181 97 -262q100 -76 229 -76q163 0 244 93q55 58 61 116h-172q-13 -29 -35 -43q-42 -30 -94 -30q-54 0 -92 26q-68 41 -68 135h473q0 87 -13 147t-46 116q-41 58 -111 96q-76 29 -151 29q-150 0 -236 -92.5 t-86 -254.5zM1044 1042h361v93h-361v-93zM1081 684q12 61 45 100q34 37 103 37q57 0 100 -33q37 -40 43 -104h-291z" />
<glyph unicode="F" horiz-adv-x="862" d="M96 674h193v-582h239v582h240v239h-240v123q0 30 14.5 52t32.5 22h193v236h-193q-119 0 -202.5 -92t-83.5 -222v-119h-193v-239z" />
<glyph unicode="G" horiz-adv-x="854" d="M96 358q0 -107 97 -182.5t235 -75.5t235 75.5t97 182.5t-97 182.5t-235 75.5h-27q-10 19 -10 56q0 16 3 36q3 19 7 19h9q114 0 195 81t81 196q0 58 -37 104l96 51v184l-198 -110q-74 47 -146 47q-112 0 -192 -81t-80 -195q0 -129 104 -213q-26 -57 -26 -119 q0 -59 22 -107q-63 -36 -98 -90t-35 -117zM281 358q0 41 44 71q43 30 103 30q61 0 104 -30t43 -71t-42.5 -69.5t-104.5 -28.5q-61 0 -104 28.5t-43 69.5zM281 1004q0 52 38.5 90.5t90.5 38.5t90.5 -38.5t38.5 -90.5q0 -54 -37.5 -92t-91.5 -38t-91.5 38t-37.5 92z" />
<glyph unicode="H" horiz-adv-x="1427" d="M96 991q0 -107 56 -184q-9 -35 -9 -88q0 -156 76 -286q76 -132 207.5 -207.5t284.5 -75.5q51 0 104 12q79 -51 180 -51q141 0 239.5 98.5t98.5 239.5q0 107 -57 192q2 62 2 78q0 151 -75 282q-76 130 -207.5 205.5t-284.5 75.5q-53 0 -93 -8q-76 55 -184 55 q-141 0 -239.5 -98.5t-98.5 -239.5zM370 511q0 30 19.5 49.5t52.5 21.5h2q46 0 85 -42q49 -57 88 -77.5t104 -20.5l34 2q59 6 93 45q24 29 24 58q-2 35 -59 63q-51 23 -121 35q-85 14 -152 42q-71 30 -114.5 80t-43.5 111q0 14 1 17q7 103 75 168.5t175 75.5q30 3 59 3 q167 0 277 -95q30 -26 43 -57.5t5 -56.5q-7 -24 -26 -41t-41 -20h-2q-28 0 -95 64q-70 68 -153 70q-59 0 -104 -30.5t-45 -69.5v-8q7 -58 93 -75q2 -1 35 -7q4 0 10 -2t10 -2l11 -3q100 -22 151 -39.5t103 -50.5q52 -36 78 -101q17 -40 17 -71q0 -20 -6 -41 q-35 -116 -160 -173q-66 -29 -131 -32q-8 -1 -52 -1q-94 0 -162 24q-66 24 -117.5 72t-58.5 90z" />
<glyph unicode="I" horiz-adv-x="1232" d="M96 1243q0 -59 41 -100t99 -41t99.5 41t41.5 100t-41.5 101t-99.5 42q-57 0 -98.5 -42.5t-41.5 -100.5zM121 225h229v793h-229v-793zM461 225h229v508l10 9q25 22 70 40q22 9 45 9q30 0 59 -17q13 -4 26 -26t13 -39v-484h226v484q0 78 -43 152t-111 112q-72 35 -147 38 h-13q-73 0 -135 -30v37h-229v-793z" />
<glyph unicode="J" horiz-adv-x="1886" d="M97 511q0 -23 1 -27q1 -106 42 -208q6 -17 7 -18l779 225l-213 432q85 23 159 29l67 2q56 0 81 -4q217 -28 376 -128q15 -12 19 -13l-264 -70l-74 139q-59 13 -133 13q-54 0 -110 -9l180 -364l778 221l-18 24q-14 19 -57 61q-122 112 -305 177.5t-414 66.5h-9 q-152 0 -317 -28l-15 -2l-82 166l-243 -31l100 -198q-100 -42 -181 -109q-75 -62 -114.5 -156.5t-39.5 -190.5zM345 580q0 143 157 243l114 -235l-258 -72l-6 18q-7 13 -7 46z" />
<glyph unicode="K" horiz-adv-x="1636" d="M96 590q6 -131 104.5 -241.5t263.5 -173.5q161 -64 355 -64q195 0 363 66q167 66 263.5 180t96.5 247q0 96 -56.5 187.5t-155.5 158.5q-100 67 -234.5 105.5t-276.5 38.5q-267 0 -461 -111v373h-262v-766zM358 604q0 87 62 164q62 76 169 120t230 44q122 0 230 -44 q107 -44 169 -120.5t62 -163.5q0 -137 -134.5 -232.5t-326.5 -95.5t-326.5 95.5t-134.5 232.5zM516 604q0 -91 88 -154t215 -63q125 0 214 63.5t89 153.5q0 89 -88.5 151t-214.5 62q-127 0 -215 -62t-88 -151z" />
<glyph unicode="L" horiz-adv-x="1572" d="M248 342q176 -113 379 -113q131 0 246 42q207 75 338 272q116 179 116 391v29q72 57 123 129q-74 -32 -141 -39q77 49 108 135q-92 -47 -157 -58q-75 78 -181 78q-101 0 -173 -73.5t-72 -176.5q0 -29 6 -53q-150 6 -282 73.5t-226 184.5q-33 -61 -33 -125t29 -118t82 -86 q-60 0 -115 28v-2q0 -87 56 -155t143 -87q-50 -8 -66 -8q-21 0 -45 6q24 -76 86.5 -123.5t142.5 -48.5q-128 -104 -305 -104q-17 0 -59 2z" />
<glyph unicode="M" horiz-adv-x="1259" d="M96 590h213v-211h322v-279h534v500q0 110 -79 188t-189 78q-115 0 -188 -73q-17 64 -71 105.5t-122 41.5q-92 0 -154 -74q-12 47 -47.5 77t-81.5 30q-58 0 -97.5 -40t-39.5 -99v-244zM111 1143q0 -49 33.5 -84t80.5 -35t81 35t34 84q0 47 -34 80.5t-81 33.5t-80.5 -33.5 t-33.5 -80.5zM365 1143q0 -63 44 -107.5t107 -44.5q62 0 107 44.5t45 107.5q0 61 -45 106t-107 45q-63 0 -107 -44.5t-44 -106.5zM700 1143q0 -83 57.5 -141t139.5 -58q83 0 139 57.5t56 141.5q0 81 -57 137.5t-138 56.5q-82 0 -139.5 -57t-57.5 -137z" />
<glyph unicode="N" horiz-adv-x="1626" d="M96 719q0 -129 93 -221q92 -92 221 -92q130 0 221.5 91t91.5 222t-91.5 222t-221.5 91q-129 0 -221.5 -92t-92.5 -221zM907 719q0 -129 92 -221t220 -92q129 0 221 91.5t92 221.5t-92 221.5t-221 91.5q-128 0 -220 -92t-92 -221z" />
<glyph unicode="O" horiz-adv-x="835" d="M96 809h140v-360q0 -76 16 -107q9 -38 51 -70q40 -37 92 -53q67 -18 111 -18q63 0 104.5 9.5t130.5 45.5v164q-70 -49 -155 -49q-45 0 -69.5 9.5t-36.5 32.5t-15.5 49t-3.5 83v264h239v184h-239v238h-144q-13 -87 -36 -129q-27 -56 -68 -89t-117 -59v-145z" />
<glyph unicode="P" horiz-adv-x="1431" d="M96 217h328l82 375h231q172 0 297.5 101t163.5 272q9 49 9 94q0 128 -85.5 210.5t-220.5 82.5h-557zM225 80h328l78 373h235q171 0 297 101t164 271q11 58 11 94q0 109 -66 185q26 -60 26 -125q0 -51 -10 -92q-36 -169 -162.5 -271t-298.5 -102h-233l-80 -375h-274z M551 809l70 311h161q38 0 69 -22t42 -56q5 -35 5 -45q0 -16 -1 -18q-4 -4 -4 -14q-17 -63 -68.5 -108t-111.5 -48h-162z" />
<glyph unicode="Q" horiz-adv-x="1363" d="M98 762q0 -108 41.5 -210.5t116.5 -179.5q78 -80 184.5 -124.5t223.5 -44.5q84 0 165 26q67 -105 127 -133q37 -18 68 -19h7q59 0 96 19l16 8v98h-21q-25 0 -64 27.5t-71 69.5q126 81 200.5 208.5t80.5 274.5v20q0 146 -73 276t-205.5 207t-287.5 77q-158 0 -294 -78 q-138 -78 -221 -212.5t-89 -289.5v-20zM389 777v16q9 176 101.5 300t216.5 124q81 0 149 -56q66 -56 102.5 -149.5t36.5 -201.5v-17q-3 -88 -32 -171.5t-78 -144.5q-71 107 -186 107h-10q-38 -1 -62 -11l-9 -4v-100l17 3q21 3 48 -9.5t42 -34.5l27 -47q-36 -14 -74 -14 q-80 0 -148 56q-67 55 -104 148.5t-37 205.5z" />
<glyph unicode="R" horiz-adv-x="1441" d="M96 264q0 -69 49 -117q48 -49 117 -49t117.5 48.5t48.5 117.5t-48.5 117.5t-117.5 48.5t-117.5 -48.5t-48.5 -117.5zM96 686q116 0 223 -45t191 -129q170 -170 170 -414h244q0 223 -111 415t-302.5 302.5t-414.5 110.5v-240zM96 1110q198 0 387.5 -78.5t328.5 -217.5 t217.5 -328.5t78.5 -387.5h240q0 247 -97 480.5t-269 405.5t-405.5 269t-480.5 97v-240z" />
<glyph unicode="S" horiz-adv-x="1667" d="M96 506q0 -138 97 -235t235 -97t235 93.5t97 228.5v471q0 31 22 54t54 23q30 0 51.5 -23t21.5 -54v-93l105 -47l151 47v93q0 136 -96.5 233.5t-232.5 97.5q-137 0 -234.5 -97.5t-97.5 -233.5v-461q0 -33 -22 -56.5t-54 -23.5q-33 0 -55.5 23.5t-22.5 56.5v203h-254v-203z M909 496q0 -137 98 -234.5t234 -97.5q138 0 235 97t97 235v202h-254v-202q0 -34 -22 -56t-56 -22q-32 0 -54 22t-22 56v209l-151 -48l-105 48v-209z" />
<glyph unicode="T" horiz-adv-x="1093" d="M96 641q0 -201 132.5 -343t318.5 -142h313q57 0 98 40.5t41 98.5q0 61 -39 100t-98 39h-309q-69 0 -122.5 62t-53.5 145v78h483q57 0 98 41t41 98q0 61 -41 103.5t-98 42.5h-483v139q0 59 -40 99t-101 40q-57 0 -98.5 -41t-41.5 -98v-502z" />
<glyph unicode="U" horiz-adv-x="1396" d="M96 506q0 -159 111.5 -272t269.5 -113h443q157 0 270 113.5t113 271.5v323l-13 23l-18 14q-9 6 -77 7q-72 2 -89 20q-16 13 -21 51l-4 25q-8 42 -10 66q-11 49 -25 76l-6 13q-35 77 -122.5 139t-172.5 72h-268q-158 0 -269.5 -113t-111.5 -272v-444zM410 508 q0 31 21 52.5t52 21.5h432q31 0 52.5 -21.5t21.5 -52.5q0 -30 -22 -52t-52 -22h-432q-30 0 -51.5 22t-21.5 52zM410 948q0 30 21.5 52t51.5 22h211q30 0 52 -22t22 -52q0 -31 -21.5 -52.5t-52.5 -21.5h-211q-31 0 -52 21.5t-21 52.5z" />
<glyph unicode="V" horiz-adv-x="1613" d="M96 1012l58 -78l12 10l33 21q53 30 82 30q21 0 32 -14q22 -25 121 -347q98 -322 123 -372q16 -37 46 -70q75 -86 154 -86h1q41 0 87 25.5t122 89.5q170 142 318 338q84 111 144.5 242.5t81.5 249.5q7 32 7 77q0 101 -56.5 160.5t-161.5 59.5q-137 0 -250.5 -96 t-136.5 -238q54 33 94 33q10 0 12 -1q92 -12 92 -107l-1 -10q-1 -51 -31 -110q-137 -254 -198 -254q-28 0 -52 62q-19 46 -67 221q-8 34 -16 88l-3 21q-1 11 -3 18q-4 14 -4 18q-25 150 -37 195q-13 48 -50 101q-36 49 -96 49q-15 0 -31 -3q-47 -9 -110 -45t-146 -107 t-142 -139l-10 -12q-9 -9 -11 -12t-7 -8z" />
<glyph unicode="W" horiz-adv-x="1441" d="M96 713q0 -180 96.5 -332.5t258.5 -228.5l-299 815q-56 -136 -56 -254zM201 1055h41q44 0 166 8q16 0 23 -12q8 -12 2 -24.5t-23 -14.5l-70 -8l225 -674l137 409l-96 265l-67 8q-17 2 -21 15q-5 12 2.5 24t22.5 12l166 -8q48 0 165 8q16 0 24 -12t2 -24.5t-21 -14.5 l-70 -8l225 -668l62 207q49 126 49 202q0 78 -53 170q-2 3 -12 17.5t-12 18t-10 16t-10 18t-7 16.5t-6.5 19.5t-3 19.5t-1.5 23q0 44 30.5 77.5t72.5 33.5h12q-181 161 -424 161q-159 0 -296 -74t-224 -206zM547 115q72 -25 174 -25q123 0 209 37q-4 0 -4 4l-2 2l-193 524z M1034 174q144 82 229 227t85 312q0 153 -78 299q4 -13 4 -64q0 -111 -49 -225z" />
<glyph unicode="X" horiz-adv-x="1261" d="M96 571h92v-450h84v450h93v74h-269v-74zM180 1329l115 -350v-227h98v239l115 338h-98l-64 -231h-4l-66 231h-96zM397 184q0 -29 15 -53q11 -14 41 -14q24 0 45 12q21 9 43 37v-45h77v387h-77v-295q-6 -9 -20.5 -18t-22.5 -9q-15 0 -19 4l-2 9q0 2 -0.5 6t-0.5 5 q-1 1 -1 3v295h-78v-324zM516 858q0 -56 33 -84q35 -35 92 -35t92 35q33 26 33 84v221q0 53 -33 78q-33 33 -88 33q-52 0 -96 -29q-33 -33 -33 -82v-221zM604 850v233q0 16 10 23q7 10 27 10q15 0 26 -9t11 -24v-233q0 -15 -11 -26t-26 -11q-17 0 -27 10.5t-10 26.5z M678 121h78v29q10 -9 32 -25q24 -8 41 -8q70 0 70 86v213q0 42 -18 73q-23 23 -56 23q-34 0 -49 -15q-10 -8 -20 -18v166h-78v-524zM756 195v243l2 2l2 2q2 1 3 2l7 5l9 2q2 0 4 0.5t3 0.5l2 1q29 0 29 -41v-199q0 -17 -2 -27q-13 -10 -22 -10l-5 1q-2 1 -5 1l-9 2 q-10 4 -18 15zM836 821q0 -36 16.5 -57t46.5 -21q12 0 47 15q41 27 53 41v-47h88v428h-88v-326q-24 -33 -53 -33q-12 0 -16 5.5t-4 23.5v330h-90v-359zM940 231q0 -50 29 -88q32 -32 82 -32q60 0 88 28q28 34 28 92v19h-80v-19q0 -37 -8 -45q-12 -6 -24 -6q-20 0 -27 10 q-8 8 -8 41v74h147v101q0 49 -28 83q-29 29 -82 29q-50 0 -83.5 -33t-33.5 -79v-175zM1020 369v37q0 28 8 36q13 7 27 7q11 0 24 -7q8 -21 8 -36v-37h-67z" />
<glyph unicode="Y" horiz-adv-x="1904" d="M96 1124h226q59 -47 244 -271.5t194 -258.5q7 -24 7 -137q0 -14 -1 -17v-11q0 -41 1 -51q0 -28 -9 -64q-1 -7 -13 -17t-19 -12q-36 -8 -70 -8h-56h-3q-61 0 -62 -1l-11 -73q74 0 173 4t177 4q371 0 394 -4l4 78q-40 2 -121 2q-87 0 -119 2q-8 66 -8 253q0 30 2 52 q11 30 107.5 118.5t213.5 178.5q107 80 132 86l41 8h120l19 29h4l47 71v7h-670l25 -107h184l-305 -276l-81 105q-161 205 -232 310h229v82l2 15q0 4 -2 4v8h-764v-109zM1571 215l51 -8l59 -4l15 110l-60 4l-65 9v-111zM1589 399l103 -8l118 465q-27 0 -118 9t-103 14v-480z " />
<glyph unicode="Z" horiz-adv-x="1146" d="M96 274l64 -161q120 31 200 85t172 175l23 26q11 15 29 15l10 -2l8 -4q116 -50 199.5 -121.5t122.5 -149.5l129 78q-103 202 -274 322q-54 35 -91 53l-16 8l-6 4q-19 10 -17 37q14 41 45 41h27q56 -9 100 -9q22 0 28 1q73 4 191 67l-51 113q-85 -36 -165 -36 q-57 0 -111 18l-19 8l-8 18q-6 10 -6 41v10q-37 4 -88 33q-81 -42 -122 -121.5t-52 -216.5q-4 -68 -15 -82q-88 -188 -307 -250zM410 1165q0 -69 48 -117q48 -49 117 -49t117.5 48.5t48.5 117.5t-48.5 117.5t-117.5 48.5t-117 -48.5t-48 -117.5z" />
<glyph unicode="a" d="M96 719q0 -143 56.5 -277t155.5 -232q100 -100 234 -156t275 -56t275 56t234 156q99 99 154.5 232.5t55.5 276.5t-55.5 276.5t-154.5 232.5t-232.5 154.5t-276.5 55.5t-276.5 -55.5t-232.5 -154.5q-100 -100 -156 -234t-56 -275zM434 542q0 10 12 3q176 -101 379 -101 q143 0 269 52l20 8q6 3 12 -0.5t6 -8.5t-6 -10q-13 -12 -32 -22q-122 -74 -277 -74q-218 0 -379 146q-4 3 -4 7zM645 743q0 103 88 134q52 28 154 28v13q0 45 -13 63t-43 18h-6q-51 -8 -61 -51q-5 -14 -14 -14l-80 8q-15 5 -11 19q11 57 54 89t112 35h17q78 0 125 -41 q10 -10 13 -15q11 -17 15 -32q0 -5 4 -17q2 -14 2 -37v-169q0 -37 33 -76q8 -11 -2 -20q-50 -44 -63 -53q-6 -6 -19 -2q-7 7 -14 12q-6 5 -11 11q-1 0 -1 2q0 1 -1 2l-5 5l-8 11l-4 6q-3 3 -3 4q-60 -60 -135 -60q-57 0 -90 33.5t-33 93.5zM764 758q0 -27 13.5 -43.5 t37.5 -16.5h10q31 10 45 39q17 26 17 86v17h-36q-87 0 -87 -82zM1056 531q0 3 5 8q40 22 86 22h13q31 -1 36 -10q4 -4 4 -12v-4q-6 -73 -51 -111q-3 -3 -6 -3l-4 1q-3 2 0 6q25 56 25 84q0 8 -3 12q-4 7 -37 7q-25 0 -30 -1h-3q-10 -2 -13 -2h-6q-3 -1 -5 -1q-1 -1 -4 -1 q-7 0 -7 5z" />
<glyph unicode="b" d="M96 721q0 -143 55.5 -276.5t154.5 -232.5q100 -100 234 -156t275 -56q143 0 276.5 56t233.5 156t155.5 233.5t55.5 275.5q0 141 -54.5 274t-153.5 232t-232 155.5t-273 57.5h-14q-141 -1 -274.5 -57.5t-230.5 -155.5q-98 -99 -153 -232t-55 -274zM528 653v338q0 28 20 48 t48 20t48 -20t20 -48v-338q0 -57 39.5 -96t95.5 -39h67q57 0 96 34t39 83q0 48 -20 83.5t-47 35.5h-135q-28 0 -48 19.5t-20 47.5t20 48t48 20h135q85 0 144 -74t59 -180q0 -105 -79.5 -179.5t-191.5 -74.5h-67q-112 0 -191.5 79.5t-79.5 192.5z" />
<glyph unicode="c" d="M96 719q0 -143 56.5 -277t155.5 -232q100 -100 234 -156t275 -56t275 56t234 156q99 99 154.5 232.5t55.5 276.5t-55.5 276.5t-154.5 232.5t-232.5 154.5t-276.5 55.5t-276.5 -55.5t-232.5 -154.5q-100 -100 -156 -234t-56 -275zM455 645v98q0 6 5 11.5t11 5.5h174 l-76 -131h-98q-16 0 -16 16zM512 412l8 65q0 6 5 8.5t10 -0.5l43 -24q12 -9 2 -19l-56 -36q-12 -9 -12 6zM540 516q0 6 3 10l198 344q3 6 10 8t13 -1l43 -25q13 -7 6 -23l-199 -344q-7 -13 -22 -6l-43 25q-9 4 -9 12zM743 629l76 131h43l62 -131h-181zM795 1033q0 10 4 11 q1 1 2 1q7 -1 21 -21q6 -8 46 -76q9 -14 18 -30q10 -18 15 -25l3.5 -7t4.5 -7q42 -62 135 -250q7 -12 0 -23.5t-20 -15.5q-24 -7 -32 -3.5t-20 26.5q-20 41 -28 57q-40 87 -60 132l-9 20q-7 14 -7 17l-2 4l-2 3l-2 6q-2 2 -5 9q-62 142 -62 172zM1008 760h153q7 0 12 -5.5 t5 -11.5v-98q0 -16 -17 -16h-86q0 8 -6 14q-4 6 -14 31l-5 9q-7 12 -42 77zM1016 549q0 8 10 14l25 12l8 2q10 0 14 -10l21 -39q6 -16 -7 -26l-18 -10q-15 -7 -25 6l-24 41q-4 4 -4 10zM1066 459q0 11 11 22q13 9 22 9q4 0 5 -1q36 -11 36 -73v-17q-1 -1 -1 -8q-1 6 -28 19 q-25 12 -36 26q-9 12 -9 23z" />
<glyph unicode="d" d="M96 719q0 -196 97 -362q96 -167 262.5 -263t359.5 -96q195 0 361 97q167 96 263.5 262.5t96.5 361.5q0 142 -55.5 275.5t-155.5 233.5q-99 99 -233 154.5t-277 55.5t-276.5 -55.5t-232.5 -154.5t-154.5 -232.5t-55.5 -276.5zM483 719q0 137 97 234.5t235 97.5t236 -97.5 t98 -234.5q0 -138 -98 -236t-236 -98t-235 98t-97 236zM539 705q3 -102 73 -175q82 126 232 179q-12 22 -17 39q-126 -46 -249 -46l-19 2q-4 1 -20 1zM541 760h37q118 0 225 39q-47 86 -115 166q-59 -31 -98 -85t-49 -120zM653 492q76 -52 162 -52q44 0 88 15q-7 94 -41 200 q-130 -43 -209 -163zM743 985q62 -78 111 -166q85 37 154 99q-80 77 -193 77q-35 0 -72 -10zM879 768l18 -45q44 10 90 10q34 0 107 -14q0 78 -50 155q-75 -64 -165 -106zM915 670q27 -79 41 -191q105 60 131 185q-53 12 -100 12q-35 0 -72 -6z" />
<glyph unicode="e" d="M96 721q0 -143 57 -276q55 -133 155 -233t234 -156t275 -56t275 56t234 156q99 99 154.5 232.5t55.5 276.5q0 141 -55 274t-153 232q-97 99 -230.5 155.5t-274.5 57.5h-14q-141 -1 -274 -57.5t-230 -155.5q-99 -99 -154 -232t-55 -274zM414 469v502h241q90 0 131 -53 q23 -35 23 -76q0 -46 -25 -74q-11 -17 -36 -29q77 -32 77 -118q0 -79 -59 -119q-20 -17 -55 -27q-35 -6 -72 -6h-225zM528 557h107q47 0 65.5 15t18.5 57q0 39 -33 53q-14 8 -49 8h-109v-133zM528 774h107q74 0 74 55q0 36 -27 48q-40 8 -59 8h-95v-111zM864 662 q0 91 49 143q49 49 129 49q97 0 144 -67q35 -52 35 -148h-263q0 -90 89 -90q31 0 53 16q11 9 18 25h96q-3 -32 -34 -66q-45 -51 -136 -51q-71 0 -126 43q-54 45 -54 146zM940 899v51h201v-51h-201zM961 700h161q-3 37 -24 58q-24 18 -56 18q-37 0 -57 -20q-18 -21 -24 -56z " />
<glyph unicode="f" horiz-adv-x="1628" d="M96 719q0 -143 57 -277q55 -134 153 -232q99 -99 232.5 -154.5t276.5 -55.5t276.5 55.5t232.5 154.5t154.5 232.5t55.5 276.5t-55.5 277t-154.5 233q-100 100 -233.5 155.5t-275.5 55.5t-275.5 -55.5t-233.5 -155.5q-99 -99 -154.5 -233t-55.5 -277zM629 694v133h106v66 q0 72 47 123t113 51h106v-131h-106q-10 0 -18.5 -12.5t-8.5 -28.5v-68h133v-133h-133v-323h-133v323h-106z" />
<glyph unicode="g" d="M96 713q0 -196 97 -362q97 -167 264 -263t360 -96q194 0 360 97q166 96 262.5 263t96.5 361q0 143 -55.5 276.5t-154.5 232.5t-232.5 154.5t-276.5 55.5t-276.5 -55.5t-232.5 -154.5q-100 -100 -156 -234t-56 -275zM426 393q0 36 20 74q27 57 104 89t189 36 q-37 37 -37 80q0 15 13 45q-30 -2 -39 -2q-81 0 -138 53t-57 131q0 71 48 129q45 54 97.5 73t133.5 19h235l-71 -45h-74q36 -21 58 -63.5t22 -89.5q0 -44 -17 -79.5t-60 -75.5q-42 -37 -42 -71q0 -30 57 -73q25 -18 48 -40q57 -53 57 -134q0 -94 -84 -157t-217 -63 q-84 0 -160 35q-40 19 -63 53t-23 76zM526 420q0 49 34 82q58 55 183 55h27q1 0 23 -15.5t26 -18.5q9 -9 22 -18q17 -14 38 -44q16 -22 16 -58q0 -60 -45.5 -92t-124.5 -32q-110 0 -167 61q-32 35 -32 80zM584 956q0 55 28.5 90t75.5 35q45 0 80 -38q61 -70 61 -179 q0 -116 -98 -116q-60 0 -103.5 63t-43.5 145zM975 913v70h137v137h68v-137h139v-70h-139v-137h-68v137h-137z" />
<glyph unicode="h" d="M96 719q0 -143 56.5 -277t155.5 -232q99 -99 232.5 -154.5t276.5 -55.5t276.5 55.5t232.5 154.5t154.5 232.5t55.5 276.5t-55.5 276.5t-154.5 232.5t-232.5 154.5t-276.5 55.5t-276.5 -55.5t-232.5 -154.5q-100 -100 -156 -234t-56 -275zM473 870q0 78 55.5 133.5 t133.5 55.5q59 0 102 -31q12 4 51 4q130 0 222.5 -92t92.5 -221q0 -11 -2 -43q33 -51 33 -107q0 -78 -55 -133t-133 -55q-54 0 -101 29q-25 -7 -57 -7q-130 0 -222.5 92.5t-92.5 223.5q0 37 4 49q-31 43 -31 102zM625 600q0 -27 28 -55q65 -59 162 -59q24 0 29 1 q67 3 115.5 44.5t49.5 90.5q-1 44 -30 75q-18 20 -43.5 33.5t-45 19.5t-69.5 18q-64 12 -80 25q-17 17 -14 36t27.5 34.5t54.5 15.5q43 -1 107 -58q16 -15 32 -15t29 16q14 12 8.5 36.5t-27.5 42.5q-62 53 -152 53l-34 -2q-59 -6 -97 -42.5t-42 -92.5v-10q-1 -48 47.5 -83.5 t124.5 -45.5q54 -8 85 -30q16 -12 16 -26t-15 -30q-18 -18 -52.5 -24.5t-52.5 3.5q-36 10 -58 35q-9 10 -29 27q-15 16 -41.5 9t-31.5 -32q-1 -1 -1 -10z" />
<glyph unicode="i" d="M96 721q0 -143 57 -277q55 -134 153 -232q100 -100 234 -156t275 -56q143 0 276.5 56t233.5 156t155.5 233.5t55.5 275.5t-55.5 275.5t-155.5 233.5q-99 99 -233 154.5t-277 55.5t-276.5 -55.5t-232.5 -154.5t-154.5 -232.5t-55.5 -276.5zM535 1049q0 31 23 55t54 24 q32 0 55 -23.5t23 -55.5t-23 -55t-55 -23t-54.5 23t-22.5 55zM549 483v441h127v-441h-127zM737 483v441h127v-21q39 17 76 17h7q96 -4 143 -84q24 -40 24 -84v-269h-125v269q0 9 -7.5 21t-14.5 15q-17 10 -36 10q-29 0 -61 -26l-6 -6v-283h-127z" />
<glyph unicode="j" horiz-adv-x="1628" d="M96 719q0 -143 55.5 -276.5t154.5 -232.5q100 -100 234 -156t275 -56t275 56t234 156q99 99 154.5 232.5t55.5 276.5q0 141 -54.5 274t-153.5 232q-99 100 -231 156t-272 57h-16q-140 -1 -272 -57t-231 -156q-99 -99 -153.5 -232t-54.5 -274zM395 607q0 175 187 253 l-56 111l136 16l45 -92l8 2q75 14 145 15h31q63 0 91 -4q186 -23 298 -118q37 -31 51 -52l6 -9l-432 -123l-100 203q42 5 62 5q44 0 73 -7l41 -78l147 39l-20 12q-11 9 -56 28q-93 40 -193 40q-52 0 -122 -17l119 -239l-432 -125l-6 15q-14 34 -22 102q-1 3 -1 23zM534 647 q2 -20 3 -26l3 -7l1 -4l143 39l-63 131q-87 -57 -87 -127v-6z" />
<glyph unicode="k" d="M96 711q0 -196 97 -362q96 -167 262.5 -263t361.5 -96q194 0 360 97q166 96 262.5 263t96.5 361q0 143 -55.5 276.5t-154.5 232.5t-232.5 154.5t-276.5 55.5q-195 0 -361 -96q-168 -97 -264 -263.5t-96 -359.5zM331 860q0 5 3 8l2 3q8 8 26 8h130q10 0 18 -9l2 -2 q5 -2 10 -14q20 -49 49 -98q41 -89 75 -104q13 -6 24 -1l6 7q11 14 11 84q0 79 -13 104q-11 12 -41 20q-1 1 -1 3q4 13 23 22q23 12 111 12q45 -1 61 -8q15 -3 22 -9q12 -10 12 -48q0 -34 -1 -43q0 -8 -0.5 -23t-0.5 -18q-1 -5 -1 -11v-20q-2 -47 8 -61q12 -14 22 -10t34 31 q25 32 49 73l7 14q19 32 44 90q1 7 10 14l17 5h137q23 2 30 -2q13 -5 15.5 -8t2.5 -11q0 -36 -73 -133q-26 -35 -49 -63q-7 -7 -14 -21t-10 -17q-3 -4 -2 -14t3 -13q14 -22 24 -29l1 -1l4 -3l4 -4l13 -13q76 -70 92 -105l5 -13q3 -6 3 -12q0 -5 -5 -13q-7 -11 -36 -13h-123 q-4 -4 -11 -4q-19 0 -38 13q-4 1 -10 6q-17 12 -41 41q-51 60 -75 60q-4 0 -5 -1l-8 -4q-9 -5 -16 -24q-8 -28 -7 -54q0 -14 -8 -25l-3 -2q-7 -6 -22 -6h-53q-2 -1 -15 -1q-89 0 -198 90l-12 12l-31 36q-39 43 -92 134t-92 184q-3 8 -3 14z" />
<glyph unicode="l" d="M96 719q0 -143 56.5 -277t155.5 -232q99 -99 232.5 -154.5t276.5 -55.5t276.5 55.5t232.5 154.5t154.5 232.5t55.5 276.5t-55.5 276.5t-154.5 232.5t-232.5 154.5t-276.5 55.5t-276.5 -55.5t-232.5 -154.5q-100 -100 -156 -234t-56 -275zM496 481h34q101 0 181 62 q-48 1 -86 30t-50 72q12 -4 25 -4q26 0 39 4q-50 11 -82.5 51t-32.5 92v3q32 -17 66 -17q-64 39 -64 121q0 40 19 74q118 -145 301 -154q-4 13 -4 33q0 61 42.5 104t102.5 43q64 0 105 -47q31 6 96 35q-22 -54 -66 -80q40 5 84 23q-32 -47 -73 -76v-19q0 -55 -17 -118 q-38 -132 -144.5 -214.5t-252.5 -82.5q-122 0 -223 65z" />
<glyph unicode="m" d="M96 719q0 -143 57 -277q55 -134 153 -232q99 -99 232.5 -154.5t276.5 -55.5t277 55.5t233 154.5q100 100 155.5 233.5t55.5 275.5t-55.5 275.5t-155.5 233.5q-99 99 -233 154.5t-277 55.5t-276.5 -55.5t-232.5 -154.5t-154.5 -232.5t-55.5 -276.5zM518 647v135 q0 32 22 55t54 23q26 0 46 -16.5t26 -42.5q33 41 86 41q38 0 67.5 -23t38.5 -59q41 41 105 41q62 0 105.5 -43.5t43.5 -104.5v-278h-297v155h-178v117h-119zM526 954q0 26 19 45t45 19t44.5 -19t18.5 -45q0 -28 -18.5 -46.5t-44.5 -18.5t-45 18.5t-19 46.5zM668 954 q0 34 24.5 59t59.5 25q34 0 59 -25t25 -59q0 -35 -25 -59.5t-59 -24.5q-35 0 -59.5 24.5t-24.5 59.5zM854 954q0 44 32.5 76.5t76.5 32.5q45 0 76.5 -32t31.5 -77q0 -46 -31 -78t-77 -32q-45 0 -77 32t-32 78z" />
<glyph unicode="n" d="M96 719q0 -143 56.5 -277t155.5 -232q99 -99 232.5 -154.5t276.5 -55.5t276.5 55.5t232.5 154.5t154.5 232.5t55.5 276.5t-55.5 276.5t-154.5 232.5t-232.5 154.5t-276.5 55.5t-276.5 -55.5t-232.5 -154.5q-100 -100 -156 -234t-56 -275zM418 719q0 72 51 123t123 51 t123 -51t51 -123t-51 -123t-123 -51t-123 51t-51 123zM868 719q0 71 50 123q50 51 122 51t123 -51t51 -123t-51 -123t-123 -51q-71 0 -121.5 51t-50.5 123z" />
<glyph unicode="o" d="M96 717q0 -143 55.5 -276.5t154.5 -232.5q100 -100 234 -156t275 -56q143 0 276.5 56t233.5 156t155.5 233.5t55.5 275.5q0 141 -54.5 274t-153.5 232t-232 155.5t-273 57.5h-14q-141 -1 -274.5 -57.5t-230.5 -155.5q-98 -99 -153 -232t-55 -274zM637 768v80q42 15 63 33 q50 36 60 120h80v-131h133v-102h-133v-147q0 -59 13 -78t56 -19t86 27v-90q-56 -23 -74.5 -27t-56.5 -4q-66 0 -111 39q-25 19 -30 39q-8 21 -8 59v201h-78z" />
<glyph unicode="p" d="M96 715q0 -143 57 -277q55 -134 153 -232q99 -99 232.5 -154.5t276.5 -55.5t277 55.5t233 154.5q100 100 155.5 233.5t55.5 275.5t-55.5 275.5t-155.5 233.5q-99 99 -233 154.5t-277 55.5t-276.5 -55.5t-232.5 -154.5t-154.5 -232.5t-55.5 -276.5zM471 438l137 631h310 q73 0 122 -47t49 -114q0 -26 -6 -54q-22 -96 -91 -151.5t-165 -55.5h-129l-45 -209h-182zM543 362l8 33h151l46 209h129q96 0 166 56t90 151q5 35 5 49q0 33 -14 72q36 -44 36 -106q0 -15 -5 -50q-21 -95 -91.5 -151t-164.5 -56h-131l-43 -207h-182zM723 768h90 q34 1 62.5 26t37.5 60q0 6 2 8q1 1 1 10q0 12 -3 25q-13 43 -61 43h-90z" />
<glyph unicode="q" d="M96 719q0 -196 97 -362q96 -167 262.5 -263t361.5 -96q194 0 360 97q166 96 262.5 263t96.5 361q0 143 -55.5 276.5t-154.5 232.5t-232.5 154.5t-276.5 55.5q-195 0 -361 -96q-168 -97 -264 -263.5t-96 -359.5zM492 743v11q5 132 103.5 226.5t231.5 94.5q132 0 223 -90.5 t91 -219.5v-11q-3 -81 -44.5 -152.5t-111.5 -116.5q17 -22 44 -40q22 -13 30 -13q7 -2 12 0v-55l-22 -9q-13 -6 -34 -6h-1q-1 0 -3 0.5t-4.5 0.5t-6.5 0.5t-8 0.5q-39 5 -71 47q-12 15 -24 35q-45 -14 -92 -14q-131 0 -222 91t-91 220zM653 748q0 -94 46 -160t114 -66 q17 0 41 8l-14 27q-19 25 -44 25l-16 -2v55l10 3q21 6 38 7q22 2 50.5 -15t49.5 -46q58 70 61 176v12q0 93 -46 158t-114 65q-69 0 -120 -69t-56 -166v-12z" />
<glyph unicode="r" d="M96 715q0 -141 56 -275t156 -234q99 -99 232.5 -154.5t276.5 -55.5t276.5 55.5t232.5 154.5t154.5 232.5t55.5 276.5q0 141 -54.5 274t-153.5 233t-231 155.5t-274 56.5h-14q-120 -2 -224 -38q-210 -70 -351 -258q-66 -88 -102 -197.5t-36 -225.5zM496 469q0 38 27 65 t65 27t65 -27t27 -65t-27 -65t-65 -27t-65 27t-27 65zM496 702v134q189 0 323.5 -135t134.5 -324h-135q0 135 -95 230t-228 95zM496 938v133q188 0 349 -92q160 -93 252.5 -254t92.5 -348h-133q0 110 -44 215.5t-120 181.5t-181.5 120t-215.5 44z" />
<glyph unicode="s" d="M96 721q0 -196 97 -362q96 -167 262.5 -263t359.5 -96q196 0 362 97q167 96 263 263t96 361q0 195 -96 361t-263 262t-362 96q-143 0 -276.5 -55.5t-232.5 -154.5t-154.5 -232.5t-55.5 -276.5zM412 606v113h141v-113q0 -19 12 -32t31 -13t31 13t12 32v256q0 75 54.5 130 t129.5 55t129 -55t54 -130v-51l-84 -27l-58 27v51q0 17 -12 30t-29 13q-18 0 -30.5 -12.5t-12.5 -30.5v-262q0 -75 -54 -126.5t-130 -51.5t-130 54t-54 130zM864 600v117l58 -27l84 27v-117q0 -19 12 -31t31 -12t31 12t12 31v113h141v-113q0 -76 -53.5 -130t-130.5 -54 q-75 0 -130 54.5t-55 129.5z" />
<glyph unicode="t" d="M96 719q0 -143 56.5 -277t155.5 -232q99 -99 232.5 -154.5t276.5 -55.5t276.5 55.5t232.5 154.5t154.5 232.5t55.5 276.5t-55.5 277t-154.5 233q-100 100 -233.5 155.5t-275.5 55.5t-275.5 -55.5t-233.5 -155.5t-156 -233.5t-56 -276.5zM565 676v278q0 32 23 55t55 23 q33 0 55.5 -22.5t22.5 -55.5v-77h268q32 0 55 -23t23 -57q0 -32 -23 -55t-55 -23h-268v-43q0 -46 30 -80.5t68 -34.5h172q32 0 54 -22t22 -56q0 -32 -23 -54.5t-55 -22.5h-174q-103 0 -176.5 79t-73.5 191z" />
<glyph unicode="u" d="M96 717q0 -143 57 -277q55 -134 153 -232q99 -99 232.5 -154.5t276.5 -55.5t277 55.5t233 154.5q100 100 155.5 233.5t55.5 275.5t-55.5 275.5t-155.5 233.5q-99 99 -233 154.5t-277 55.5t-276.5 -55.5t-232.5 -154.5t-154.5 -232.5t-55.5 -276.5zM492 604v248 q0 88 61.5 150.5t148.5 62.5h150q42 -4 92 -37q46 -31 65.5 -65t26.5 -86q7 -49 16 -58t50 -10q37 -2 43 -4l10 -8l6 -13v-180q0 -88 -62.5 -150.5t-150.5 -62.5h-246q-87 0 -148.5 62.5t-61.5 150.5zM666 606q0 -17 12 -29t29 -12h239q17 0 29 12t12 29t-12 29t-29 12h-239 q-17 0 -29 -12t-12 -29zM666 850q0 -17 12 -29t29 -12h116q17 0 29 12t12 29t-12 29t-29 12h-116q-17 0 -29 -12t-12 -29z" />
<glyph unicode="v" d="M96 719q0 -143 57 -277q55 -134 153 -232q99 -99 232.5 -154.5t276.5 -55.5t277 55.5t233 154.5q100 100 155.5 233.5t55.5 275.5t-55.5 275.5t-155.5 233.5q-99 99 -233 154.5t-277 55.5t-276.5 -55.5t-232.5 -154.5t-154.5 -232.5t-55.5 -276.5zM420 885l36 41 q47 50 104.5 90.5t96.5 48.5l19 2q42 0 65 -50q21 -46 38 -153q7 -46 12 -69q31 -108 37 -124q12 -34 28 -34q34 0 111 141q17 40 17 66q0 10 -1 12q-5 35 -35 45q-9 3 -20 3q-22 0 -54 -17q4 25 16 54q37 81 121 115q46 17 78 17q36 0 64 -16q57 -32 57 -106q0 -27 -4 -44 q-20 -120 -103.5 -243t-197.5 -218q-76 -64 -117 -64q-24 0 -47 15q-45 28 -65 72q-4 8 -68 206q-56 181 -67 193q-4 7 -16 7q-22 0 -64 -27q-4 -4 -8 -6z" />
<glyph unicode="w" d="M96 713q0 -143 57 -277q55 -134 153 -232q99 -99 232.5 -154.5t276.5 -55.5q196 0 362 97q167 96 263 262.5t96 359.5q0 195 -96 361t-263 262t-362 96q-143 0 -276.5 -55.5t-232.5 -154.5t-154.5 -232.5t-55.5 -276.5zM469 713q0 72 31 141l166 -453 q-90 42 -143.5 126.5t-53.5 185.5zM526 903q48 73 124 114.5t165 41.5q135 0 236 -90h-7q-24 0 -40.5 -19t-16.5 -43q0 -26 35 -82q29 -56 29 -94q0 -37 -27 -113l-35 -114l-125 370l39 5q8 0 11 7t-0.5 14t-12.5 7l-92 -4q-52 0 -92 4q-9 0 -12 -7q-4 -7 -1 -14t11 -7 l37 -5l53 -147l-76 -227l-125 374l39 5q8 0 11 7t-0.5 14t-12.5 7l-92 -4h-23zM719 381l102 301l107 -291l4 -4q-57 -20 -117 -20q-48 0 -96 14zM989 414l107 305q26 69 26 125q0 11 -2 35q43 -76 43 -166q0 -92 -47.5 -173t-126.5 -126z" />
<glyph unicode="x" d="M96 719q0 -143 56.5 -277t155.5 -232q99 -99 232.5 -154.5t276.5 -55.5t276.5 55.5t232.5 154.5t154.5 232.5t55.5 276.5t-55.5 277t-154.5 233q-100 100 -233.5 155.5t-275.5 55.5t-275.5 -55.5t-233.5 -155.5t-156 -233.5t-56 -276.5zM518 637v41h150v-41h-52v-250h-47 v250h-51zM565 1059h53l37 -129h2l35 129h56l-64 -189v-133h-55v127zM686 422v180h43v-164q0 -7 1 -8l1 -4q2 -2 10 -2q11 0 25 14v164h43v-215h-43v25q-21 -27 -49 -27q-31 0 -31 37zM752 797v123q0 27 18 45q22 16 53 16t49 -18q19 -16 19 -43v-123q0 -31 -19 -47 q-19 -19 -51 -19t-50.5 18t-18.5 48zM801 793q0 -8 4 -15q6 -6 16 -6q9 0 15 6t6 15v129q0 9 -6 12q-6 6 -15 6q-11 0 -14 -6q-6 -3 -6 -12v-129zM842 387v291h43v-92q18 18 39 18q18 0 30 -12q11 -20 11 -41v-119q0 -21 -10.5 -34t-28.5 -13q-15 0 -23 4q-3 3 -7.5 6t-7 5 t-3.5 3v-16h-43zM885 428q7 -7 10 -8q4 0 5 -1t5 -1q15 0 15 20v111q0 11 -5 16q-3 6 -12 6q-4 0 -5 -1t-5 -1l-8 -6v-135zM930 776v199h49v-182q0 -17 12 -17q16 0 29 19v180h49v-238h-49v27q-9 -11 -27 -21t-28 -10q-35 0 -35 43zM987 449v96q0 27 18.5 45t47.5 18t45 -16 q16 -19 16 -47v-56h-82v-40q0 -19 3.5 -24t15.5 -5q10 0 14 4t4 25v10h45v-10q0 -33 -16 -52q-16 -16 -49 -16q-27 0 -45 18q-17 20 -17 50zM1032 524h37v21q0 24 -18 24q-12 0 -15.5 -4.5t-3.5 -19.5v-21z" />
<glyph unicode="y" d="M96 717q0 -197 97 -360q96 -167 262.5 -263t361.5 -96q143 0 276.5 55.5t232.5 154.5t154.5 232.5t55.5 276.5t-55.5 277t-154.5 233q-100 100 -233.5 155.5t-275.5 55.5q-195 0 -362 -96q-167 -97 -263 -264t-96 -361zM340 944v60h424v-5l2 -2l-2 -8v-45h-127 q23 -34 60 -83l114 -148l170 153h-102l-15 60h373l-2 -4l-25 -39l-12 -17h-68q-13 -4 -22 -4q-25 -6 -134 -97.5t-118 -115.5q-1 -1 -1 -31q0 -109 5 -139q2 -1 66 -1t67 -1v-43q-46 2 -221 2l-98 -2h-44q-19 -1 -35 -1q-5 -1 -17 -1l6 41h34h35q44 1 51.5 13t7.5 76 q0 68 -3 87q-6 19 -109 144.5t-135 150.5h-125zM1159 438v62l37 -4l33 -2l-8 -62l-33 2zM1169 541v266q6 -3 56.5 -7.5t66.5 -4.5l-65 -258z" />
<glyph unicode="z" horiz-adv-x="1628" d="M96 719q0 -143 57 -277q55 -134 153 -232q99 -99 232.5 -154.5t276.5 -55.5t276.5 55.5t232.5 154.5t154.5 232.5t55.5 276.5t-55.5 276.5t-154.5 232.5t-232.5 154.5t-276.5 55.5t-276.5 -55.5t-232.5 -154.5t-154.5 -232.5t-55.5 -276.5zM549 473q120 32 170 139 q5 5 8 45q6 76 28.5 120t67.5 69q30 -18 49 -19v-6q0 -14 5 -22l4 -11l10 -4q24 -10 60 -10q45 0 93 21l29 -64q-73 -39 -129 -39q-14 0 -49 6h-14q-17 0 -22.5 -16t5.5 -26l4 -3l8 -4q50 -19 126 -96q41 -44 77 -113l-71 -43q-44 90 -179 150q-7 4 -10 4q-8 0 -16 -8 l-12 -15q-5 -7 -32 -43q-23 -29 -77 -62q-46 -26 -98 -40zM723 969q0 38 27 65t65 27t65 -27t27 -65t-27 -65t-65 -27t-65 27t-27 65z" />
<glyph unicode="&#xa0;" d="M96 729q0 -196 97 -362q97 -167 264 -263t360 -96q194 0 360 97q166 96 262.5 263t96.5 361q0 143 -55.5 276.5t-154.5 232.5t-232.5 154.5t-276.5 55.5t-276.5 -55.5t-232.5 -154.5q-100 -100 -156 -234t-56 -275z" />
<glyph unicode="&#x2000;" horiz-adv-x="724" />
<glyph unicode="&#x2001;" horiz-adv-x="1448" />
<glyph unicode="&#x2002;" horiz-adv-x="724" />
<glyph unicode="&#x2003;" horiz-adv-x="1448" />
<glyph unicode="&#x2004;" horiz-adv-x="482" />
<glyph unicode="&#x2005;" horiz-adv-x="362" />
<glyph unicode="&#x2006;" horiz-adv-x="241" />
<glyph unicode="&#x2007;" horiz-adv-x="241" />
<glyph unicode="&#x2008;" horiz-adv-x="181" />
<glyph unicode="&#x2009;" horiz-adv-x="289" />
<glyph unicode="&#x200a;" horiz-adv-x="80" />
<glyph unicode="&#x202f;" horiz-adv-x="289" />
<glyph unicode="&#x205f;" horiz-adv-x="362" />
<glyph unicode="&#x25fc;" horiz-adv-x="1440" d="M0 0v1440h1440v-1440h-1440z" />
</font>
</defs>
</svg>
