<?xml version="1.0" standalone="no"?>
<!DOCTYPE svg PUBLIC "-//W3C//DTD SVG 1.1//EN" "http://www.w3.org/Graphics/SVG/1.1/DTD/svg11.dtd" >
<svg xmlns="http://www.w3.org/2000/svg" xmlns:xlink="http://www.w3.org/1999/xlink" version="1.1">
<metadata></metadata>
<defs>
<font id="socialicoregular" horiz-adv-x="1630" >
<font-face units-per-em="2048" ascent="1536" descent="-512" />
<missing-glyph horiz-adv-x="500" />
<glyph horiz-adv-x="2048" />
<glyph horiz-adv-x="2048" />
<glyph unicode="&#xd;" horiz-adv-x="2048" />
<glyph unicode=" " d="M96 729q0 141 56 275t156 234q99 99 232.5 154.5t276.5 55.5t276.5 -55.5t232.5 -154.5t154.5 -232.5t55.5 -276.5q0 -195 -96 -361q-97 -168 -263 -264t-360 -96q-193 0 -360 96q-168 96 -264.5 263t-96.5 362z" />
<glyph unicode="!" d="M96 719q0 142 56 277q55 132 156 233q100 100 233.5 155.5t275.5 55.5t275.5 -55.5t233.5 -155.5q99 -99 154.5 -233t55.5 -277t-55.5 -276.5t-154.5 -232.5t-232.5 -154.5t-276.5 -55.5t-276.5 55.5t-232.5 154.5q-100 99 -156 233t-56 276zM303 616q0 -48 41 -86v172 q-41 -33 -41 -86zM387 508q12 -4 33 -4h10v225l-10 2q-21 0 -33 -4v-219zM473 504h43v284q-28 -37 -35 -75l-8 4v-213zM559 504h43v346q-21 -8 -43 -21v-325zM645 504h43v354q-11 0 -13 1t-13 1l-17 -2v-354zM711 504h63v356q-16 -21 -18 -26q-18 10 -45 18v-348zM797 504 h407v2q59 3 92 35.5t33 87.5q0 52 -34.5 87.5t-86.5 35.5q-14 0 -49 -11q-9 82 -71 137.5t-148 55.5q-87 0 -143 -53v-377z" />
<glyph unicode="#" horiz-adv-x="1100" d="M62 195l33 -34l454 441l453 -439l33 34l-452 438l452 440l-33 34l-454 -441l-453 439l-33 -34l452 -438z" />
<glyph unicode="$" horiz-adv-x="1628" d="M96 717q0 143 55.5 276.5t154.5 232.5t232.5 154.5t276.5 55.5t276.5 -55.5t232.5 -154.5t154.5 -232.5t55.5 -276.5q0 -195 -96 -361q-97 -168 -263 -264t-360 -96q-193 0 -359 96q-167 96 -263.5 263t-96.5 362zM401 553h56v170q0 77 39 102q22 13 45 13q32 0 45 -19 q14 -17 14 -55v-211h57v188q0 97 82 97q35 0 47.5 -17.5t12.5 -62.5v-205h55v223q0 58 -27 82q-24 27 -75 27q-64 0 -105 -56q-20 56 -94 56q-59 0 -102 -51v45h-50v-326zM920 713q0 -78 42 -122t117 -44q122 0 148 104l-58 6q-16 -36 -35.5 -50.5t-54.5 -14.5q-43 0 -69 29 q-28 28 -31 81h250v15q0 78 -41 123t-111 45t-112 -45q-45 -42 -45 -127zM983 748q0 39 27.5 65.5t66.5 26.5q41 0 65 -24.5t27 -67.5h-186z" />
<glyph unicode="%" horiz-adv-x="1448" d="M171 196q0 40 27.5 68t68.5 28t69.5 -28t28.5 -68q0 -41 -28.5 -69.5t-69.5 -28.5q-40 0 -68 28.5t-28 69.5zM171 652q0 41 28 69t68 28q41 0 69.5 -28t28.5 -69t-28.5 -69.5t-69.5 -28.5q-39 0 -67.5 28.5t-28.5 69.5zM171 1108q0 41 28 69t68 28q41 0 69.5 -28 t28.5 -69t-28.5 -69.5t-69.5 -28.5q-39 0 -67.5 28.5t-28.5 69.5zM627 196q0 40 27.5 68t68.5 28t69.5 -28t28.5 -68q0 -41 -28.5 -69.5t-69.5 -28.5q-40 0 -68 28.5t-28 69.5zM627 652q0 41 28 69t68 28q41 0 69.5 -28t28.5 -69t-28.5 -69.5t-69.5 -28.5q-39 0 -67.5 28.5 t-28.5 69.5zM627 1108q0 41 28 69t68 28q41 0 69.5 -28t28.5 -69t-28.5 -69.5t-69.5 -28.5q-39 0 -67.5 28.5t-28.5 69.5zM1083 196q0 40 28 68t68 28q42 0 70 -27.5t28 -68.5t-28 -69.5t-70 -28.5q-40 0 -68 28.5t-28 69.5zM1083 652q0 40 28 68.5t68 28.5q42 0 70 -28 t28 -69t-28 -69.5t-70 -28.5q-40 0 -68 28.5t-28 69.5zM1083 1108q0 40 28 68.5t68 28.5q42 0 70 -28t28 -69t-28 -69.5t-70 -28.5q-40 0 -68 28.5t-28 69.5z" />
<glyph unicode="&#x26;" horiz-adv-x="1628" d="M96 717q0 143 55.5 276.5t154.5 232.5t232.5 154.5t276.5 55.5t276.5 -55.5t232.5 -154.5t154.5 -232.5t55.5 -276.5q0 -195 -96 -361q-97 -168 -263 -264t-360 -96q-193 0 -359 96q-167 96 -263.5 263t-96.5 362zM512 807q0 -69 24 -110t80 -64q35 35 14 70 q-29 50 -31 89t23 98q45 91 137.5 119.5t172.5 -22.5q54 -33 70.5 -121.5t-16.5 -169.5q-32 -83 -97 -96q-21 -3 -44 2t-32 14q-41 38 -4 122q41 86 18 141q-12 27 -34 34q-43 13 -84 -40q-17 -23 -20.5 -45.5t4.5 -58.5q7 -25 7 -48q0 -43 -27 -136q-32 -108 -37 -144 t3 -99h49q39 65 76 227q10 6 17 -10l7 -10q54 -30 120.5 -23t111.5 47q52 43 78 126q63 197 -60 313q-64 61 -161.5 76t-176.5 -22q-86 -33 -136 -101.5t-52 -157.5z" />
<glyph unicode="(" horiz-adv-x="1628" d="M96 721q0 142 56 277t154 233q100 100 233.5 155.5t275.5 55.5t275.5 -55.5t233.5 -155.5q99 -99 154.5 -233t55.5 -277t-55.5 -276.5t-154.5 -232.5t-232.5 -154.5t-276.5 -55.5t-276.5 55.5t-232.5 154.5t-154.5 233t-55.5 276zM465 721q0 -145 102.5 -247.5 t247.5 -102.5t247.5 102.5t102.5 247.5q0 146 -102.5 248t-247.5 102t-247.5 -102t-102.5 -248zM535 721q0 117 81.5 198.5t198.5 81.5t199 -81.5t82 -198.5q0 -115 -82.5 -197t-198.5 -82q-117 0 -198.5 81.5t-81.5 197.5zM676 686l139 -139l139 139h-69v211h-140v-211h-69 z" />
<glyph unicode=")" d="M96 719q0 142 56 277q56 134 154 232q99 99 232.5 154.5t276.5 55.5t277 -55.5t233 -154.5q100 -100 155.5 -233.5t55.5 -275.5t-55.5 -275.5t-155.5 -233.5q-99 -99 -233 -154.5t-277 -55.5t-276.5 55.5t-232.5 154.5t-154.5 233t-55.5 276zM346 764h154v-287 q0 -13 11 -24t24 -11h350l-109 111h-166v211h154l-209 229zM748 995l108 -110h166v-211h-156l211 -230l209 230h-153v287q0 13 -10.5 23.5t-24.5 10.5h-350z" />
<glyph unicode="," d="M91 710q0 -237 138.5 -426t356.5 -262q25 -5 37.5 6.5t12.5 28.5q0 3 -0.5 51.5t-0.5 83.5q-8 -2 -22 -4t-51 -2.5t-67.5 5.5t-61 28t-42.5 58q-4 9 -10.5 24t-28 43.5t-42.5 38.5q-1 1 -3.5 2.5t-7.5 6.5l-9 9t-6 9.5t-0.5 9t9.5 6t22 2.5q3 0 8 -1t19.5 -5.5 t27.5 -11.5t29 -22t27 -35q22 -39 52.5 -59t62 -20t54 5t42.5 14q8 64 46 97q-54 6 -97 17t-88.5 36.5t-76 63t-50 99.5t-19.5 142q0 111 75 194q-33 90 8 193q27 8 77 -10.5t86 -40.5l36 -23q91 24 182 24q90 0 180 -24q16 10 40.5 25t78 36t80.5 13q40 -96 9 -193 q74 -80 74 -194q0 -81 -19.5 -142.5t-50 -99t-76 -63t-88.5 -36.5t-97 -17q48 -41 48 -134v-199q0 -17 12.5 -28.5t38.5 -6.5q218 73 356.5 262t138.5 426q0 148 -57.5 282.5t-154.5 231.5t-231.5 154.5t-281.5 57.5q-148 0 -282.5 -57.5t-231.5 -154.5t-154 -231.5 t-57 -282.5z" />
<glyph unicode="." d="M96 717q0 142 56 277t154 233q100 100 233.5 155.5t275.5 55.5t276 -55.5t234 -155.5t155.5 -234t55.5 -276t-55.5 -275.5t-155.5 -233.5q-99 -99 -233 -154.5t-277 -55.5t-276.5 55.5t-232.5 154.5t-154.5 233t-55.5 276zM485 717q0 -135 97.5 -231.5t232.5 -96.5 q136 0 233 96.5t97 231.5q0 137 -96.5 233.5t-233.5 96.5q-135 0 -232.5 -97t-97.5 -233zM553 717q0 109 76.5 186.5t185.5 77.5t186.5 -77.5t77.5 -186.5t-77.5 -185.5t-186.5 -76.5q-108 0 -185 77t-77 185zM674 598q1 -22 17 -35t36 -10q22 3 35 19t12 38v174l133 25 v-139q-7 4 -24 4q-22 -3 -35.5 -19.5t-11.5 -38.5q1 -21 16.5 -34t36.5 -11q21 3 35 20t12 38v254l-191 -33v-199q-7 4 -24 4q-21 -3 -35 -19.5t-12 -37.5z" />
<glyph unicode="/" d="M96 717q0 143 55.5 276.5t154.5 232.5t232.5 154.5t276.5 55.5t277 -55.5t233 -154.5q100 -100 155.5 -233.5t55.5 -275.5q0 -195 -96 -361q-97 -167 -264 -263.5t-361 -96.5q-193 0 -359 96q-167 96 -263.5 263t-96.5 362zM434 721q0 -63 45 -108q43 -46 107 -46 q16 0 51 11l147 -136l414 334v205l-2 8l-405 -430l-64 107q10 21 10 55q0 63 -44 107t-107 44t-107.5 -44t-44.5 -107z" />
<glyph unicode="0" d="M96 725q0 142 56 277q56 134 154 232q99 99 232.5 154.5t276.5 55.5t277 -55.5t233 -154.5q100 -100 155.5 -233.5t55.5 -275.5t-55.5 -275.5t-155.5 -233.5t-233.5 -156t-276.5 -56q-141 0 -275 56t-234 156q-99 99 -154.5 233t-55.5 276zM212 479h118v485h-118v-485z M390 479h107v272l50 -272h73l49 272v-272h102v485h-161l-28 -229l-39 229h-153v-485zM834 479h133q85 0 119.5 24t34.5 72v293q0 49 -34 73q-19 13 -42 18q-25 5 -79 5h-132v-485zM948 561v326h17q1 0 2.5 -0.5t4.5 -1t6 -0.5q16 -4 16 -20v-284q0 -8 -4 -12l-3 -3 q-1 -1 -5 -3q-10 -2 -13 -2h-7h-7h-7zM1159 479h99l2 7q1 4 2.5 7t3 6.5t3.5 4.5t4 0q63 -21 80 -21q34 0 55 8q26 18 26 47v282q2 28 -20.5 46.5t-53.5 20.5q-46 1 -79 -34v111h-122v-485zM1281 563v245q0 17 17 17q16 0 16 -18v-244q0 -20 -16 -20q-17 0 -17 20z" />
<glyph unicode="1" d="M358 196q0 -14 6.5 -19.5t25.5 -5.5l297 2q118 1 336 1q79 0 108 -7t35 -7q26 0 26 39v24q-1 7 -1 22q0 27 16 78q18 54 17 84q-1 29 -27.5 38.5t-37.5 -9.5q-2 -2 -2 -7q-10 -58 -22 -86t-35 -46q-69 -53 -234 -53q-16 -2 -66 0h-53q-60 0 -85.5 24t-25.5 75v276 q0 52 35 52h216q97 0 123 -74q0 -1 1.5 -9t3 -12t4 -11t6.5 -11t9 -6q14 -6 25 2.5t11 25.5q0 25 -4 60q-5 53 -5 69q0 19 5 69q0 1 0.5 3.5t1 5.5t0.5 6q4 28 4 45q-1 14 -9.5 24.5t-22.5 10.5q-16 0 -22 -7t-7 -30q-4 -44 -31 -68t-69 -24h-243q-17 0 -24 7.5t-7 28.5 l-1 260q0 34 9 45.5t44 19.5q43 8 121 8q120 0 172 -9q77 -14 90 -23q20 -13 22 -14q8 -6 11 -17q1 -5 5 -17q1 -2 1 -17q-1 -6 -1 -16q0 -29 22 -29q15 0 26 10.5t11 27.5q0 13 -3 46q-4 25 -4 49q0 19 6 43t6 27q0 26 -22.5 31.5t-63.5 -4.5q-122 -17 -332 -17 q-61 0 -283 5q-27 1 -65 1q-22 0 -24 -23q-1 -12 0 -19t6.5 -10t9.5 -4t14 -3q96 -9 96 -141v-640q0 -63 -35 -95q-12 -10 -32 -18q-24 -8 -53 -8q-32 0 -32 -29z" />
<glyph unicode="2" d="M96 717q0 116 36 225.5t102 197.5q141 188 351 258q105 37 224 38h14q141 -1 273.5 -56.5t231.5 -155.5t153.5 -233t54.5 -274q0 -143 -55.5 -276.5t-154.5 -232.5t-232.5 -154.5t-276.5 -55.5t-276.5 55.5t-232.5 154.5q-100 100 -156 234t-56 275zM514 373 q0 -9 4 -12.5t18 -3.5q121 0 202 1t228 1q46 0 74 -5l23 -5q18 0 18 25v33q0 13 11 54q12 37 11 57q0 13 -10 20.5t-21 6.5t-14 -11l-1 -2q-14 -71 -38 -90q-47 -36 -160 -36q-12 -2 -45 0h-35q-41 0 -58.5 17t-17.5 51v187q0 36 24 36h147q24 0 40.5 -6t25.5 -17t13.5 -21 t7.5 -24q5 -19 21 -17t16 20q0 11 -3 41t-3 47q0 13 6 79q3 32 -20 32q-11 0 -15 -4.5t-5 -20.5q-6 -62 -68 -62h-166q-11 0 -15.5 5t-4.5 19l-1 177q0 22 6.5 30.5t29.5 14.5q32 5 82 5q67 0 127 -7q21 -3 37 -9q4 -2 23 -10q10 -4 17 -25v-26q2 -20 15 -20q10 0 18 7t8 19 q0 10 -3 32t-3 33q0 9 5 29q4 13 4 18q0 22 -22 22q-14 0 -37 -4q-85 -11 -226 -11l-192 3q-18 1 -44 1q-17 0 -17 -17q0 -3 1 -4v-5q0 -7 3 -8l3 -2q7 -4 14 -4q65 -6 65 -96v-435q0 -41 -19 -61.5t-47 -20.5q-3 -1 -15 -1q-22 0 -22 -20z" />
<glyph unicode="3" horiz-adv-x="1632" d="M96 717q0 141 56 275t156 234q99 99 232.5 154.5t276.5 55.5t276.5 -55.5t232.5 -154.5t154.5 -232.5t55.5 -276.5q0 -195 -96 -361q-97 -168 -263 -264t-360 -96q-193 0 -360 96q-168 96 -264.5 263t-96.5 362zM442 539q8 -11 19 -11h125q19 0 35 25l135 240 q-3 3 -86 151q-14 23 -35 23h-125q-13 0 -16 -6q-10 -11 0 -21l84 -147l-136 -236q-3 -12 0 -18zM723 618l180 -325q9 -27 33 -27h127q24 0 16 29l-176 323q-1 0 -1 2q0 1 1 1l279 489q3 11 0 20q-9 9 -19 9h-125q-19 0 -34 -23z" />
<glyph unicode="4" horiz-adv-x="1628" d="M96 715q0 141 55 274.5t153 232.5q97 99 229.5 155t273.5 57h16q140 -1 272 -56.5t232 -155.5q98 -99 152.5 -232t54.5 -275q0 -143 -55.5 -276.5t-154.5 -232.5t-232.5 -154.5t-276.5 -55.5t-276.5 55.5t-232.5 154.5t-154.5 232.5t-55.5 276.5zM467 723q0 -47 12 -90 q10 8 156 140.5t153 139.5q-4 3 -65 58.5t-66 60.5q-89 -44 -139.5 -127t-50.5 -182zM492 594q45 -110 145 -168v299q-112 -98 -145 -131zM672 406q67 -26 110 -29h66q91 8 166 59.5t114 134.5h-456v-165zM694 1049l131 -120q36 -33 70.5 -64.5t48 -44t14.5 -13.5v233 q-65 31 -143 31q-65 0 -121 -22zM995 608h150q18 55 18 115q0 91 -45 170.5t-123 126.5v-412z" />
<glyph unicode="5" d="M96 713q0 193 96 360t263 263t362 96q143 0 276.5 -55.5t232.5 -154.5t154.5 -232.5t55.5 -276.5q0 -195 -96 -361q-97 -168 -263 -264t-360 -96q-195 0 -361 96q-167 96 -263.5 263t-96.5 362zM414 528q0 -133 12 -196q9 -33 33 -54.5t57 -25.5q84 -10 305 -10 q224 0 307 10q34 5 58 26.5t31 53.5q16 57 16 196q0 136 -16 191q-7 33 -31.5 55t-57.5 25q-100 12 -307 12q-203 0 -305 -12q-33 -3 -57 -24.5t-33 -55.5q-12 -61 -12 -191zM475 664h57v-314h56v314h59v53h-172v-53zM547 1231q4 -16 35 -105q25 -69 32 -112v-152h54v152 l69 217h-55l-37 -148l-41 148h-57zM651 406q0 -15 6 -39q11 -23 35 -23q21 0 56 35v-29h47v273h-47v-209q-19 -25 -31 -25q-11 0 -15 12v222h-51v-217zM737 948q0 -43 17 -63q20 -29 57 -29q35 0 54.5 24.5t19.5 67.5v99q0 45 -19.5 69.5t-54.5 24.5q-36 0 -57 -31 q-17 -17 -17 -63v-99zM786 942q0 -41 25 -41t25 41v117q0 37 -25 37t-25 -37v-117zM838 350h51v27q23 -33 49 -33q27 0 36 17.5t9 68.5v111q0 51 -9 68.5t-36 17.5q-25 0 -49 -31v121h-51v-367zM889 403v166q13 13 26 13q21 0 21 -39v-113q0 -41 -21 -41q-12 0 -26 14z M926 920q0 -34 8 -49t29 -15q23 0 55 35v-29h51v275h-51v-209q-16 -27 -29 -27q-6 0 -14 14v222h-49v-217zM1020 438q0 -41 16 -63q28 -31 62 -31q37 0 61 31q10 27 10 31v36h-51v-30q-3 -23 -20 -23q-27 0 -27 41v47h98v55q0 50 -14 64q-24 31 -57 31q-34 0 -62 -31 q-16 -22 -16 -64v-94zM1071 516v27q0 39 27 39q24 0 24 -39v-27h-51z" />
<glyph unicode="6" d="M96 717q0 142 56 277q55 132 156 233q100 100 233.5 155.5t275.5 55.5t275.5 -55.5t233.5 -155.5q99 -99 154.5 -233t55.5 -277t-55.5 -276.5t-154.5 -232.5t-232.5 -154.5t-276.5 -55.5t-276.5 55.5t-232.5 154.5q-100 99 -156 233t-56 276zM322 717q0 -123 86 -209 t208 -86q68 0 128 28.5t100 79.5l-37 88q-28 -53 -79 -83.5t-112 -30.5q-89 0 -152 62.5t-63 150.5q0 89 63 152t152 63q66 0 120 -35t77 -92l94 -215l11 -25q31 -72 78 -105.5t118 -33.5q85 0 142 48.5t57 123.5q0 65 -33 101.5t-119 66.5q-93 29 -104 40q-26 23 -26 38 q-1 2 -1 16q0 32 23 54t57 22q48 0 84 -47l63 33q-50 86 -143 86q-73 0 -116.5 -41t-43.5 -109q0 -62 38.5 -98.5t137.5 -69.5q61 -19 82 -37t21 -53q0 -43 -35 -71t-88 -25q-47 1 -72.5 21.5t-52.5 80.5l-96 225q-37 86 -109 134.5t-164 48.5q-122 0 -208 -87t-86 -210z " />
<glyph unicode="7" d="M96 711q0 142 56 277q55 132 156 233q100 100 233.5 155.5t275.5 55.5t275.5 -55.5t233.5 -155.5q99 -99 154.5 -233t55.5 -277t-55.5 -276.5t-154.5 -232.5t-232.5 -154.5t-276.5 -55.5t-276.5 55.5t-232.5 154.5q-100 99 -156 233t-56 276zM565 809q0 -91 58 -161 t147 -89l51 -203l51 203q88 19 145.5 89.5t57.5 160.5q0 104 -75 179t-179 75q-106 0 -181 -75t-75 -179zM631 809q0 78 55.5 134t134.5 56q78 0 134.5 -56t56.5 -134q0 -79 -56.5 -135t-134.5 -56q-79 0 -134.5 55.5t-55.5 135.5zM715 809q0 -44 31 -75.5t75 -31.5 q43 0 74 31.5t31 75.5q0 43 -31 73.5t-74 30.5q-44 0 -75 -30.5t-31 -73.5z" />
<glyph unicode="8" d="M96 721q0 141 56 275t156 234q99 99 232.5 154.5t276.5 55.5t276.5 -55.5t232.5 -154.5t154.5 -232.5t55.5 -276.5q0 -194 -96 -361q-97 -168 -263 -264t-360 -96q-193 0 -360 96q-168 96 -264.5 263t-96.5 362zM530 641q68 -252 285 -264q81 3 140 34q58 29 90.5 74 t47.5 113q24 102 2 221l-3 11v-1q4 -25 -18 -57l-7 -10q-4 44 -42 103q-67 103 -171 181l-23 17q-1 -13 -9 -27q-1 -2 -32 -38q-28 -28 -90 -86q-56 -53 -81 -89q-23 -34 -37.5 -80t-16.5 -83q-2 -28 -8.5 -32.5t-22.5 9.5z" />
<glyph unicode="9" d="M96 719q0 141 56 275t156 234q99 99 232.5 154.5t276.5 55.5t276.5 -55.5t232.5 -154.5t154.5 -232.5t55.5 -276.5q0 -195 -96 -361q-97 -168 -263 -264t-360 -96q-193 0 -360 96q-168 96 -264.5 263t-96.5 362zM385 682q-3 -61 37 -97t106 -30q33 6 52 24q5 3 13 11 q2 2 3 2q-6 -26 -7.5 -44t0.5 -35.5t13 -26.5t31 -9h47q3 17 11 69q7 60 18 111q9 46 10 58t-2 51q-17 83 -113 88q-105 8 -172 -59q-44 -53 -47 -113zM494 706q5 41 32 62q9 9 31 12q34 0 48 -16.5t8 -57.5q-7 -45 -34.5 -63.5t-66.5 -1.5q-23 24 -18 65zM748 647 q-10 -55 7 -70.5t85 -11.5q7 38 28 189q10 48 0 61q-10 22 -53 22q-35 0 -39 -1q-10 -70 -13 -89zM782 895q6 -21 29.5 -29t44.5 2q21 7 31 25t4 39q-8 20 -37 26h-18q-63 -20 -54 -63zM895 618q-3 -33 19 -45t77 -10l12 67l9 51q0 7 2 15q10 -14 19 -32l18 -31 q29 -53 51 -66q22 -16 63 -2t45 45q-35 6 -59 42q-1 3 -37 65q4 3 28 26.5t39 37.5q51 48 66 65q-1 -1 -39 1q-48 3 -75 -5q-13 -6 -31 -25l-55 -59q-13 -16 -29 -29q2 23 12 78q0 5 1 6t1 5t1 5q11 48 9 77q-2 28 -21 36q-16 10 -77 8v-4q-2 -5 -6 -41q0 -10 -10 -64 l-22 -141q0 -2 -1.5 -11t-4 -27t-5.5 -38z" />
<glyph unicode=":" horiz-adv-x="1634" d="M227 881q2 165 97.5 296.5t257.5 194.5q219 84 401 29q164 -50 271 -163q99 -105 118 -253q15 -159 -36 -313t-146 -234q-54 -46 -131 -71q-75 -30 -164.5 -24t-142.5 48q-6 4 -13 19q-17 32 -34 20q-73 -310 -144 -430h-94q-10 50 -11.5 89.5t8 95.5t23.5 111t45 161 q52 172 52 260q0 25 -15 92t-8 110.5t41 86.5q73 96 158 74q39 -10 61 -55q38 -83 2 -186l-3 -7q-3 -8 -5 -15q-10 -26 -12 -32q-24 -66 -33 -95q-29 -88 3 -141q8 -16 24 -29q19 -19 61 -28t82 -3q59 12 108 61t77 124q55 148 30 313q-12 79 -47.5 141.5t-85.5 92.5 q-85 53 -186.5 59.5t-177.5 -33.5q-180 -86 -241 -250q-31 -89 -26 -152t48 -137q40 -73 19 -117q-9 -17 -32 -40q-104 42 -151.5 121.5t-47.5 208.5z" />
<glyph unicode="&#x3c;" horiz-adv-x="650" d="M61 635l488 474l33 -34l-453 -440l453 -438l-33 -34z" />
<glyph unicode="&#x3e;" horiz-adv-x="650" d="M66 196l452 441l-452 437l33 35l487 -472l-487 -475z" />
<glyph unicode="?" d="M96 713q0 141 56 275t156 234q99 99 232.5 154.5t276.5 55.5t276.5 -55.5t232.5 -154.5t154.5 -232.5t55.5 -276.5q0 -195 -96 -361q-97 -168 -263 -264t-360 -96q-193 0 -360 96q-168 96 -264.5 263t-96.5 362zM453 430q0 -38 28 -66t68 -28h541q39 0 66.5 27.5 t27.5 66.5v541q0 39 -27.5 66.5t-66.5 27.5h-541q-40 0 -68 -28t-28 -66v-541zM537 449v307h65q-8 -30 -8 -62q0 -91 66.5 -156t158.5 -65q94 0 161 65t67 156q0 35 -9 62h64v-307q0 -12 -9 -21.5t-20 -9.5h-508q-12 0 -20 9.5t-8 21.5zM672 702q0 58 44 100t103 42 q61 0 104.5 -41.5t43.5 -100.5t-43.5 -101t-104.5 -42q-60 0 -103.5 42.5t-43.5 100.5zM954 872v80q0 12 9 21.5t22 9.5h84q13 0 23 -9.5t10 -21.5v-80q0 -13 -9.5 -22.5t-23.5 -9.5h-84q-13 0 -22 9t-9 23z" />
<glyph unicode="@" d="M96 719q0 142 56 277q55 132 156 233q100 100 233.5 155.5t275.5 55.5t275.5 -55.5t233.5 -155.5q99 -99 154.5 -233t55.5 -277t-55.5 -276.5t-154.5 -232.5t-232.5 -154.5t-276.5 -55.5t-276.5 55.5t-232.5 154.5q-100 99 -156 233t-56 276zM541 748q0 -123 71 -224 q58 -88 105 -86q20 1 52 15q37 14 58 14q20 0 59 -14q32 -14 53.5 -13.5t41.5 14.5q3 3 5 4l2 2q2 1 3 2q6 6 14 13l6 6q1 1 7 9q0 2 6 7q1 1 1 2l8 11l9 12q18 26 31 54l9 20q3 9 6 15v1q5 5 -8 10q-34 13 -58 49.5t-25 82.5q0 32 15.5 65t36.5 49q14 10 22 15 q-45 65 -123 65q-35 3 -76 -13q-51 -17 -53 -17q-11 0 -48 15q-78 30 -142 -10q-88 -52 -88 -175zM813 956q57 -6 100 48q41 47 35 108q-58 -5 -99.5 -52.5t-35.5 -103.5z" />
<glyph unicode="A" horiz-adv-x="1570" d="M97 384q0 17 22 7q313 -180 682 -180q246 0 483 92q11 2 37 14q12 5 23 0q11 -6 10 -15.5t-11 -16.5q-43 -35 -59 -41q-102 -62 -235 -97.5t-263 -35.5q-193 0 -368 67.5t-314 194.5q-7 4 -7 11zM477 748q0 177 158 239q54 30 166 45q107 8 110 8v21q0 19 1 22 q0 41 -5 59q-5 16 -14 27q-29 39 -80 39h-12q-92 -11 -111 -92q-10 -24 -24 -24l-146 14q-24 10 -18 33q21 104 99 161t200 64h30q65 0 123 -18q57 -18 95 -50.5t50 -69.5q2 -7 6 -17q1 -1 1 -3t1 -3q0 -3 2 -5q1 -1 1 -4q5 -11 6 -40q2 -28 3 -36v-42q-1 -7 -1 -40v-233 q0 -55 29 -96q2 -3 31 -39q10 -19 -4 -37q-11 -11 -115 -96q-11 -14 -33 -5q-43 32 -71 78l-13 19q-62 -59 -117 -83t-127 -24q-102 0 -161.5 61.5t-59.5 166.5zM690 774q0 -48 25 -77t67 -29h19q57 17 82 69q28 37 28 99v86q-73 0 -110 -9q-111 -33 -111 -139zM1216 367 q0 6 9 12q31 21 59 31q46 12 92 12q24 0 27 -1q57 -5 65 -20q9 -9 9 -22v-6q-4 -54 -30 -110.5t-63 -88.5q-7 -7 -12 -7q-13 0 -6 13q44 115 44 153q0 13 -5 21q-10 13 -66 13q-35 0 -87 -6q-20 -3 -23 -3q-13 0 -13 9z" />
<glyph unicode="B" horiz-adv-x="1286" d="M96 600v608q0 50 36 85.5t87 35.5q49 0 85 -35.5t36 -85.5v-608q0 -101 72 -172.5t172 -71.5h121q103 0 173 61t70 150q0 83 -37.5 148t-83.5 65h-243q-51 0 -87 36t-36 87q0 50 36 85.5t87 35.5h243q152 0 258.5 -133t106.5 -324q0 -121 -65 -228q-66 -106 -178.5 -167 t-243.5 -61h-121q-130 0 -243 66t-179 179t-66 244z" />
<glyph unicode="C" horiz-adv-x="1490" d="M96 586v178q0 10 9 19.5t20 9.5h313l-135 -236h-178q-12 0 -20.5 8.5t-8.5 20.5zM199 166l14 119q0 10 9.5 14.5t17.5 -0.5l77 -45q22 -16 5 -33l-101 -65q-22 -16 -22 10zM250 356q0 10 4 17l358 618q4 10 16.5 14t24.5 -1l76 -46q24 -12 12 -40l-358 -619 q-4 -10 -16.5 -13.5t-24.5 1.5l-76 45q-16 7 -16 24zM616 557l136 236h77l111 -236h-324zM706 1283q0 17 9 22q1 1 3 1q12 0 39 -38q19 -26 83 -136q30 -57 73 -126q37 -57 117 -205t127 -244q12 -21 0 -42t-37 -28q-6 0 -14 -5q-23 -12 -40.5 -2t-38.5 48q-35 63 -105 220 l-53 121q0 5 -5 12q-5 9 -12 29l-18 38l-21 47q-71 151 -99 247q-8 32 -8 41zM1092 793h276q12 0 20.5 -8.5t9.5 -20.5v-178q0 -29 -30 -29h-156q-2 2 -4 12q-3 10 -6 13q-7 15 -13.5 29t-9.5 20l-3 6q-10 17 -41 76q-15 29 -26 50q-5 7 -9 16t-6 11zM1107 412q0 5 1 6 q3 13 16 20l45 23q6 3 12 3l11 -2q12 -5 16 -16l37 -69q13 -29 -10 -49l-33 -19q-27 -11 -45 13l-43 73q-7 7 -7 17zM1197 249q0 19 20 42q34 14 48 14l16 -3q41 -14 47 -94q1 -3 1 -32q0 -21 -1 -23v-24q-4 12 -25 22q-71 31 -91 60q-15 20 -15 38z" />
<glyph unicode="D" horiz-adv-x="1388" d="M96 719q0 120 46 230q47 112 128 193q82 82 193.5 128.5t230.5 46.5t231 -46.5t194 -128.5t128.5 -194t46.5 -229q0 -119 -46.5 -231t-128.5 -194t-194 -128.5t-231 -46.5t-230.5 46.5t-193.5 128.5t-128 194t-46 231zM197 694q3 -179 131 -313q74 113 181 194.5 t236 124.5q-15 28 -30 72q-221 -82 -449 -82l-33 2q-13 0 -29 2h-7zM199 792h67q210 0 406 72q-84 156 -207 297q-106 -57 -176 -153.5t-90 -215.5zM401 311q140 -92 293 -92q93 0 158 25q-14 182 -74 362q-234 -80 -377 -295zM565 1198q116 -142 199 -297q148 66 276 176 q-70 67 -160 103.5t-186 36.5q-68 0 -129 -19zM807 809l18 -40q4 -14 17 -42q99 18 162 18q72 0 190 -26q0 147 -88 280q-139 -118 -299 -190zM874 631q52 -149 74 -342q91 52 152.5 139t83.5 193q-89 22 -180 22q-66 0 -130 -12z" />
<glyph unicode="E" horiz-adv-x="1644" d="M96 268v903h436q164 0 236 -96q41 -56 41 -135q0 -85 -45 -133q-16 -27 -66 -51q140 -60 140 -215q0 -66 -29.5 -124t-77.5 -89q-37 -28 -100 -49q-83 -11 -129 -11h-406zM303 426h193q61 0 92 16q59 26 59 113q0 70 -59 96q-22 15 -88 15h-197v-240zM303 817h193 q63 0 98 25.5t35 75.5q0 62 -49 83q-54 15 -107 15h-170v-199zM907 614q0 162 86 254.5t236 92.5q73 0 151 -29q70 -38 111 -96q33 -56 46 -115.5t13 -147.5h-473q0 -94 68 -135q38 -26 92 -26q52 0 94 30q20 12 35 43h172q-6 -58 -61 -116q-81 -93 -244 -93q-129 0 -229 76 q-97 81 -97 262zM1044 1042v93h361v-93h-361zM1081 684h291q-6 64 -43 104q-43 33 -100 33q-69 0 -103 -37q-33 -39 -45 -100z" />
<glyph unicode="F" horiz-adv-x="862" d="M96 674v239h193v119q0 130 83.5 222t202.5 92h193v-236h-193q-18 0 -32.5 -22t-14.5 -52v-123h240v-239h-240v-582h-239v582h-193z" />
<glyph unicode="G" horiz-adv-x="854" d="M96 358q0 63 35 117t98 90q-22 47 -22 107q0 61 26 119q-104 84 -104 213q0 114 80 195t192 81q72 0 146 -47l198 110v-184l-96 -51q37 -46 37 -104q0 -115 -81 -196t-195 -81h-9q-4 0 -7 -19q-3 -20 -3 -36q0 -37 10 -56h27q138 0 235 -75.5t97 -182.5t-97 -182.5 t-235 -75.5t-235 75.5t-97 182.5zM281 358q0 -41 43 -69q44 -29 104 -29q62 0 104.5 28.5t42.5 69.5t-43 71t-104 30q-60 0 -103.5 -30t-43.5 -71zM281 1004q0 -54 37.5 -92t91.5 -38t91.5 38t37.5 92q0 52 -38.5 90.5t-90.5 38.5t-90.5 -38.5t-38.5 -90.5z" />
<glyph unicode="H" horiz-adv-x="1427" d="M96 991q0 141 98.5 239.5t239.5 98.5q108 0 184 -55q43 8 93 8q153 0 285 -75q131 -76 206.5 -206.5t75.5 -281.5l-2 -78q57 -85 57 -192q0 -141 -98.5 -239.5t-239.5 -98.5q-101 0 -180 51q-53 -12 -104 -12q-154 0 -284 76q-132 75 -208 206t-76 287q0 53 9 88 q-56 77 -56 184zM370 511l2 -25q8 -43 59 -90q102 -96 279 -96q47 0 52 1q64 3 131 32q125 57 160 173q6 21 6 41q0 29 -17 71q-26 65 -78 101q-51 32 -101.5 50t-152.5 40l-11 3q-2 0 -10 2t-10 2q-34 6 -35 7q-86 17 -93 75v8q0 38 45 70q32 22 72 28q12 2 24 2 q30 0 66 -11q50 -16 95 -59q67 -64 95 -64h2q22 3 41 20t26 41q8 25 -5 56.5t-43 57.5q-110 95 -277 95q-29 0 -59 -3q-108 -10 -175.5 -76t-74.5 -168q-1 -2 -1 -17q0 -61 44 -111q78 -90 266 -122q75 -13 126.5 -39t53.5 -59q0 -34 -31 -65.5t-86 -37.5l-34 -2 q-65 0 -104 20t-88 78q-39 42 -85 42h-2q-33 -2 -52.5 -21.5t-19.5 -49.5z" />
<glyph unicode="I" horiz-adv-x="1232" d="M96 1243q0 58 41.5 100.5t98.5 42.5q58 0 99.5 -42t41.5 -101t-41.5 -100t-99.5 -41t-99 41t-41 100zM121 225v793h229v-793h-229zM461 225v793h229v-37q62 30 135 30h13q74 -3 147 -38q68 -38 111 -112t43 -152v-484h-226v484q0 17 -13 39t-26 26q-29 17 -59 17 q-23 0 -45 -9q-45 -18 -70 -40l-10 -9v-508h-229z" />
<glyph unicode="J" horiz-adv-x="1886" d="M97 511q0 98 40 191q70 170 295 265l-100 198l243 31l82 -166l15 2q162 28 317 28h9q226 -1 410 -65t309 -179q45 -43 57 -61l18 -24l-778 -221l-180 364q55 9 110 9q77 0 133 -13l74 -139l264 70q-5 2 -19 13q-157 99 -376 128q-23 4 -81 4l-67 -2q-71 -6 -159 -29 l213 -432l-779 -225q-1 1 -7 18q-41 102 -42 208q-1 3 -1 27zM345 580q0 -33 7 -46l6 -18l258 72l-114 235q-157 -100 -157 -243z" />
<glyph unicode="K" horiz-adv-x="1636" d="M96 590v766h262v-373q194 111 461 111q141 0 275.5 -38.5t235.5 -105.5q99 -67 155.5 -158.5t56.5 -187.5q0 -133 -96 -247q-97 -114 -264.5 -180t-362.5 -66q-196 0 -355 64q-165 63 -263.5 173.5t-104.5 241.5zM358 604q0 -137 134.5 -232.5t326.5 -95.5t326.5 95.5 t134.5 232.5q0 87 -62 164q-62 76 -169 120t-230 44q-122 0 -230 -44q-107 -44 -169 -120.5t-62 -163.5zM516 604q0 89 88 151t215 62q126 0 214.5 -62t88.5 -151q0 -90 -89 -153.5t-214 -63.5q-127 0 -215 63t-88 154z" />
<glyph unicode="L" horiz-adv-x="1572" d="M248 342q56 -2 59 -2q177 0 305 104q-80 1 -142.5 48.5t-86.5 123.5q24 -6 45 -6q13 0 66 8q-87 19 -143 87t-56 155v2q55 -28 115 -28q-53 32 -82 86t-29 118t33 125q94 -117 226 -184.5t282 -73.5q-6 24 -6 53q0 103 72 176.5t173 73.5q106 0 181 -78q63 10 157 58 q-31 -86 -108 -135q67 7 141 39q-51 -72 -123 -129v-29q0 -212 -116 -391q-131 -197 -338 -272q-115 -42 -246 -42q-203 0 -379 113z" />
<glyph unicode="M" horiz-adv-x="1259" d="M96 590v244q0 59 39.5 99t97.5 40q46 0 81.5 -30t47.5 -77q62 74 154 74q68 0 122 -41.5t71 -105.5q73 73 188 73q110 0 189 -78t79 -188v-500h-534v279h-322v211h-213zM111 1143q0 47 33.5 80.5t80.5 33.5t81 -33.5t34 -80.5q0 -49 -34 -84t-81 -35t-80.5 35t-33.5 84z M365 1143q0 62 44 106.5t107 44.5q62 0 107 -45t45 -106q0 -63 -45 -107.5t-107 -44.5q-63 0 -107 44.5t-44 107.5zM700 1143q0 80 57.5 137t139.5 57q81 0 138 -56.5t57 -137.5q0 -84 -56 -141.5t-139 -57.5q-82 0 -139.5 58t-57.5 141z" />
<glyph unicode="N" horiz-adv-x="1626" d="M96 719q0 129 93 221q92 92 221 92q130 0 221.5 -91t91.5 -222t-91.5 -222t-221.5 -91q-129 0 -221.5 92t-92.5 221zM907 719q0 129 92 221t220 92q129 0 221 -91.5t92 -221.5t-92 -221.5t-221 -91.5q-128 0 -220 92t-92 221z" />
<glyph unicode="O" horiz-adv-x="835" d="M96 809v145q76 26 117 59t68 89q23 42 36 129h144v-238h239v-184h-239v-264q0 -58 3.5 -83.5t15.5 -48.5t36.5 -32.5t69.5 -9.5q85 0 155 49v-164q-89 -36 -130.5 -45.5t-104.5 -9.5q-44 0 -111 18q-53 17 -92 53q-42 31 -51 70q-16 31 -16 107v360h-140z" />
<glyph unicode="P" horiz-adv-x="1431" d="M96 217l248 1135h557q135 0 220.5 -82.5t85.5 -210.5q0 -45 -9 -94q-38 -171 -163.5 -272t-297.5 -101h-231l-82 -375h-328zM225 80l15 59h274l80 375h233q172 0 298.5 102t162.5 271q10 39 10 92q0 64 -26 125q66 -76 66 -185q0 -33 -11 -94q-38 -170 -164 -271 t-297 -101h-235l-78 -373h-328zM551 809h162q60 3 111.5 48t68.5 108q0 10 4 14q1 1 1 18q0 7 -5 45q-11 34 -42 56t-69 22h-161z" />
<glyph unicode="Q" horiz-adv-x="1363" d="M98 762v20q6 154 89 290q84 135 220.5 212.5t294.5 77.5q154 0 288 -77q131 -77 204.5 -206t73.5 -277v-20q-6 -147 -80.5 -274.5t-200.5 -208.5q32 -41 71 -69t64 -28h21v-98l-16 -8q-37 -19 -96 -19h-7q-32 2 -68 19q-60 28 -127 133q-83 -26 -165 -26 q-117 0 -223.5 44.5t-184.5 124.5q-75 77 -116.5 179.5t-41.5 210.5zM389 777q0 -113 37 -205q37 -94 104.5 -149.5t147.5 -55.5q37 0 74 14l-27 47q-15 21 -42 34t-48 10l-17 -3v100l9 4q21 9 62 11h10q115 0 186 -107q49 61 78 144.5t32 171.5v17q0 108 -36 202 q-37 94 -104.5 149.5t-147.5 55.5q-124 0 -216.5 -124t-101.5 -300v-16z" />
<glyph unicode="R" horiz-adv-x="1441" d="M96 264q0 69 49 118q48 48 117 48t117.5 -48.5t48.5 -117.5t-48.5 -117.5t-117.5 -48.5t-117.5 48.5t-48.5 117.5zM96 686v240q222 0 415 -110q192 -111 302.5 -303.5t110.5 -414.5h-244q0 244 -170 414q-84 84 -191 129t-223 45zM96 1110v240q246 0 480 -97t406 -269 t269 -406t97 -480h-240q0 198 -78.5 387.5t-217.5 328.5t-328.5 217.5t-387.5 78.5z" />
<glyph unicode="S" horiz-adv-x="1667" d="M96 506v203h254v-203q0 -33 22.5 -56.5t55.5 -23.5q32 0 54 23.5t22 56.5v461q0 136 97.5 233.5t234.5 97.5q136 0 232.5 -97.5t96.5 -233.5v-93l-151 -47l-105 47v93q0 31 -21.5 54t-51.5 23q-32 0 -54 -23t-22 -54v-471q0 -135 -97 -228.5t-235 -93.5t-235 97t-97 235z M909 496v209l105 -48l151 48v-209q0 -34 22 -56t54 -22q34 0 56 22t22 56v202h254v-202q0 -138 -97 -235t-235 -97q-136 0 -234 97.5t-98 234.5z" />
<glyph unicode="T" horiz-adv-x="1093" d="M96 641v502q0 57 41.5 98t98.5 41q61 0 101 -40t40 -99v-139h483q57 0 98 -42.5t41 -103.5q0 -57 -41 -98t-98 -41h-483v-78q0 -83 53.5 -145t122.5 -62h309q59 0 98 -39t39 -100q0 -58 -41 -98.5t-98 -40.5h-313q-186 0 -318.5 142t-132.5 343z" />
<glyph unicode="U" horiz-adv-x="1396" d="M96 506v444q0 159 111.5 272t269.5 113h268q85 -10 172.5 -72t122.5 -139l6 -13q15 -31 25 -76q1 -15 10 -66l4 -25q5 -38 21 -51q17 -18 89 -20q69 -2 77 -7l18 -14l13 -23v-323q0 -158 -113 -271.5t-270 -113.5h-443q-158 0 -269.5 113t-111.5 272zM410 508 q0 -30 21.5 -52t51.5 -22h432q30 0 52 22t22 52q0 31 -21.5 52.5t-52.5 21.5h-432q-31 0 -52 -21.5t-21 -52.5zM410 948q0 -31 21 -52.5t52 -21.5h211q31 0 52.5 21.5t21.5 52.5q0 30 -22 52t-52 22h-211q-30 0 -51.5 -22t-21.5 -52z" />
<glyph unicode="V" horiz-adv-x="1613" d="M96 1012q6 6 7 8t11 12l10 12q59 68 142 139q155 133 256 152q17 3 31 3q54 0 92.5 -46t53.5 -104q11 -40 37 -195q0 -6 4 -18l3 -18l3 -21q6 -40 16 -88q48 -176 67 -221q24 -62 52 -62q61 0 198 254q29 57 31 110l1 10q0 95 -92 107q-1 1 -12 1q-40 0 -94 -33 q23 141 136 237.5t251 96.5q104 0 161 -59t57 -161q0 -48 -7 -77q-21 -119 -81 -249q-65 -142 -183.5 -294.5t-279.5 -286.5q-76 -64 -122 -89.5t-87 -25.5h-1q-79 0 -154 86q-29 32 -46 70q-25 50 -123 372q-99 322 -121 347q-11 14 -32 14q-29 0 -82 -30l-33 -21l-12 -10z " />
<glyph unicode="W" horiz-adv-x="1441" d="M96 713q0 116 56 254l299 -815q-162 76 -258.5 228.5t-96.5 332.5zM201 1055q87 132 224 206t296 74q242 0 424 -161h-12q-42 0 -72.5 -33.5t-30.5 -77.5q0 -9 2 -23q4 -28 9 -39l7 -16q1 -3 10 -18q2 -4 4.5 -7.5t4 -5.5t1.5 -3q2 -5 12 -18l12 -18q53 -92 53 -170 q0 -77 -49 -202l-62 -207l-225 668l70 8q15 2 21 15q6 12 -2 24t-24 12q-125 -8 -165 -8l-166 8q-15 0 -22 -12q-8 -12 -3.5 -24.5t21.5 -14.5l67 -8l96 -265l-137 -409l-225 674l70 8q17 2 23 15q6 12 -2 24t-23 12q-130 -8 -166 -8h-41zM547 115l184 542l193 -524l2 -2 q0 -4 4 -4q-84 -37 -209 -37q-103 0 -174 25zM1034 174l191 549q49 113 49 225q0 52 -4 64q78 -146 78 -299q0 -167 -85 -312t-229 -227z" />
<glyph unicode="X" horiz-adv-x="1261" d="M96 571v74h269v-74h-93v-450h-84v450h-92zM180 1329h96l66 -231h4l64 231h98l-115 -338v-239h-98v227zM397 184v324h78v-295q0 -2 1 -3q0 -2 1 -5v-6l2 -9q4 -4 19 -4q8 0 22.5 9t20.5 18v295h77v-387h-77v45q-22 -28 -43 -37q-21 -12 -45 -12q-30 0 -41 14 q-15 24 -15 53zM516 858v221q0 49 33 82q44 29 96 29q55 0 88 -33q33 -25 33 -78v-221q0 -58 -33 -84q-35 -35 -92 -35t-92 35q-33 28 -33 84zM604 850q0 -16 10 -26.5t27 -10.5q15 0 26 11t11 26v233q0 15 -11 24t-26 9q-20 0 -27 -10q-10 -7 -10 -23v-233zM678 121v524h78 v-166q13 13 20 18q15 15 49 15q33 0 56 -23q18 -32 18 -73v-213q0 -86 -70 -86q-15 0 -41 8q-20 14 -32 25v-29h-78zM756 195q8 -11 18 -15l9 -2q4 0 5 -1l5 -1q9 0 22 10q2 14 2 27v199q0 41 -29 41l-2 -1h-3q-1 -1 -4 -1l-9 -2l-7 -5l-3 -2l-4 -4v-243zM836 821v359h90 v-330q0 -18 4 -23.5t16 -5.5q29 0 53 33v326h88v-428h-88v47q-12 -14 -53 -41q-34 -15 -47 -15q-30 0 -46.5 21t-16.5 57zM940 231v175q0 46 33.5 79t83.5 33q53 0 82 -29q28 -34 28 -83v-101h-147v-74q0 -33 8 -41q7 -10 27 -10q12 0 24 6q8 8 8 45v19h80v-19 q0 -58 -28 -92q-28 -28 -88 -28q-50 0 -82 32q-29 38 -29 88zM1020 369h67v37q0 14 -8 36q-13 7 -24 7q-14 0 -27 -7q-8 -8 -8 -36v-37z" />
<glyph unicode="Y" horiz-adv-x="1904" d="M96 1124v109h764v-8q2 0 2 -4l-2 -15v-82h-229q62 -92 232 -310l81 -105l305 276h-184l-25 107h670v-7l-47 -71h-4l-19 -29h-120l-41 -8q-25 -6 -132 -86q-120 -93 -213 -178q-97 -88 -108 -119q-2 -30 -2 -52q0 -183 8 -253q42 -2 119 -2q67 0 121 -2l-4 -78 q-20 4 -394 4q-89 0 -177 -4t-173 -4l11 73q1 1 62 1h59q32 0 70 8q8 3 19.5 13t12.5 16q9 36 9 64q-1 7 -1 51v11q1 2 1 17q0 115 -7 137q-9 34 -194 258.5t-244 271.5h-226zM1571 215v111l65 -9l60 -4l-15 -110l-59 4zM1589 399v480q11 -5 101.5 -14t119.5 -9l-118 -465z " />
<glyph unicode="Z" horiz-adv-x="1146" d="M96 274q218 61 307 250q10 13 15 82q11 137 52 216.5t122 121.5q51 -29 88 -33v-10q0 -31 6 -41l8 -18l19 -8q54 -18 111 -18q80 0 165 36l51 -113q-118 -63 -191 -67q-4 -1 -28 -1q-45 0 -100 9h-27q-31 0 -45 -41q-2 -27 17 -37l6 -4l16 -8q32 -16 91 -53 q171 -120 274 -322l-129 -78q-40 79 -123.5 150t-198.5 121l-8 4l-10 2q-18 0 -29 -15l-23 -26q-91 -119 -170.5 -174t-201.5 -86zM410 1165q0 69 48 118q48 48 117 48t117.5 -48.5t48.5 -117.5t-48.5 -117.5t-117.5 -48.5t-117 48.5t-48 117.5z" />
<glyph unicode="a" d="M96 719q0 141 56 275t156 234q99 99 232.5 154.5t276.5 55.5t276.5 -55.5t232.5 -154.5t154.5 -232.5t55.5 -276.5t-55.5 -276.5t-154.5 -232.5q-100 -100 -234 -156t-275 -56t-275 56t-234 156q-100 99 -156 233t-56 276zM434 542q0 -4 4 -7q161 -146 379 -146 q155 0 277 74q18 10 32 22q6 5 6 10t-6 8.5t-12 0.5l-20 -8q-125 -52 -269 -52q-203 0 -379 101q-12 7 -12 -3zM645 743q0 -60 33 -93.5t90 -33.5q75 0 135 60q0 -1 3 -4l4 -6l8 -11l5 -5q1 -1 1 -2q0 -2 1 -2q5 -6 11 -11q5 -3 14 -12q13 -4 19 2q11 7 63 53q10 9 2 20 q-33 39 -33 76v169q0 19 -2 37q-4 11 -4 17q-5 16 -15 32q-4 6 -13 15q-47 41 -125 41h-17q-69 -3 -112 -35t-54 -89q-5 -14 11 -19l80 -8q9 0 14 14q11 44 61 51h6q30 0 43 -18t13 -63v-13q-102 0 -154 -28q-88 -31 -88 -134zM764 758q0 82 87 82h36v-17q0 -60 -17 -86 q-14 -29 -45 -39h-10q-24 0 -37.5 16.5t-13.5 43.5zM1056 531q0 -5 7 -5q1 0 9 2h6q1 0 2.5 0.5t4.5 1t6 0.5h3q3 1 30 1q33 0 37 -7q3 -4 3 -12q0 -30 -25 -84q-3 -4 0 -6l4 -1q3 0 6 3q45 38 51 111v4q0 8 -4 12q-4 8 -36 10h-13q-46 0 -86 -22q-5 -5 -5 -8z" />
<glyph unicode="b" d="M96 721q0 141 55 274t153 232q97 99 230.5 155.5t274.5 57.5h14q140 -1 273 -57.5t232 -155.5t153.5 -232t54.5 -274q0 -142 -55.5 -275.5t-155.5 -233.5t-233.5 -156t-276.5 -56q-141 0 -275 56t-234 156q-99 99 -154.5 232.5t-55.5 276.5zM528 653q0 -113 79.5 -192.5 t191.5 -79.5h67q112 0 191.5 74.5t79.5 179.5q0 106 -59 180t-144 74h-135q-28 0 -48 -20t-20 -48t20 -47.5t48 -19.5h135q27 0 47 -35.5t20 -83.5q0 -49 -39 -83t-96 -34h-67q-56 0 -95.5 39t-39.5 96v338q0 28 -20 48t-48 20t-48 -20t-20 -48v-338z" />
<glyph unicode="c" d="M96 719q0 141 56 275t156 234q99 99 232.5 154.5t276.5 55.5t276.5 -55.5t232.5 -154.5t154.5 -232.5t55.5 -276.5t-55.5 -276.5t-154.5 -232.5q-100 -100 -234 -156t-275 -56t-275 56t-234 156q-100 99 -156 233t-56 276zM455 645q0 -16 16 -16h98l76 131h-174 q-6 0 -11 -5.5t-5 -11.5v-98zM512 412q0 -15 12 -6l56 36q10 10 -2 19l-43 24q-5 3 -10 0.5t-5 -8.5zM540 516q0 -8 9 -12l43 -25q15 -7 22 6l199 344q7 16 -6 23l-43 25q-6 3 -13 1t-10 -8l-198 -344q-3 -4 -3 -10zM743 629h181l-62 131h-43zM795 1033q0 -28 62 -172 q3 -7 5 -9l2 -6l2 -3l2 -4q0 -4 7 -17l9 -20q20 -45 60 -132q3 -5 12.5 -24.5t15.5 -32.5q12 -23 20 -26.5t32 3.5q13 4 20 15.5t0 23.5q-95 191 -135 250q-3 3 -4 7q-1 1 -1.5 2.5t-1.5 3.5l-1 1l-15 25q-9 16 -18 30q-44 74 -46 76q-14 20 -21 21q-1 0 -2 -1q-4 -1 -4 -11 zM1008 760q36 -68 42 -77l5 -9q11 -27 14 -31q6 -6 6 -14h86q17 0 17 16v98q0 6 -5 11.5t-12 5.5h-153zM1016 549q0 -6 4 -10l24 -41q10 -13 25 -6l18 10q13 10 7 26l-21 39q-4 10 -14 10l-8 -2l-25 -12q-10 -6 -10 -14zM1066 459q0 -11 9 -23q11 -14 36 -26q27 -13 28 -19 q0 7 1 8v17q0 62 -36 73q-1 1 -5 1q-9 0 -22 -9q-11 -11 -11 -22z" />
<glyph unicode="d" d="M96 719q0 143 55.5 276.5t154.5 232.5t232.5 154.5t276.5 55.5t277 -55.5t233 -154.5q100 -100 155.5 -233.5t55.5 -275.5q0 -195 -96 -361q-97 -167 -264 -263.5t-361 -96.5q-193 0 -359 96q-167 96 -263.5 263t-96.5 362zM483 719q0 -138 97 -236t235 -98t236 98 t98 236q0 137 -98 234.5t-236 97.5t-235 -97.5t-97 -234.5zM539 705q17 0 20 -1l19 -2q124 0 249 46q4 -15 17 -39q-149 -52 -232 -179q-70 73 -73 175zM541 760q10 66 49 120t98 85q69 -81 115 -166q-107 -39 -225 -39h-37zM653 492q79 120 209 163q33 -103 41 -200 q-43 -15 -88 -15q-86 0 -162 52zM743 985q36 10 72 10q113 0 193 -77q-69 -62 -154 -99q-49 87 -111 166zM879 768q91 43 165 106q50 -77 50 -155q-76 14 -107 14q-49 0 -90 -10zM915 670q37 6 72 6q47 0 100 -12q-26 -125 -131 -185q-13 109 -41 191z" />
<glyph unicode="e" d="M96 721q0 141 55 274t154 232q97 99 230 155.5t274 57.5h14q141 -1 274.5 -57.5t230.5 -155.5q98 -99 153 -232t55 -274q0 -143 -55.5 -276.5t-154.5 -232.5q-100 -100 -234 -156t-275 -56t-275 56t-234 156t-156 233.5t-56 275.5zM414 469h225q37 0 72 6q36 11 55 27 q59 41 59 119q0 86 -77 118q25 12 36 29q25 28 25 74q0 41 -23 76q-41 53 -131 53h-241v-502zM528 557v133h109q35 0 49 -8q33 -14 33 -53q0 -42 -18 -57t-66 -15h-107zM528 774v111h95q16 0 59 -8q27 -12 27 -48q0 -55 -74 -55h-107zM864 662q0 -101 54 -146 q55 -43 126 -43q91 0 136 51q31 34 34 66h-96q-7 -16 -18 -25q-22 -16 -53 -16q-89 0 -89 90h263q0 215 -179 215q-80 0 -129 -49q-49 -52 -49 -143zM940 899h201v51h-201v-51zM961 700q6 35 24 56q20 20 57 20q32 0 56 -18q21 -21 24 -58h-161z" />
<glyph unicode="f" horiz-adv-x="1628" d="M96 719q0 142 56 277t154 233q100 100 233.5 155.5t275.5 55.5t275.5 -55.5t233.5 -155.5q99 -99 154.5 -233t55.5 -277t-55.5 -276.5t-154.5 -232.5t-232.5 -154.5t-276.5 -55.5t-276.5 55.5t-232.5 154.5t-154.5 233t-55.5 276zM629 694h106v-323h133v323h133v133h-133 v68q0 16 8.5 28.5t18.5 12.5h106v131h-106q-66 0 -113 -51t-47 -123v-66h-106v-133z" />
<glyph unicode="g" d="M96 713q0 141 56 275t156 234q99 99 232.5 154.5t276.5 55.5t276.5 -55.5t232.5 -154.5t154.5 -232.5t55.5 -276.5q0 -195 -96 -361q-97 -168 -263 -264t-360 -96q-193 0 -360 96q-168 96 -264.5 263t-96.5 362zM426 393q0 -42 23 -76t63 -53q78 -35 160 -35 q132 0 216.5 62.5t84.5 157.5q0 81 -57 134q-21 21 -48 40q-57 44 -57 73q0 34 42 71q42 39 59.5 74.5t17.5 80.5q0 47 -22 89.5t-58 63.5h74l71 45h-235q-82 0 -133 -19q-57 -20 -101.5 -77.5t-44.5 -124.5q0 -78 57 -131t138 -53q3 0 8 0.5t14 1t17 0.5q-13 -29 -13 -45 q0 -43 37 -80q-113 -4 -189.5 -36t-103.5 -89q-20 -38 -20 -74zM526 420q0 -45 32 -80q57 -61 167 -61q80 0 125 32.5t45 91.5q0 57 -54 102q-12 8 -22 18q-4 3 -26 18.5t-23 15.5h-27q-125 0 -183 -55q-34 -33 -34 -82zM584 956q0 -82 44 -145t103 -63q98 0 98 116 q0 109 -61 179q-35 38 -80 38q-47 0 -75.5 -35t-28.5 -90zM975 913h137v-137h68v137h139v70h-139v137h-68v-137h-137v-70z" />
<glyph unicode="h" d="M96 719q0 141 56 275t156 234q99 99 232.5 154.5t276.5 55.5t276.5 -55.5t232.5 -154.5t154.5 -232.5t55.5 -276.5t-55.5 -276.5t-154.5 -232.5t-232.5 -154.5t-276.5 -55.5t-276.5 55.5t-232.5 154.5q-100 99 -156 233t-56 276zM473 870q0 -59 31 -102q-4 -11 -4 -49 q0 -131 92.5 -223.5t222.5 -92.5q33 0 57 7q47 -29 101 -29q78 0 133 55t55 133q0 56 -33 107q2 42 2 43q0 129 -92.5 221t-222.5 92q-40 0 -51 -4q-43 31 -102 31q-78 0 -133.5 -55.5t-55.5 -133.5zM625 600q0 9 1 10q5 24 31.5 32t41.5 -9q21 -18 29 -27q21 -24 58 -35 q18 -11 53 -3q32 6 49.5 22t17.5 32q0 14 -16 26q-32 23 -85 30q-76 10 -124.5 45.5t-47.5 83.5v10q4 56 41.5 92.5t97.5 42.5l34 2q90 0 152 -53q22 -18 27.5 -42.5t-8.5 -36.5q-13 -16 -29 -16t-32 15q-64 57 -107 58q-30 0 -54 -15q-24 -16 -28 -35t14 -36q16 -13 80 -25 q55 -13 73 -18.5t42 -18.5q72 -38 73 -109q-1 -50 -50 -91t-115 -44q-3 -1 -29 -1q-97 0 -162 59q-28 28 -28 55z" />
<glyph unicode="i" d="M96 721q0 142 56 277q56 134 154 232q99 99 232.5 154.5t276.5 55.5t277 -55.5t233 -154.5q100 -100 155.5 -233.5t55.5 -275.5t-55.5 -275.5t-155.5 -233.5t-233.5 -156t-276.5 -56q-141 0 -275 56t-234 156q-99 99 -154.5 233t-55.5 276zM535 1049q0 -32 22.5 -55 t54.5 -23t55 23t23 55t-23 55.5t-55 23.5q-31 0 -54 -24t-23 -55zM549 483h127v441h-127v-441zM737 483h127v283l6 6q32 26 61 26q20 0 36 -10q7 -3 14.5 -15t7.5 -21v-269h125v269q0 44 -24 84q-46 79 -143 84h-7q-36 0 -76 -17v21h-127v-441z" />
<glyph unicode="j" horiz-adv-x="1628" d="M96 719q0 141 54.5 274t153.5 232q99 100 231 156t272 57h16q140 -1 272 -57t231 -156q99 -99 153.5 -232t54.5 -274q0 -143 -55.5 -276.5t-154.5 -232.5q-100 -100 -234 -156t-275 -56t-275 56t-234 156q-99 99 -154.5 232.5t-55.5 276.5zM395 607q0 -21 1 -23 q7 -64 22 -102l6 -15l432 125l-119 239q73 17 122 17q101 0 193 -40q47 -20 56 -28l20 -12l-147 -39l-41 78q-27 7 -73 7q-15 0 -62 -5l100 -203l432 123l-6 9q-13 20 -51 52q-114 96 -298 118q-25 4 -91 4h-31q-70 -1 -145 -15l-8 -2l-45 92l-136 -16l56 -111 q-187 -78 -187 -253zM534 647v6q0 70 87 127l63 -131l-143 -39l-1 4l-3 7q-1 6 -3 26z" />
<glyph unicode="k" d="M96 711q0 193 96 360t263 263t362 96q143 0 276.5 -55.5t232.5 -154.5t154.5 -232.5t55.5 -276.5q0 -195 -96 -361q-97 -168 -263 -264t-360 -96q-195 0 -361 96q-167 96 -263.5 263t-96.5 362zM331 860q0 -6 3 -14q39 -92 92 -183.5t92 -134.5l31 -36l12 -12 q109 -90 198 -90q14 0 15 1h53q15 0 22 6l3 2q8 11 8 25q-1 22 7 54q8 20 16 24l8 4q1 1 5 1q24 0 75 -60q24 -29 41 -41q6 -5 10 -6q19 -13 38 -13q7 0 11 4h123q28 1 36 13q5 8 5 13q0 6 -3 12l-5 13q-17 36 -92 105l-17 17l-4 3l-1 1q-12 8 -24 29q-2 3 -3 13t2 14 q1 1 10 17t14 21q38 48 49 63q73 97 73 133q0 7 -2 11q-13 13 -46 10h-137l-17 -5q-9 -7 -10 -14q-28 -64 -44 -90l-7 -14q-28 -47 -49 -73q-24 -27 -34 -31q-9 -4 -22 10q-10 12 -8 61v20q0 8 1 11q0 8 1 18v23q1 6 1 43q0 38 -12 48q-8 6 -22 9q-14 6 -61 8 q-88 0 -111 -12q-19 -9 -23 -22q0 -2 1 -3q30 -8 41 -20q13 -25 13 -104q0 -70 -11 -84l-6 -7q-11 -5 -24 1q-34 15 -75 104q-33 57 -49 98q-5 12 -10 14l-2 2q-8 9 -18 9h-130q-18 0 -26 -8l-2 -3q-3 -3 -3 -8z" />
<glyph unicode="l" d="M96 719q0 141 56 275t156 234q99 99 232.5 154.5t276.5 55.5t276.5 -55.5t232.5 -154.5t154.5 -232.5t55.5 -276.5t-55.5 -276.5t-154.5 -232.5t-232.5 -154.5t-276.5 -55.5t-276.5 55.5t-232.5 154.5q-100 99 -156 233t-56 276zM496 481q101 -65 223 -65q144 0 251 81.5 t146 215.5q17 65 17 118v19q41 29 73 76q-45 -19 -84 -23q43 25 66 80q-66 -29 -96 -35q-41 47 -105 47q-60 0 -102.5 -43t-42.5 -104q0 -21 4 -33q-183 9 -301 154q-19 -34 -19 -74q0 -82 64 -121q-34 0 -66 17v-3q0 -52 32.5 -92t82.5 -51q-12 -4 -39 -4q-14 0 -25 4 q12 -43 50 -72t86 -30q-80 -62 -181 -62h-34z" />
<glyph unicode="m" d="M96 719q0 142 56 277q56 134 154 232q99 99 232.5 154.5t276.5 55.5t277 -55.5t233 -154.5q100 -100 155.5 -233.5t55.5 -275.5t-55.5 -275.5t-155.5 -233.5q-99 -99 -233 -154.5t-277 -55.5t-276.5 55.5t-232.5 154.5t-154.5 233t-55.5 276zM518 647h119v-117h178v-155 h297v278q0 61 -43.5 104.5t-105.5 43.5q-64 0 -105 -41q-9 36 -38.5 59t-67.5 23q-53 0 -86 -41q-6 26 -26 42.5t-46 16.5q-32 0 -54 -23t-22 -55v-135zM526 954q0 -28 19 -46.5t45 -18.5t44.5 18.5t18.5 46.5q0 26 -18.5 45t-44.5 19t-45 -19t-19 -45zM668 954 q0 -35 24.5 -59.5t59.5 -24.5q34 0 59 24.5t25 59.5q0 34 -25 59t-59 25q-35 0 -59.5 -25t-24.5 -59zM854 954q0 -46 32 -78t77 -32q46 0 77 32t31 78q0 45 -31.5 77t-76.5 32q-44 0 -76.5 -32.5t-32.5 -76.5z" />
<glyph unicode="n" d="M96 719q0 141 56 275t156 234q99 99 232.5 154.5t276.5 55.5t276.5 -55.5t232.5 -154.5t154.5 -232.5t55.5 -276.5t-55.5 -276.5t-154.5 -232.5t-232.5 -154.5t-276.5 -55.5t-276.5 55.5t-232.5 154.5q-100 99 -156 233t-56 276zM418 719q0 -72 51 -123t123 -51t123 51 t51 123t-51 123t-123 51t-123 -51t-51 -123zM868 719q0 -72 50.5 -123t121.5 -51q72 0 123 51t51 123t-51 123t-123 51t-122 -51t-50 -123z" />
<glyph unicode="o" d="M96 717q0 141 55 274t153 232q97 99 230.5 155.5t274.5 57.5h14q140 -1 273 -57.5t232 -155.5t153.5 -232t54.5 -274q0 -142 -55.5 -275.5t-155.5 -233.5t-233.5 -156t-276.5 -56q-141 0 -275 56t-234 156q-99 99 -154.5 232.5t-55.5 276.5zM637 768h78v-201q0 -37 8 -59 q5 -20 30 -39q45 -39 111 -39q40 0 58 4t73 27v90q-43 -27 -86 -27t-56 19t-13 78v147h133v102h-133v131h-80q-10 -84 -60 -120q-21 -18 -63 -33v-80z" />
<glyph unicode="p" d="M96 715q0 142 56 277q56 134 154 232q99 99 232.5 154.5t276.5 55.5t277 -55.5t233 -154.5q100 -100 155.5 -233.5t55.5 -275.5t-55.5 -275.5t-155.5 -233.5q-99 -99 -233 -154.5t-277 -55.5t-276.5 55.5t-232.5 154.5t-154.5 233t-55.5 276zM471 438h182l45 209h129 q96 0 165 55.5t91 151.5q6 28 6 54q0 67 -49.5 114t-121.5 47h-310zM543 362h182l43 207h131q94 0 164.5 56t91.5 151q5 38 5 50q0 62 -36 106q14 -40 14 -72q0 -11 -5 -49q-20 -95 -90 -151t-166 -56h-129l-46 -209h-151zM723 768l39 172h90q48 0 61 -43q3 -14 3 -25 q0 -9 -1 -10q-2 -2 -2 -8q-9 -35 -37.5 -60t-62.5 -26h-90z" />
<glyph unicode="q" d="M96 719q0 193 96 360t263 263t362 96q143 0 276.5 -55.5t232.5 -154.5t154.5 -232.5t55.5 -276.5q0 -195 -96 -361q-97 -168 -263 -264t-360 -96q-195 0 -361 96q-167 96 -263.5 263t-96.5 362zM492 743q0 -129 91 -220t222 -91q45 0 92 14q13 -22 24 -35q32 -42 71 -47 h8q3 -1 7 -1h4q1 -1 3 -1h1q21 0 34 6l22 9v55q-5 -2 -12 0q-8 0 -30 13q-29 19 -44 40q70 45 111.5 116.5t44.5 152.5v11q0 129 -91 219.5t-223 90.5q-133 0 -231.5 -94.5t-103.5 -226.5v-11zM653 748v12q5 97 56 166t120 69q68 0 114 -65t46 -158v-12q-3 -106 -61 -176 q-23 31 -49 46q-25 15 -48 15.5t-41 -7.5l-10 -3v-55l16 2q25 0 44 -25l14 -27q-26 -8 -41 -8q-68 0 -114 66t-46 160z" />
<glyph unicode="r" d="M96 715q0 116 36 225.5t102 197.5q141 188 351 258q105 37 224 38h14q141 -1 273.5 -56.5t231.5 -155.5t153.5 -233t54.5 -274q0 -143 -55.5 -276.5t-154.5 -232.5t-232.5 -154.5t-276.5 -55.5t-276.5 55.5t-232.5 154.5q-100 100 -156 234t-56 275zM496 469 q0 -38 27 -65t65 -27t65 27t27 65t-27 65t-65 27t-65 -27t-27 -65zM496 702q133 0 228 -95t95 -230h135q0 189 -134.5 324t-323.5 135v-134zM496 938q110 0 215.5 -44t181.5 -120t120 -181.5t44 -215.5h133q0 187 -92 348q-93 161 -253.5 253.5t-348.5 92.5v-133z" />
<glyph unicode="s" d="M96 721q0 143 55.5 276.5t154.5 232.5t232.5 154.5t276.5 55.5q196 0 362 -96q167 -96 263 -262t96 -361q0 -194 -96 -361q-96 -168 -263 -264t-362 -96q-193 0 -359 96q-167 96 -263.5 263t-96.5 362zM412 606q0 -76 54 -130t130 -54t130 51.5t54 126.5v262 q0 18 12.5 30.5t30.5 12.5q17 0 29 -13t12 -30v-51l58 -27l84 27v51q0 75 -54 130t-129 55t-129.5 -55t-54.5 -130v-256q0 -19 -12 -32t-31 -13t-31 13t-12 32v113h-141v-113zM864 600q0 -75 55 -129.5t130 -54.5q77 0 130.5 54t53.5 130v113h-141v-113q0 -19 -12 -31 t-31 -12t-31 12t-12 31v117l-84 -27l-58 27v-117z" />
<glyph unicode="t" d="M96 719q0 142 56 277q55 132 156 233q100 100 233.5 155.5t275.5 55.5t275.5 -55.5t233.5 -155.5q99 -99 154.5 -233t55.5 -277t-55.5 -276.5t-154.5 -232.5t-232.5 -154.5t-276.5 -55.5t-276.5 55.5t-232.5 154.5q-100 99 -156 233t-56 276zM565 676q0 -112 73.5 -191 t176.5 -79h174q32 0 55 22.5t23 54.5q0 34 -22 56t-54 22h-172q-38 0 -68 34.5t-30 80.5v43h268q32 0 55 23t23 55q0 34 -23 57t-55 23h-268v77q0 33 -22.5 55.5t-55.5 22.5q-32 0 -55 -23t-23 -55v-278z" />
<glyph unicode="u" d="M96 717q0 142 56 277q56 134 154 232q99 99 232.5 154.5t276.5 55.5t277 -55.5t233 -154.5q100 -100 155.5 -233.5t55.5 -275.5t-55.5 -275.5t-155.5 -233.5q-99 -99 -233 -154.5t-277 -55.5t-276.5 55.5t-232.5 154.5t-154.5 233t-55.5 276zM492 604q0 -88 61.5 -150.5 t148.5 -62.5h246q88 0 150.5 62.5t62.5 150.5v180l-6 13l-10 8q-11 3 -43 4q-41 1 -50 10t-16 58q-8 54 -26 86q-20 35 -68.5 66.5t-89.5 35.5h-150q-87 0 -148.5 -62.5t-61.5 -150.5v-248zM666 606q0 17 12 29t29 12h239q17 0 29 -12t12 -29t-12 -29t-29 -12h-239 q-17 0 -29 12t-12 29zM666 850q0 17 12 29t29 12h116q17 0 29 -12t12 -29t-12 -29t-29 -12h-116q-17 0 -29 12t-12 29z" />
<glyph unicode="v" d="M96 719q0 142 56 277q56 134 154 232q99 99 232.5 154.5t276.5 55.5t277 -55.5t233 -154.5q100 -100 155.5 -233.5t55.5 -275.5t-55.5 -275.5t-155.5 -233.5q-99 -99 -233 -154.5t-277 -55.5t-276.5 55.5t-232.5 154.5t-154.5 233t-55.5 276zM420 885l33 -43q3 1 8 6 q42 27 64 27q12 0 16 -7q12 -14 67 -193q66 -203 68 -206q19 -43 65 -72q23 -15 47 -15q41 0 117 64q117 98 199 221t102 240q4 15 4 44q0 75 -57 106q-28 16 -64 16q-30 0 -78 -17q-84 -34 -121 -115q-11 -26 -16 -54q32 17 54 17q11 0 20 -3q31 -11 35 -45q1 -1 1 -12 q0 -24 -17 -66q-77 -141 -111 -141q-16 0 -28 34q-4 12 -37 124q-5 23 -12 69q-16 105 -38 153q-23 50 -65 50l-19 -2q-38 -8 -95.5 -48t-105.5 -91z" />
<glyph unicode="w" d="M96 713q0 142 56 277q56 134 154 232q99 99 232.5 154.5t276.5 55.5q196 0 362 -96q167 -96 263 -262t96 -361q0 -193 -96 -359q-96 -167 -263 -263.5t-362 -96.5q-143 0 -276.5 55.5t-232.5 154.5t-154.5 233t-55.5 276zM469 713q0 -101 53.5 -185.5t143.5 -126.5 l-166 453q-31 -68 -31 -141zM526 903h23l92 4q9 0 13 -7q3 -7 0 -14t-11 -7l-39 -5l125 -374l76 227l-53 147l-37 5q-8 0 -11 7t0.5 14t12.5 7q36 -4 92 -4l92 4q9 0 13 -7q3 -7 0 -14t-11 -7l-39 -5l125 -370l35 114q27 76 27 113q0 38 -29 94q-35 56 -35 82q0 24 16.5 43 t40.5 19h7q-101 90 -236 90q-89 0 -165 -41.5t-124 -114.5zM719 381q50 -14 96 -14q59 0 117 20l-4 4l-107 291zM989 414q79 45 126.5 126t47.5 173q0 90 -43 166q2 -32 2 -35q0 -55 -26 -125z" />
<glyph unicode="x" d="M96 719q0 142 56 277q55 132 156 233q100 100 233.5 155.5t275.5 55.5t275.5 -55.5t233.5 -155.5q99 -99 154.5 -233t55.5 -277t-55.5 -276.5t-154.5 -232.5t-232.5 -154.5t-276.5 -55.5t-276.5 55.5t-232.5 154.5q-100 99 -156 233t-56 276zM518 637h51v-250h47v250h52 v41h-150v-41zM565 1059l64 -195v-127h55v133l64 189h-56l-35 -129h-2l-37 129h-53zM686 422q0 -37 31 -37q28 0 49 27v-25h43v215h-43v-164q-14 -14 -25 -14q-8 0 -10 2l-1 4q-1 1 -1 8v164h-43v-180zM752 797q0 -30 18.5 -48t50.5 -18t51 19q19 16 19 47v123q0 27 -19 43 q-18 18 -49 18t-53 -16q-18 -18 -18 -45v-123zM801 793v129q0 9 6 12q3 6 14 6q9 0 15 -6q6 -3 6 -12v-129q0 -9 -6 -15t-15 -6q-10 0 -16 6q-4 7 -4 15zM842 387h43v16q2 -2 4 -3l7 -5q3 -2 7 -6q7 -4 23 -4q18 0 28.5 13t10.5 34v119q0 21 -11 41q-12 12 -30 12 q-21 0 -39 -18v92h-43v-291zM885 428v135l8 6q4 0 5 1t5 1q9 0 12 -6q5 -5 5 -16v-111q0 -20 -15 -20q-4 0 -5 1t-5 1q-4 2 -10 8zM930 776q0 -43 35 -43q10 0 28 10t27 21v-27h49v238h-49v-180q-13 -19 -29 -19q-12 0 -12 17v182h-49v-199zM987 449q0 -30 17 -50 q18 -18 45 -18q33 0 49 16q16 19 16 52v10h-45v-10q0 -21 -4 -25t-14 -4q-12 0 -15.5 5t-3.5 24v40h82v56q0 28 -16 47q-16 16 -45 16t-47.5 -18t-18.5 -45v-96zM1032 524v21q0 15 3.5 19.5t15.5 4.5q18 0 18 -24v-21h-37z" />
<glyph unicode="y" d="M96 717q0 194 96 361t263 263.5t362 96.5q142 0 275.5 -55.5t233.5 -155.5q99 -99 154.5 -233t55.5 -277t-55.5 -276.5t-154.5 -232.5t-232.5 -154.5t-276.5 -55.5q-195 0 -361.5 96t-262.5 263q-97 163 -97 360zM340 944h125q31 -24 134.5 -149.5t109.5 -145.5 q3 -19 3 -87q0 -64 -7.5 -76t-51.5 -13h-69l-6 -41q14 0 17 1q22 0 35 1h44l98 2q159 0 221 -2v43q-2 1 -67 1t-66 1q-5 33 -5 139q0 30 1 31q9 24 118 115.5t134 97.5q10 0 22 4h68l12 17l25 39l2 4h-373l15 -60h102l-170 -153l-114 148q-42 56 -60 83h127v45l2 8l-2 2v5 h-424v-60zM1159 438l29 -4l33 -2l8 62l-33 2l-37 4v-62zM1169 541l58 -4l65 258q-18 0 -67.5 4.5t-55.5 7.5v-266z" />
<glyph unicode="z" horiz-adv-x="1628" d="M96 719q0 142 56 277q56 134 154 232q99 99 232.5 154.5t276.5 55.5t276.5 -55.5t232.5 -154.5t154.5 -232.5t55.5 -276.5t-55.5 -276.5t-154.5 -232.5t-232.5 -154.5t-276.5 -55.5t-276.5 55.5t-232.5 154.5t-154.5 233t-55.5 276zM549 473l35 -90q52 14 102 43.5 t73 58.5q31 41 32 43l12 15q8 8 16 8q3 0 10 -4q136 -60 179 -150l71 43q-36 69 -77 113q-76 77 -126 96l-8 4l-4 3q-12 10 -6 26t23 16h14q35 -6 49 -6q56 0 129 39l-29 64q-48 -21 -93 -21q-37 0 -60 10l-10 4l-4 11q-5 8 -5 22v6q-20 2 -49 19q-45 -25 -67.5 -69 t-28.5 -120q-3 -40 -8 -45q-50 -107 -170 -139zM723 969q0 -38 27 -65t65 -27t65 27t27 65t-27 65t-65 27t-65 -27t-27 -65z" />
<glyph unicode="&#xa0;" d="M96 729q0 141 56 275t156 234q99 99 232.5 154.5t276.5 55.5t276.5 -55.5t232.5 -154.5t154.5 -232.5t55.5 -276.5q0 -195 -96 -361q-97 -168 -263 -264t-360 -96q-193 0 -360 96q-168 96 -264.5 263t-96.5 362z" />
<glyph unicode="&#x2000;" horiz-adv-x="724" />
<glyph unicode="&#x2001;" horiz-adv-x="1448" />
<glyph unicode="&#x2002;" horiz-adv-x="724" />
<glyph unicode="&#x2003;" horiz-adv-x="1448" />
<glyph unicode="&#x2004;" horiz-adv-x="482" />
<glyph unicode="&#x2005;" horiz-adv-x="362" />
<glyph unicode="&#x2006;" horiz-adv-x="241" />
<glyph unicode="&#x2007;" horiz-adv-x="241" />
<glyph unicode="&#x2008;" horiz-adv-x="181" />
<glyph unicode="&#x2009;" horiz-adv-x="289" />
<glyph unicode="&#x200a;" horiz-adv-x="80" />
<glyph unicode="&#x202f;" horiz-adv-x="289" />
<glyph unicode="&#x205f;" horiz-adv-x="362" />
<glyph unicode="&#x25fc;" horiz-adv-x="1440" d="M0 0v1440h1440v-1440h-1440z" />
</font>
</defs>
</svg>
